{"glyphs":{"0":{"ha":833,"x_min":83,"x_max":750,"o":"m 415 -14 q 163 122 242 -14 q 83 497 83 257 q 117 772 83 658 q 223 945 150 885 q 415 1006 296 1006 q 670 872 590 1006 q 750 497 750 739 q 717 223 750 338 q 610 47 683 108 q 415 -14 536 -14 m 200 497 q 205 383 200 436 q 219 286 210 329 l 549 843 q 415 896 497 896 q 251 798 303 896 q 200 497 200 700 m 415 96 q 583 194 529 96 q 638 497 638 292 q 610 733 638 642 l 272 164 q 415 96 324 96 z "},"1":{"ha":833,"x_min":135,"x_max":722,"o":"m 185 0 l 185 83 l 393 97 l 393 619 q 395 748 393 678 q 399 864 397 818 q 358 843 376 851 q 304 817 340 835 l 189 757 l 135 851 l 411 992 l 513 992 l 513 97 l 722 83 l 722 0 l 185 0 z "},"2":{"ha":833,"x_min":97,"x_max":757,"o":"m 97 0 l 97 106 l 361 365 q 522 551 464 468 q 579 728 579 635 q 531 856 579 817 q 407 896 482 896 q 284 869 342 896 q 176 803 226 843 l 107 889 q 239 972 164 938 q 411 1006 314 1006 q 624 935 544 1006 q 704 732 704 864 q 644 523 704 619 q 478 324 585 426 l 265 117 l 265 111 l 757 111 l 757 0 l 97 0 z "},"3":{"ha":833,"x_min":103,"x_max":729,"o":"m 363 -14 q 233 -2 303 -14 q 103 40 164 10 l 103 158 q 235 112 164 128 q 371 96 306 96 q 547 147 492 96 q 603 282 603 199 q 537 417 603 376 q 351 457 471 457 l 249 457 l 249 568 l 351 568 q 515 618 458 568 q 572 749 572 668 q 528 857 572 818 q 400 896 485 896 q 270 872 329 896 q 169 819 211 847 l 107 904 q 236 976 160 946 q 408 1006 313 1006 q 626 936 553 1006 q 699 760 699 867 q 642 599 699 660 q 492 522 585 538 l 492 518 q 729 275 729 486 q 690 126 729 192 q 571 24 651 61 q 363 -14 490 -14 z "},"4":{"ha":833,"x_min":69,"x_max":764,"o":"m 500 0 l 500 222 l 69 222 l 69 325 l 478 997 l 619 997 l 619 329 l 764 329 l 764 222 l 619 222 l 619 0 l 500 0 m 190 329 l 500 329 l 500 576 q 501 683 500 628 q 505 789 503 739 q 508 869 507 839 l 503 869 q 474 807 493 843 q 442 747 456 771 l 190 329 z "},"5":{"ha":833,"x_min":111,"x_max":721,"o":"m 357 -14 q 225 0 292 -14 q 111 40 158 14 l 111 158 q 219 112 158 128 q 346 96 281 96 q 528 145 463 96 q 593 297 593 194 q 528 454 593 401 q 356 507 464 507 q 272 501 317 507 q 193 486 228 494 l 132 525 l 169 992 l 664 992 l 664 881 l 276 881 l 250 594 q 322 605 279 601 q 396 608 364 608 q 560 575 486 608 q 677 474 633 542 q 721 306 721 407 q 626 73 721 160 q 357 -14 531 -14 z "},"6":{"ha":833,"x_min":83,"x_max":750,"o":"m 428 -14 q 176 96 269 -14 q 83 428 83 206 q 102 638 83 535 q 171 824 121 740 q 311 956 221 907 q 544 1006 401 1006 q 609 1003 572 1006 q 668 993 646 1000 l 668 883 q 613 896 644 892 q 549 900 581 900 q 383 869 449 900 q 281 783 318 838 q 226 658 243 729 q 207 506 210 586 l 215 506 q 301 593 243 558 q 447 628 358 628 q 668 547 586 628 q 750 319 750 467 q 663 75 750 164 q 428 -14 576 -14 m 426 90 q 574 144 517 90 q 631 319 631 197 q 580 476 631 422 q 431 531 529 531 q 313 503 364 531 q 235 432 263 475 q 207 343 207 389 q 231 225 207 283 q 305 128 256 167 q 426 90 354 90 z "},"7":{"ha":833,"x_min":83,"x_max":750,"o":"m 242 0 l 624 881 l 83 881 l 83 992 l 750 992 l 750 893 l 374 0 l 242 0 z "},"8":{"ha":833,"x_min":94,"x_max":738,"o":"m 410 -14 q 181 56 267 -14 q 94 249 94 126 q 122 370 94 319 q 196 458 150 421 q 297 519 242 494 q 178 620 229 560 q 126 769 126 681 q 167 900 126 847 q 274 979 207 953 q 418 1006 340 1006 q 561 979 496 1006 q 666 900 626 953 q 706 769 706 847 q 652 620 706 678 q 518 525 599 563 q 629 456 579 494 q 708 368 679 418 q 738 250 738 318 q 697 114 738 174 q 584 20 657 54 q 410 -14 511 -14 m 418 575 q 536 648 488 606 q 585 763 585 690 q 539 866 585 831 q 415 901 493 901 q 293 867 339 901 q 247 763 247 832 q 272 676 247 711 q 336 618 297 642 q 418 575 375 594 m 414 88 q 565 135 513 88 q 617 257 617 183 q 563 376 617 331 q 399 472 508 421 q 265 382 314 435 q 217 250 217 329 q 264 133 217 179 q 414 88 311 88 z "},"9":{"ha":833,"x_min":83,"x_max":750,"o":"m 301 -14 q 236 -10 269 -14 q 179 -1 203 -7 l 179 108 q 296 92 228 92 q 453 123 390 92 q 552 209 515 154 q 606 335 589 264 q 626 486 624 406 l 618 486 q 531 399 590 435 q 386 364 472 364 q 165 445 247 364 q 83 678 83 526 q 171 917 83 829 q 408 1006 258 1006 q 588 958 511 1006 q 707 808 664 910 q 750 543 750 707 q 739 390 750 468 q 699 239 728 311 q 620 110 671 167 q 491 19 569 53 q 301 -14 413 -14 m 399 461 q 515 487 464 461 q 597 558 567 513 q 626 663 626 604 q 613 740 626 699 q 574 817 600 781 q 506 878 547 854 q 407 901 464 901 q 258 846 314 901 q 203 676 203 790 q 255 513 203 564 q 399 461 307 461 z "},"\u0000":{"ha":0,"x_min":0,"x_max":0,"o":""},"\r":{"ha":833,"x_min":0,"x_max":0,"o":""}," ":{"ha":833,"x_min":0,"x_max":0,"o":""},"!":{"ha":833,"x_min":331,"x_max":503,"o":"m 364 281 l 342 992 l 493 992 l 471 281 l 364 281 m 417 -14 q 356 8 381 -14 q 331 81 331 31 q 356 154 331 133 q 417 175 381 175 q 478 154 453 175 q 503 81 503 133 q 478 8 503 31 q 417 -14 453 -14 z "},"\"":{"ha":833,"x_min":222,"x_max":611,"o":"m 507 633 l 479 992 l 611 992 l 583 633 l 507 633 m 250 633 l 222 992 l 354 992 l 326 633 l 250 633 z "},"#":{"ha":833,"x_min":28,"x_max":806,"o":"m 140 0 l 193 290 l 28 290 l 28 383 l 211 383 l 256 606 l 79 606 l 79 697 l 272 697 l 328 992 l 428 992 l 372 697 l 544 697 l 600 992 l 696 992 l 640 697 l 806 697 l 806 606 l 622 606 l 579 383 l 758 383 l 758 290 l 561 290 l 504 0 l 406 0 l 463 290 l 292 290 l 238 0 l 140 0 m 310 383 l 481 383 l 524 606 l 353 606 l 310 383 z "},"$":{"ha":833,"x_min":111,"x_max":722,"o":"m 365 47 q 233 60 296 49 q 125 93 169 72 l 125 211 q 237 172 172 189 q 365 154 301 156 l 365 456 q 175 553 239 496 q 111 715 111 610 q 180 882 111 819 q 365 953 249 944 l 365 1054 l 454 1054 l 454 954 q 579 938 524 953 q 685 903 635 924 l 647 800 q 554 831 603 818 q 454 849 506 844 l 454 549 q 603 492 543 522 q 692 416 663 463 q 722 294 722 369 q 652 133 722 197 q 454 53 582 68 l 454 -81 l 365 -81 l 365 47 m 365 846 q 263 805 296 840 q 231 715 231 769 q 260 631 231 663 q 365 579 289 600 l 365 846 m 454 161 q 567 206 532 171 q 603 297 603 242 q 572 377 603 350 q 454 426 540 404 l 454 161 z "},"%":{"ha":833,"x_min":0,"x_max":833,"o":"m 197 532 q 56 594 113 532 q 0 768 0 656 q 53 942 0 881 q 200 1003 107 1003 q 341 942 285 1003 q 397 768 397 881 q 343 594 397 656 q 197 532 289 532 m 115 0 l 610 992 l 717 992 l 222 0 l 115 0 m 199 613 q 269 650 246 613 q 293 768 293 688 q 269 885 293 850 q 199 921 246 921 q 127 885 151 921 q 103 768 103 850 q 127 650 103 688 q 199 613 151 613 m 633 -12 q 492 49 549 -12 q 436 224 436 111 q 490 397 436 336 q 636 458 543 458 q 777 397 721 458 q 833 224 833 336 q 779 49 833 111 q 633 -12 725 -12 m 635 68 q 706 106 682 68 q 729 224 729 143 q 706 341 729 306 q 635 376 682 376 q 563 341 588 376 q 539 224 539 306 q 563 106 539 143 q 635 68 588 68 z "},"&":{"ha":833,"x_min":54,"x_max":807,"o":"m 311 -14 q 121 60 188 -14 q 54 244 54 133 q 79 369 54 315 q 145 467 104 424 q 236 547 186 510 q 167 667 197 603 q 138 803 138 732 q 193 951 138 894 q 346 1007 249 1007 q 499 951 443 1007 q 554 806 554 894 q 529 695 554 744 q 465 605 504 646 q 382 529 425 564 l 576 288 q 620 387 603 336 q 644 485 638 438 l 760 485 q 718 331 746 406 q 651 194 690 257 l 807 0 l 658 0 l 578 103 q 457 17 524 49 q 311 -14 390 -14 m 251 800 q 271 702 251 753 q 319 610 290 651 q 403 693 364 644 q 442 806 442 742 q 415 883 442 856 q 346 911 389 911 q 277 882 303 911 q 251 800 251 853 m 174 251 q 214 139 174 185 q 325 93 254 93 q 426 120 379 93 q 511 190 472 147 l 300 463 q 212 371 250 421 q 174 251 174 321 z "},"'":{"ha":833,"x_min":350,"x_max":482,"o":"m 378 633 l 350 992 l 482 992 l 454 633 l 378 633 z "},"(":{"ha":833,"x_min":278,"x_max":597,"o":"m 482 -219 q 327 58 376 -97 q 278 381 278 213 q 327 708 278 550 q 482 992 376 865 l 597 992 q 451 704 500 861 q 401 382 401 547 q 451 66 401 221 q 596 -219 500 -89 l 482 -219 z "},")":{"ha":833,"x_min":236,"x_max":556,"o":"m 351 992 q 506 715 457 869 q 556 392 556 560 q 506 65 556 222 q 351 -219 457 -93 l 236 -219 q 383 69 333 -89 q 432 390 432 226 q 383 706 432 551 q 238 992 333 861 l 351 992 z "},"*":{"ha":833,"x_min":125,"x_max":713,"o":"m 529 464 l 417 679 l 306 465 l 203 531 l 350 717 l 125 746 l 144 850 l 381 790 l 361 1036 l 471 1036 l 454 790 l 692 856 l 713 742 l 489 714 l 636 529 l 529 464 z "},"+":{"ha":833,"x_min":111,"x_max":722,"o":"m 368 168 l 368 440 l 111 440 l 111 539 l 368 539 l 368 813 l 468 813 l 468 539 l 722 539 l 722 440 l 468 440 l 468 168 l 368 168 z "},",":{"ha":833,"x_min":293,"x_max":528,"o":"m 293 -194 q 336 -2 315 -104 q 368 179 357 100 l 517 179 l 528 163 q 470 -15 507 82 q 396 -194 433 -111 l 293 -194 z "},"-":{"ha":833,"x_min":208,"x_max":625,"o":"m 208 319 l 208 431 l 625 431 l 625 319 l 208 319 z "},".":{"ha":833,"x_min":331,"x_max":503,"o":"m 417 -14 q 356 8 381 -14 q 331 81 331 31 q 356 154 331 133 q 417 175 381 175 q 478 154 453 175 q 503 81 503 133 q 478 8 503 31 q 417 -14 453 -14 z "},"/":{"ha":833,"x_min":167,"x_max":667,"o":"m 167 0 l 547 992 l 667 992 l 286 0 l 167 0 z "},":":{"ha":833,"x_min":331,"x_max":503,"o":"m 418 569 q 357 592 382 569 q 332 664 332 614 q 357 738 332 717 q 418 758 382 758 q 478 738 454 758 q 503 664 503 717 q 478 592 503 614 q 418 569 454 569 m 417 -14 q 356 8 381 -14 q 331 81 331 31 q 356 154 331 133 q 417 175 381 175 q 477 154 453 175 q 501 81 501 133 q 477 8 501 31 q 417 -14 453 -14 z "},";":{"ha":833,"x_min":293,"x_max":535,"o":"m 449 569 q 388 592 413 569 q 363 664 363 614 q 388 738 363 717 q 449 758 413 758 q 510 738 485 758 q 535 664 535 717 q 510 592 535 614 q 449 569 485 569 m 293 -194 q 336 -2 315 -104 q 368 179 357 100 l 517 179 l 528 163 q 470 -15 507 82 q 396 -194 433 -111 l 293 -194 z "},"<":{"ha":833,"x_min":125,"x_max":708,"o":"m 708 161 l 125 449 l 125 518 l 708 844 l 708 736 l 256 488 l 708 269 l 708 161 z "},"=":{"ha":833,"x_min":97,"x_max":736,"o":"m 97 565 l 97 676 l 736 676 l 736 565 l 97 565 m 97 301 l 97 413 l 736 413 l 736 301 l 97 301 z "},">":{"ha":833,"x_min":125,"x_max":708,"o":"m 125 161 l 125 269 l 578 488 l 125 736 l 125 844 l 708 518 l 708 449 l 125 161 z "},"?":{"ha":833,"x_min":125,"x_max":708,"o":"m 319 306 q 332 397 319 358 q 376 472 344 436 q 460 544 407 507 q 535 607 507 578 q 577 671 564 636 q 590 757 590 706 q 545 858 590 818 q 414 897 500 897 q 284 880 342 897 q 169 836 226 863 l 125 940 q 248 985 182 965 q 407 1006 314 1006 q 628 940 547 1006 q 708 763 708 874 q 692 650 708 697 q 641 565 675 603 q 553 486 607 526 q 472 417 499 446 q 436 361 444 389 q 428 293 428 333 l 428 281 l 319 281 l 319 306 m 379 -14 q 318 8 343 -14 q 293 81 293 31 q 318 154 293 133 q 379 175 343 175 q 440 154 415 175 q 465 81 465 133 q 440 8 465 31 q 379 -14 415 -14 z "},"@":{"ha":833,"x_min":21,"x_max":813,"o":"m 450 -124 q 215 -58 311 -124 q 70 127 119 7 q 21 408 21 247 q 69 710 21 579 q 212 917 118 842 q 443 992 306 992 q 638 932 556 992 q 767 761 721 872 q 813 496 813 650 q 803 371 813 432 q 776 260 794 310 q 726 180 757 210 q 649 150 694 150 q 575 188 601 150 q 542 272 549 225 l 539 272 q 481 185 519 221 q 383 150 442 150 q 253 222 299 150 q 207 411 207 294 q 236 573 207 503 q 319 683 265 643 q 446 722 372 722 q 544 712 496 722 q 619 690 593 701 l 604 408 q 603 383 603 397 q 603 357 603 368 q 618 261 603 285 q 651 238 633 238 q 692 273 676 238 q 713 367 707 308 q 719 497 719 426 q 642 795 719 690 q 442 900 565 900 q 263 839 336 900 q 153 669 190 778 q 117 413 117 560 q 201 88 117 207 q 454 -31 286 -31 q 582 -15 524 -31 q 689 22 640 0 l 689 -68 q 582 -108 639 -93 q 450 -124 525 -124 m 401 238 q 474 297 453 238 q 500 449 494 356 l 510 621 q 478 631 496 626 q 440 635 460 635 q 367 601 394 635 q 328 517 340 568 q 315 408 315 465 q 339 278 315 318 q 401 238 363 238 z "},"A":{"ha":833,"x_min":28,"x_max":806,"o":"m 28 0 l 350 996 l 482 996 l 806 0 l 678 0 l 583 304 l 249 304 l 154 0 l 28 0 m 375 711 l 283 415 l 549 415 l 457 711 q 438 778 450 735 q 415 864 425 821 q 394 778 407 821 q 375 711 382 735 z "},"B":{"ha":833,"x_min":132,"x_max":757,"o":"m 132 0 l 132 992 l 399 992 q 640 937 551 992 q 729 749 729 882 q 682 596 729 651 q 551 526 635 540 l 551 519 q 655 485 608 510 q 729 413 701 460 q 757 288 757 365 q 672 76 757 153 q 440 0 588 0 l 132 0 m 410 572 q 558 612 514 572 q 603 732 603 651 q 555 849 603 814 q 389 883 507 883 l 250 883 l 250 572 l 410 572 m 418 108 q 583 158 538 108 q 629 288 629 208 q 581 416 629 368 q 410 464 533 464 l 250 464 l 250 108 l 418 108 z "},"C":{"ha":833,"x_min":92,"x_max":764,"o":"m 507 -14 q 269 51 361 -14 q 135 231 178 117 q 92 496 92 346 q 141 767 92 653 q 284 944 190 882 q 513 1006 378 1006 q 648 990 585 1006 q 764 947 711 975 l 717 846 q 619 882 674 869 q 513 894 564 894 q 295 792 371 894 q 219 496 219 689 q 288 206 219 311 q 510 101 356 101 q 612 112 557 101 q 721 144 667 122 l 721 26 q 615 -4 665 6 q 507 -14 564 -14 z "},"D":{"ha":833,"x_min":97,"x_max":771,"o":"m 97 0 l 97 992 l 338 992 q 567 936 469 992 q 717 773 664 881 q 771 506 771 665 q 649 127 771 254 q 310 0 528 0 l 97 0 m 297 108 q 559 208 475 108 q 643 501 643 308 q 558 791 643 699 q 324 883 472 883 l 222 883 l 222 108 l 297 108 z "},"E":{"ha":833,"x_min":132,"x_max":715,"o":"m 132 0 l 132 992 l 715 992 l 715 881 l 257 881 l 257 574 l 689 574 l 689 463 l 257 463 l 257 111 l 715 111 l 715 0 l 132 0 z "},"F":{"ha":833,"x_min":132,"x_max":715,"o":"m 132 0 l 132 992 l 715 992 l 715 881 l 257 881 l 257 531 l 689 531 l 689 419 l 257 419 l 257 0 l 132 0 z "},"G":{"ha":833,"x_min":63,"x_max":736,"o":"m 472 -14 q 166 113 269 -14 q 63 481 63 239 q 171 867 63 729 q 489 1006 279 1006 q 617 990 560 1006 q 725 947 674 975 l 681 843 q 599 879 646 865 q 492 893 551 893 q 265 787 340 893 q 190 486 190 681 q 217 287 190 375 q 308 148 244 199 q 478 97 371 97 q 556 104 522 97 q 615 118 589 111 l 615 413 l 435 413 l 435 524 l 736 524 l 736 38 q 617 1 685 17 q 472 -14 550 -14 z "},"H":{"ha":833,"x_min":97,"x_max":736,"o":"m 97 0 l 97 992 l 222 992 l 222 574 l 611 574 l 611 992 l 736 992 l 736 0 l 611 0 l 611 463 l 222 463 l 222 0 l 97 0 z "},"I":{"ha":833,"x_min":153,"x_max":681,"o":"m 153 0 l 153 86 l 353 104 l 353 888 l 153 906 l 153 992 l 681 992 l 681 906 l 478 888 l 478 104 l 681 86 l 681 0 l 153 0 z "},"J":{"ha":833,"x_min":139,"x_max":646,"o":"m 350 -14 q 238 -3 297 -14 q 139 26 178 8 l 139 144 q 228 116 171 131 q 340 101 285 101 q 472 151 422 101 q 521 318 521 200 l 521 992 l 646 992 l 646 301 q 571 68 646 150 q 350 -14 496 -14 z "},"K":{"ha":833,"x_min":97,"x_max":764,"o":"m 97 0 l 97 992 l 222 992 l 222 458 q 271 535 246 496 q 325 613 296 574 l 608 992 l 751 992 l 419 543 l 764 0 l 621 0 l 335 458 l 222 329 l 222 0 l 97 0 z "},"L":{"ha":833,"x_min":160,"x_max":715,"o":"m 160 0 l 160 992 l 285 992 l 285 115 l 715 115 l 715 0 l 160 0 z "},"M":{"ha":833,"x_min":69,"x_max":764,"o":"m 69 0 l 69 992 l 249 992 l 414 410 l 418 410 l 583 992 l 764 992 l 764 0 l 646 0 l 646 538 q 649 706 646 619 q 663 867 653 793 l 657 867 l 474 247 l 358 247 l 174 868 l 168 868 q 179 770 175 828 q 185 651 183 713 q 188 538 188 590 l 188 0 l 69 0 z "},"N":{"ha":833,"x_min":97,"x_max":736,"o":"m 97 0 l 97 992 l 263 992 l 624 165 l 628 165 q 618 315 621 247 q 615 467 615 382 l 615 992 l 736 992 l 736 0 l 585 0 l 206 864 l 200 864 q 213 708 207 786 q 218 553 218 631 l 218 0 l 97 0 z "},"O":{"ha":833,"x_min":63,"x_max":771,"o":"m 415 -14 q 214 50 292 -14 q 99 229 136 114 q 63 496 63 344 q 99 764 63 649 q 215 944 136 879 q 417 1008 293 1008 q 619 944 540 1008 q 734 766 697 881 q 771 499 771 651 q 733 229 771 344 q 617 50 696 114 q 415 -14 539 -14 m 418 97 q 593 203 543 97 q 643 497 643 310 q 593 792 643 686 q 419 897 543 897 q 242 790 293 897 q 190 497 190 683 q 242 203 190 310 q 418 97 293 97 z "},"P":{"ha":833,"x_min":132,"x_max":757,"o":"m 132 0 l 132 992 l 415 992 q 675 916 593 992 q 757 701 757 840 q 723 546 757 619 q 610 427 689 472 q 397 382 532 382 l 257 382 l 257 0 l 132 0 m 383 490 q 568 538 507 490 q 629 694 629 585 q 574 840 629 797 q 404 883 519 883 l 257 883 l 257 490 l 383 490 z "},"Q":{"ha":833,"x_min":63,"x_max":771,"o":"m 415 -14 q 214 50 292 -14 q 99 229 136 114 q 63 496 63 344 q 99 764 63 649 q 215 944 136 879 q 417 1008 293 1008 q 619 944 540 1008 q 734 766 697 881 q 771 499 771 651 q 729 217 771 336 q 600 38 688 97 l 751 -250 l 613 -250 l 490 -7 q 415 -14 456 -14 m 418 97 q 593 203 543 97 q 643 497 643 310 q 593 792 643 686 q 419 897 543 897 q 242 790 293 897 q 190 497 190 683 q 242 203 190 310 q 418 97 293 97 z "},"R":{"ha":833,"x_min":132,"x_max":790,"o":"m 132 0 l 132 992 l 364 992 q 713 714 713 992 q 688 583 713 636 q 620 495 663 529 q 525 442 578 461 l 790 0 l 651 0 l 413 406 l 257 406 l 257 0 l 132 0 m 360 514 q 533 562 482 514 q 583 703 583 610 q 530 842 583 801 q 357 883 476 883 l 257 883 l 257 514 l 360 514 z "},"S":{"ha":833,"x_min":118,"x_max":735,"o":"m 390 -14 q 237 1 311 -14 q 118 38 163 15 l 118 153 q 243 112 169 131 q 393 93 317 93 q 607 267 607 93 q 588 342 607 314 q 519 395 568 369 q 381 460 469 421 q 267 518 322 486 q 176 603 211 550 q 140 742 140 656 q 225 938 140 869 q 457 1006 310 1006 q 599 990 532 1006 q 715 950 665 974 l 675 846 q 569 881 628 868 q 454 894 511 894 q 321 860 374 894 q 268 739 268 825 q 288 660 268 690 q 353 606 308 629 q 467 553 397 583 q 606 485 546 519 q 701 401 667 451 q 735 265 735 351 q 648 60 735 133 q 390 -14 561 -14 z "},"T":{"ha":833,"x_min":63,"x_max":771,"o":"m 354 0 l 354 881 l 63 881 l 63 992 l 771 992 l 771 881 l 479 881 l 479 0 l 354 0 z "},"U":{"ha":833,"x_min":97,"x_max":736,"o":"m 414 -14 q 230 31 300 -14 q 128 159 160 76 q 97 353 97 242 l 97 992 l 222 992 l 222 360 q 240 222 222 282 q 299 130 257 163 q 417 97 342 97 q 538 132 496 97 q 596 227 581 167 q 611 361 611 288 l 611 992 l 736 992 l 736 350 q 706 165 736 247 q 604 34 675 82 q 414 -14 533 -14 z "},"V":{"ha":833,"x_min":35,"x_max":799,"o":"m 354 0 l 35 992 l 165 992 l 358 347 q 392 228 378 286 q 418 121 407 171 l 422 121 q 448 228 433 169 q 481 351 463 288 l 667 992 l 799 992 l 485 0 l 354 0 z "},"W":{"ha":833,"x_min":35,"x_max":799,"o":"m 146 0 l 35 992 l 150 992 q 172 773 161 882 q 192 554 182 664 q 202 439 197 501 q 211 317 207 376 q 218 209 215 257 q 221 136 221 161 l 224 136 q 240 219 229 168 q 262 324 250 269 q 283 422 274 379 l 358 744 l 478 744 l 556 419 q 580 318 568 372 q 602 216 592 264 q 617 136 613 168 l 619 136 q 624 235 621 169 q 633 385 628 300 q 646 558 639 469 q 665 775 656 667 q 683 992 674 883 l 799 992 l 699 0 l 564 0 l 454 456 q 431 563 440 518 q 419 625 422 608 l 417 625 q 408 564 415 608 q 385 456 400 519 l 279 0 l 146 0 z "},"X":{"ha":833,"x_min":49,"x_max":785,"o":"m 49 0 l 358 513 l 69 992 l 204 992 l 417 613 l 632 992 l 764 992 l 476 511 l 785 0 l 656 0 l 418 411 l 182 0 l 49 0 z "},"Y":{"ha":833,"x_min":49,"x_max":785,"o":"m 357 0 l 357 386 l 49 992 l 186 992 l 418 490 l 651 992 l 785 992 l 476 386 l 476 0 l 357 0 z "},"Z":{"ha":833,"x_min":132,"x_max":701,"o":"m 132 0 l 132 99 l 572 883 l 160 883 l 160 992 l 701 992 l 701 893 l 267 111 l 701 111 l 701 0 l 132 0 z "},"[":{"ha":833,"x_min":333,"x_max":646,"o":"m 333 -219 l 333 992 l 646 992 l 646 892 l 453 892 l 453 -119 l 646 -119 l 646 -219 l 333 -219 z "},"\\":{"ha":833,"x_min":167,"x_max":667,"o":"m 667 0 l 547 0 l 167 992 l 286 992 l 667 0 z "},"]":{"ha":833,"x_min":188,"x_max":500,"o":"m 500 992 l 500 -219 l 188 -219 l 188 -119 l 381 -119 l 381 892 l 188 892 l 188 992 l 500 992 z "},"^":{"ha":833,"x_min":69,"x_max":764,"o":"m 69 371 l 367 999 l 436 999 l 764 371 l 656 371 l 403 869 l 178 371 l 69 371 z "},"_":{"ha":833,"x_min":0,"x_max":833,"o":"m 0 -214 l 0 -103 l 833 -103 l 833 -214 l 0 -214 z "},"`":{"ha":833,"x_min":263,"x_max":542,"o":"m 460 842 q 388 906 428 867 q 313 985 347 946 q 263 1050 279 1025 l 263 1064 l 408 1064 q 447 995 424 1033 q 495 921 469 957 q 542 858 521 885 l 542 842 l 460 842 z "},"a":{"ha":833,"x_min":97,"x_max":708,"o":"m 342 -14 q 165 40 232 -14 q 97 204 97 94 q 184 385 97 325 q 435 449 271 444 l 594 453 l 594 483 q 544 620 594 583 q 410 657 494 657 q 296 642 350 657 q 193 599 242 626 l 150 693 q 267 739 203 719 q 417 758 332 758 q 633 695 557 758 q 708 499 708 632 l 708 0 l 608 0 l 594 103 l 589 103 q 483 15 543 44 q 342 -14 424 -14 m 363 88 q 478 110 425 88 q 563 180 531 133 q 594 297 594 226 l 594 364 l 461 360 q 272 317 328 356 q 215 208 215 278 q 256 116 215 144 q 363 88 296 88 z "},"b":{"ha":833,"x_min":111,"x_max":757,"o":"m 457 -14 q 319 19 375 -14 q 231 94 263 51 l 222 94 l 211 0 l 111 0 l 111 1056 l 232 1056 l 232 800 q 231 724 232 761 q 226 647 231 686 l 232 647 q 317 725 261 692 q 457 758 372 758 q 674 661 592 758 q 757 374 757 564 q 674 84 757 182 q 457 -14 590 -14 m 433 88 q 582 161 535 88 q 629 374 629 235 q 582 583 629 510 q 432 657 535 657 q 284 584 336 657 q 232 376 232 511 q 281 162 232 236 q 433 88 331 88 z "},"c":{"ha":833,"x_min":118,"x_max":701,"o":"m 469 -14 q 212 76 306 -14 q 118 367 118 165 q 165 596 118 510 q 294 720 211 682 q 482 758 376 758 q 601 745 547 758 q 701 707 654 732 l 664 606 q 578 640 619 629 q 488 650 536 650 q 303 580 360 650 q 246 369 246 510 q 306 157 246 221 q 483 93 365 93 q 599 106 544 93 q 693 138 653 119 l 693 28 q 590 -3 651 8 q 469 -14 529 -14 z "},"d":{"ha":833,"x_min":76,"x_max":722,"o":"m 381 -14 q 160 83 243 -14 q 76 376 76 179 q 156 660 76 563 q 394 758 235 758 q 522 728 472 758 q 599 650 572 697 l 607 650 q 601 701 604 669 q 599 760 599 733 l 599 1056 l 722 1056 l 722 0 l 619 0 l 606 100 l 600 100 q 517 18 569 50 q 381 -14 465 -14 m 404 88 q 551 156 503 88 q 599 343 599 225 l 599 371 q 581 517 599 453 q 521 619 563 582 q 408 657 479 657 q 258 585 311 657 q 204 364 204 513 q 404 88 204 88 z "},"e":{"ha":833,"x_min":83,"x_max":750,"o":"m 468 -14 q 186 85 289 -14 q 83 369 83 185 q 128 578 83 492 q 251 712 172 665 q 436 758 331 758 q 666 664 582 758 q 750 406 750 569 l 750 349 l 210 349 q 247 194 213 251 q 340 113 281 138 q 476 89 399 89 q 597 106 538 89 q 717 150 657 122 l 717 39 q 589 -1 653 11 q 468 -14 525 -14 m 625 449 q 573 601 621 546 q 436 657 525 657 q 285 601 343 657 q 213 449 228 544 l 625 449 z "},"f":{"ha":833,"x_min":92,"x_max":792,"o":"m 335 0 l 335 640 l 92 640 l 92 726 l 335 744 l 335 829 q 369 969 335 918 q 464 1041 403 1019 q 606 1063 525 1063 q 713 1054 667 1063 q 792 1035 758 1046 l 764 939 q 694 953 736 947 q 613 960 653 960 q 500 929 540 960 q 460 813 460 899 l 460 744 l 740 744 l 740 640 l 460 640 l 460 0 l 335 0 z "},"g":{"ha":833,"x_min":76,"x_max":722,"o":"m 383 -340 q 240 -326 307 -340 q 115 -287 172 -311 l 115 -176 q 244 -224 171 -208 q 379 -240 317 -240 q 556 -181 506 -240 q 606 -19 606 -122 l 606 7 q 606 39 606 24 q 610 86 607 54 l 604 86 q 513 8 565 29 q 388 -14 461 -14 q 158 87 240 -14 q 76 368 76 188 q 158 654 76 550 q 381 758 239 758 q 507 734 456 758 q 599 653 558 710 l 606 653 l 622 744 l 722 744 l 722 -19 q 640 -260 722 -179 q 383 -340 558 -340 m 411 88 q 557 148 504 88 q 610 342 610 208 l 610 371 q 556 590 610 524 q 407 657 501 657 q 253 583 301 657 q 204 372 204 508 q 255 160 204 233 q 411 88 306 88 z "},"h":{"ha":833,"x_min":111,"x_max":729,"o":"m 111 0 l 111 1056 l 236 1056 l 236 756 q 234 689 236 729 q 231 625 232 649 l 238 625 q 334 726 274 694 q 471 758 394 758 q 658 694 586 758 q 729 486 729 629 l 729 0 l 604 0 l 604 461 q 561 610 604 563 q 439 657 518 657 q 291 585 346 657 q 236 386 236 514 l 236 0 l 111 0 z "},"i":{"ha":833,"x_min":111,"x_max":750,"o":"m 426 879 q 365 901 390 879 q 339 967 339 924 q 365 1034 339 1013 q 426 1056 390 1056 q 488 1034 463 1056 q 514 967 514 1013 q 488 901 514 924 q 426 879 463 879 m 111 0 l 111 83 l 376 104 l 376 640 l 133 658 l 133 744 l 501 744 l 501 104 l 750 83 l 750 0 l 111 0 z "},"j":{"ha":833,"x_min":83,"x_max":563,"o":"m 475 879 q 414 901 439 879 q 389 968 389 924 q 413 1034 389 1013 q 475 1056 438 1056 q 537 1034 511 1056 q 563 968 563 1013 q 536 901 563 922 q 475 879 510 879 m 267 -340 q 172 -333 224 -340 q 83 -317 119 -326 l 83 -207 q 165 -228 119 -219 q 253 -236 211 -236 q 386 -190 346 -236 q 426 -51 426 -144 l 426 640 l 183 658 l 183 744 l 551 744 l 551 -72 q 477 -271 551 -201 q 267 -340 403 -340 z "},"k":{"ha":833,"x_min":146,"x_max":792,"o":"m 146 0 l 146 1056 l 271 1056 l 271 547 q 267 445 271 504 q 261 338 264 386 l 264 338 q 315 401 290 372 q 365 460 339 429 l 622 744 l 772 744 l 476 424 l 792 0 l 647 0 l 393 350 l 271 232 l 271 0 l 146 0 z "},"l":{"ha":833,"x_min":111,"x_max":750,"o":"m 111 0 l 111 83 l 383 104 l 383 951 l 119 969 l 119 1056 l 508 1056 l 508 104 l 750 83 l 750 0 l 111 0 z "},"m":{"ha":833,"x_min":69,"x_max":765,"o":"m 69 0 l 69 744 l 156 744 l 174 663 l 181 663 q 242 738 208 718 q 318 758 275 758 q 406 731 375 758 q 454 651 438 704 l 458 651 q 517 731 482 703 q 611 758 553 758 q 731 692 697 758 q 765 486 765 626 l 765 0 l 654 0 l 654 465 q 642 601 654 553 q 579 650 631 650 q 474 372 474 650 l 474 0 l 363 0 l 363 465 q 347 602 363 554 q 279 650 331 650 q 202 575 224 650 q 181 372 181 500 l 181 0 l 69 0 z "},"n":{"ha":833,"x_min":111,"x_max":729,"o":"m 111 0 l 111 744 l 211 744 l 229 635 l 236 635 q 331 728 268 699 q 479 758 394 758 q 660 695 592 758 q 729 497 729 632 l 729 0 l 604 0 l 604 475 q 566 613 604 569 q 443 657 528 657 q 283 585 329 657 q 236 382 236 513 l 236 0 l 111 0 z "},"o":{"ha":833,"x_min":76,"x_max":757,"o":"m 418 -14 q 244 28 321 -14 q 122 158 167 71 q 76 375 76 244 q 120 589 76 504 q 240 716 164 674 q 414 758 317 758 q 589 716 511 758 q 712 588 667 674 q 757 371 757 503 q 713 156 757 242 q 592 28 668 71 q 418 -14 515 -14 m 417 88 q 578 165 525 88 q 631 374 631 242 q 577 581 631 506 q 415 657 524 657 q 253 581 307 657 q 200 374 200 506 q 254 165 200 242 q 417 88 308 88 z "},"p":{"ha":833,"x_min":111,"x_max":757,"o":"m 111 -333 l 111 744 l 214 744 l 229 643 l 235 643 q 320 728 267 697 q 457 758 374 758 q 675 661 593 758 q 757 374 757 564 q 675 85 757 183 q 457 -14 593 -14 q 321 19 375 -14 q 235 96 267 53 l 226 96 q 235 -15 235 42 l 235 -333 l 111 -333 m 431 88 q 582 159 535 88 q 629 376 629 231 q 583 588 629 519 q 429 657 536 657 q 281 591 328 657 q 235 401 235 525 l 235 374 q 277 165 235 242 q 431 88 319 88 z "},"q":{"ha":833,"x_min":76,"x_max":722,"o":"m 599 -15 q 600 42 599 13 q 603 100 601 71 l 599 100 q 516 19 568 53 q 381 -14 464 -14 q 161 84 246 -14 q 76 371 76 182 q 116 585 76 499 q 224 715 156 671 q 382 758 293 758 q 516 725 464 758 q 599 644 568 692 l 604 644 l 622 744 l 722 744 l 722 -333 l 599 -333 l 599 -15 m 403 88 q 599 343 599 88 l 599 371 q 555 581 599 506 q 400 657 511 657 q 251 583 299 657 q 204 369 204 510 q 252 165 204 242 q 403 88 300 88 z "},"r":{"ha":833,"x_min":86,"x_max":794,"o":"m 86 0 l 86 83 l 313 104 l 313 640 l 108 658 l 108 744 l 413 744 l 429 608 l 435 608 q 520 720 474 682 q 643 758 567 758 q 727 750 690 758 q 794 728 764 742 l 761 618 q 708 640 739 631 q 643 649 678 649 q 538 611 583 649 q 465 511 492 574 q 439 374 439 449 l 439 104 l 656 83 l 656 0 l 86 0 z "},"s":{"ha":833,"x_min":146,"x_max":688,"o":"m 388 -14 q 255 -1 318 -14 q 146 33 192 11 l 146 149 q 253 108 194 126 q 394 89 313 89 q 524 117 486 89 q 563 200 563 146 q 549 248 563 229 q 499 286 536 267 q 389 336 461 306 q 265 396 317 368 q 186 462 214 424 q 158 560 158 500 q 234 708 158 658 q 444 758 310 758 q 561 747 506 758 q 676 711 617 736 l 639 614 q 537 646 583 638 q 444 654 490 654 q 319 632 358 654 q 279 563 279 610 q 297 511 279 532 q 353 471 314 490 q 458 424 393 451 q 583 367 532 393 q 661 303 635 340 q 688 203 688 267 q 612 42 688 97 q 388 -14 536 -14 z "},"t":{"ha":833,"x_min":78,"x_max":717,"o":"m 558 -14 q 417 7 479 -14 q 317 81 354 28 q 281 226 281 133 l 281 640 l 78 640 l 78 726 l 281 749 l 306 943 l 406 943 l 406 744 l 696 744 l 696 640 l 406 640 l 406 250 q 443 126 406 165 q 567 88 481 88 q 644 94 603 88 q 717 108 686 101 l 717 8 q 643 -7 683 0 q 558 -14 603 -14 z "},"u":{"ha":833,"x_min":104,"x_max":722,"o":"m 363 -14 q 167 52 231 -14 q 104 249 104 118 l 104 744 l 229 744 l 229 268 q 266 133 229 179 q 393 88 303 88 q 553 160 508 88 q 597 361 597 232 l 597 744 l 722 744 l 722 0 l 622 0 l 604 100 l 597 100 q 499 12 558 38 q 363 -14 440 -14 z "},"v":{"ha":833,"x_min":63,"x_max":769,"o":"m 338 0 l 63 744 l 190 744 l 346 303 q 378 210 361 258 q 414 106 396 161 l 418 106 q 455 210 436 161 q 488 303 474 260 l 639 744 l 769 744 l 492 0 l 338 0 z "},"w":{"ha":833,"x_min":22,"x_max":813,"o":"m 142 0 l 22 744 l 139 744 l 193 376 q 205 285 201 325 q 212 203 208 244 q 218 104 215 161 l 222 104 q 234 170 226 128 q 252 262 242 213 q 275 353 263 311 l 347 604 l 485 604 l 554 353 q 578 263 567 311 q 598 173 589 215 q 610 104 607 131 l 614 104 q 621 201 618 160 q 628 282 624 242 q 640 376 632 322 l 699 744 l 813 744 l 690 0 l 540 0 l 474 261 q 444 375 460 318 q 418 488 429 432 l 414 488 q 387 375 403 432 q 356 261 371 318 l 288 0 l 142 0 z "},"x":{"ha":833,"x_min":63,"x_max":769,"o":"m 63 0 l 344 381 l 76 744 l 217 744 l 417 465 l 617 744 l 757 744 l 488 381 l 769 0 l 629 0 l 417 296 l 203 0 l 63 0 z "},"y":{"ha":833,"x_min":63,"x_max":769,"o":"m 189 -340 q 135 -337 161 -340 q 89 -329 108 -333 l 89 -233 q 128 -239 106 -236 q 174 -242 151 -242 q 272 -210 238 -242 q 335 -108 307 -179 l 375 -7 l 63 744 l 185 744 l 363 307 q 398 211 381 264 q 429 110 415 158 l 433 110 q 465 213 449 161 q 496 308 482 265 l 642 744 l 769 744 l 457 -97 q 399 -224 431 -169 q 319 -310 368 -279 q 189 -340 269 -340 z "},"z":{"ha":833,"x_min":125,"x_max":708,"o":"m 125 0 l 125 85 l 563 649 l 147 649 l 147 744 l 697 744 l 697 646 l 274 106 l 708 106 l 708 0 l 125 0 z "},"{":{"ha":833,"x_min":194,"x_max":639,"o":"m 639 -219 q 438 -164 511 -218 q 364 1 364 -110 l 364 206 q 320 306 364 276 q 194 336 276 336 l 194 438 q 320 468 276 439 q 364 567 364 497 l 364 772 q 440 938 364 883 q 639 992 517 992 l 639 892 q 526 860 567 890 q 485 761 485 829 l 485 561 q 333 392 485 418 l 333 383 q 485 214 485 357 l 485 10 q 525 -88 485 -58 q 639 -119 565 -118 l 639 -219 z "},"|":{"ha":833,"x_min":367,"x_max":468,"o":"m 367 -333 l 367 1056 l 468 1056 l 468 -333 l 367 -333 z "},"}":{"ha":833,"x_min":194,"x_max":639,"o":"m 194 992 q 396 936 322 990 q 469 771 469 882 l 469 567 q 513 466 469 496 q 639 436 557 436 l 639 335 q 513 304 557 333 q 469 206 469 275 l 469 0 q 393 -165 469 -110 q 194 -219 317 -219 l 194 -119 q 308 -87 267 -117 q 349 11 349 -57 l 349 211 q 500 381 349 354 l 500 389 q 349 558 349 415 l 349 763 q 308 860 349 831 q 194 892 268 890 l 194 992 z "},"~":{"ha":833,"x_min":103,"x_max":728,"o":"m 103 399 q 115 481 107 439 q 142 560 124 524 q 191 619 160 597 q 272 642 222 642 q 359 618 321 642 q 446 550 397 594 q 503 502 475 524 q 560 481 531 481 q 617 523 599 481 q 644 642 635 565 l 728 642 q 715 564 724 606 q 688 485 706 522 q 638 423 669 447 q 558 399 607 399 q 470 424 510 399 q 392 486 431 449 q 332 539 360 518 q 272 560 304 560 q 212 520 232 560 q 185 399 192 481 l 103 399 z "}," ":{"ha":833,"x_min":0,"x_max":0,"o":""},"¡":{"ha":833,"x_min":331,"x_max":503,"o":"m 469 454 l 492 -257 l 340 -257 l 363 454 l 469 454 m 417 749 q 478 726 453 749 q 503 654 503 704 q 478 581 503 603 q 417 560 453 560 q 356 581 382 560 q 331 654 331 603 q 356 726 331 704 q 417 749 382 749 z "},"¢":{"ha":833,"x_min":125,"x_max":708,"o":"m 410 125 q 260 179 324 138 q 160 300 196 221 q 125 503 125 379 q 203 778 125 685 q 410 889 282 871 l 410 1006 l 504 1006 l 504 894 q 617 881 561 893 q 708 854 674 869 l 672 753 q 588 778 636 767 q 486 789 539 789 q 308 719 365 789 q 250 504 250 649 q 308 294 250 360 q 481 228 367 228 q 599 240 546 228 q 696 269 653 251 l 696 163 q 503 121 621 125 l 503 -14 l 410 -14 l 410 125 z "},"£":{"ha":833,"x_min":125,"x_max":729,"o":"m 125 103 q 218 163 182 118 q 254 299 254 207 l 254 444 l 129 444 l 129 536 l 254 536 l 254 742 q 324 935 254 865 q 510 1004 394 1004 q 622 990 574 1004 q 717 947 671 975 l 674 853 q 597 889 635 878 q 521 900 560 900 q 413 860 449 900 q 376 729 376 821 l 376 536 l 622 536 l 622 444 l 376 444 l 376 300 q 364 224 376 263 q 332 156 351 186 q 290 111 313 126 l 729 111 l 729 0 l 125 0 l 125 103 z "},"¤":{"ha":833,"x_min":97,"x_max":736,"o":"m 574 272 q 501 237 540 250 q 418 224 463 224 q 333 238 374 224 q 260 274 292 251 l 167 183 l 99 250 l 190 343 q 154 417 168 376 q 140 500 140 457 q 154 583 140 543 q 190 656 168 624 l 97 751 l 167 818 l 260 728 q 333 765 292 751 q 418 778 374 778 q 501 765 463 778 q 574 728 539 751 l 668 818 l 736 751 l 646 657 q 681 584 667 625 q 696 499 696 543 q 683 415 696 456 q 646 342 669 375 l 735 249 l 668 182 l 574 272 m 418 318 q 549 366 496 318 q 601 500 601 414 q 549 637 601 588 q 418 686 496 686 q 288 637 342 686 q 235 500 235 588 q 288 366 235 414 q 418 318 342 318 z "},"¥":{"ha":833,"x_min":49,"x_max":785,"o":"m 356 0 l 356 179 l 156 179 l 156 268 l 356 268 l 356 382 l 156 382 l 156 471 l 315 471 l 49 992 l 178 992 l 415 507 l 657 992 l 785 992 l 513 471 l 678 471 l 678 382 l 475 382 l 475 268 l 678 268 l 678 179 l 475 179 l 475 0 l 356 0 z "},"¦":{"ha":833,"x_min":365,"x_max":467,"o":"m 365 526 l 365 1056 l 467 1056 l 467 526 l 365 526 m 365 -335 l 365 194 l 467 194 l 467 -335 l 365 -335 z "},"§":{"ha":833,"x_min":151,"x_max":681,"o":"m 383 -14 q 250 -2 307 -14 q 151 32 193 10 l 151 135 q 259 94 194 114 q 388 75 324 75 q 526 106 486 75 q 565 176 565 138 q 553 226 565 204 q 502 272 540 249 q 389 324 464 294 q 267 380 318 351 q 190 449 217 408 q 163 549 163 489 q 197 659 163 617 q 275 722 232 701 q 195 790 224 749 q 167 886 167 831 q 235 1015 167 968 q 435 1063 304 1063 q 566 1049 513 1063 q 668 1017 619 1036 l 632 929 q 542 961 588 950 q 431 972 497 972 q 315 949 349 972 q 281 889 281 926 q 317 821 281 850 q 457 751 353 792 q 622 663 563 713 q 681 532 681 614 q 648 417 681 463 q 574 349 615 372 q 651 282 624 322 q 679 185 679 242 q 601 38 679 90 q 383 -14 524 -14 m 488 389 q 550 438 521 408 q 579 514 579 468 q 560 576 579 549 q 495 629 542 604 q 364 681 449 654 q 293 639 325 671 q 261 563 261 607 q 305 476 261 511 q 458 400 349 442 l 488 389 z "},"¨":{"ha":833,"x_min":183,"x_max":653,"o":"m 576 864 q 524 884 546 864 q 501 946 501 904 q 524 1007 501 989 q 576 1025 546 1025 q 630 1007 607 1025 q 653 946 653 989 q 630 884 653 904 q 576 864 607 864 m 258 864 q 206 884 228 864 q 183 946 183 904 q 206 1007 183 989 q 258 1025 228 1025 q 312 1007 289 1025 q 335 946 335 989 q 312 884 335 904 q 258 864 289 864 z "},"©":{"ha":833,"x_min":61,"x_max":772,"o":"m 417 144 q 226 190 306 144 q 103 315 146 235 q 61 499 61 394 q 106 685 61 606 q 231 810 150 765 q 419 856 311 856 q 608 810 529 856 q 729 685 686 765 q 772 501 772 606 q 728 314 772 394 q 603 189 683 233 q 417 144 524 144 m 417 210 q 622 286 543 210 q 700 497 700 363 q 622 709 700 631 q 415 788 543 788 q 211 711 289 788 q 133 501 133 635 q 169 348 133 414 q 268 246 204 282 q 417 210 332 210 m 433 278 q 283 338 332 278 q 235 494 235 399 q 286 658 235 594 q 432 721 338 721 q 496 713 464 721 q 554 692 528 706 l 525 626 q 478 644 501 639 q 435 650 456 650 q 347 611 378 650 q 315 494 315 572 q 344 385 315 424 q 432 346 372 346 q 483 351 456 346 q 536 367 511 357 l 536 299 q 489 283 514 289 q 433 278 464 278 z "},"ª":{"ha":833,"x_min":211,"x_max":594,"o":"m 354 532 q 250 566 289 532 q 211 665 211 600 q 264 775 211 739 q 431 815 317 811 l 508 818 l 508 849 q 480 913 508 894 q 408 931 451 931 q 337 920 372 931 q 269 894 301 910 l 239 963 q 319 992 275 981 q 415 1003 364 1003 q 549 965 503 1003 q 594 846 594 928 l 594 540 l 529 540 l 513 599 q 446 551 485 569 q 354 532 407 532 m 382 603 q 477 635 446 603 q 508 724 508 668 l 508 756 l 442 753 q 329 728 358 750 q 300 669 300 707 q 322 617 300 632 q 382 603 343 603 z "},"«":{"ha":833,"x_min":124,"x_max":710,"o":"m 629 72 l 393 357 l 393 375 l 629 661 l 710 603 l 521 367 l 710 129 l 629 72 m 357 74 l 124 357 l 124 375 l 357 661 l 439 600 l 250 367 l 438 129 l 357 74 z "},"¬":{"ha":833,"x_min":104,"x_max":715,"o":"m 617 178 l 617 440 l 104 440 l 104 539 l 715 539 l 715 178 l 617 178 z "},"­":{"ha":833,"x_min":208,"x_max":625,"o":"m 208 319 l 208 431 l 625 431 l 625 319 l 208 319 z "},"®":{"ha":833,"x_min":61,"x_max":772,"o":"m 417 144 q 226 190 306 144 q 103 315 146 235 q 61 499 61 394 q 106 685 61 606 q 231 810 150 765 q 419 856 311 856 q 608 810 529 856 q 729 685 686 765 q 772 501 772 606 q 728 314 772 394 q 603 189 683 233 q 417 144 524 144 m 417 210 q 622 286 543 210 q 700 497 700 363 q 622 709 700 631 q 415 788 543 788 q 211 711 289 788 q 133 501 133 635 q 169 348 133 414 q 268 246 204 282 q 417 210 332 210 m 292 288 l 292 717 l 413 717 q 529 683 492 717 q 567 590 567 649 q 542 510 567 539 q 490 469 518 481 l 603 288 l 518 288 l 422 451 l 363 451 l 363 288 l 292 288 m 411 513 q 472 531 449 513 q 494 585 494 549 q 410 653 494 653 l 363 653 l 363 513 l 411 513 z "},"¯":{"ha":833,"x_min":211,"x_max":624,"o":"m 211 858 l 211 957 l 624 957 l 624 858 l 211 858 z "},"°":{"ha":833,"x_min":207,"x_max":626,"o":"m 418 585 q 265 645 324 585 q 207 794 207 706 q 235 902 207 854 q 310 978 263 950 q 418 1006 358 1006 q 524 978 476 1006 q 599 902 571 950 q 626 794 626 854 q 600 688 626 735 q 526 613 574 640 q 418 585 479 585 m 419 667 q 508 701 472 667 q 543 794 543 735 q 508 888 543 854 q 419 922 472 922 q 328 889 364 922 q 292 794 292 856 q 330 701 292 736 q 419 667 368 667 z "},"±":{"ha":833,"x_min":106,"x_max":722,"o":"m 364 172 l 364 444 l 106 444 l 106 543 l 364 543 l 364 817 l 464 817 l 464 543 l 722 543 l 722 444 l 464 444 l 464 172 l 364 172 m 111 0 l 111 99 l 722 99 l 722 0 l 111 0 z "},"²":{"ha":833,"x_min":215,"x_max":632,"o":"m 215 578 l 215 653 l 375 808 q 464 898 433 864 q 506 958 494 932 q 517 1015 517 985 q 489 1082 517 1060 q 417 1104 461 1104 q 341 1088 375 1104 q 271 1044 307 1072 l 222 1108 q 310 1164 263 1143 q 418 1185 358 1185 q 560 1141 508 1185 q 611 1021 611 1097 q 593 938 611 975 q 539 861 575 900 q 449 771 503 822 l 336 664 l 632 664 l 632 578 l 215 578 z "},"³":{"ha":833,"x_min":215,"x_max":618,"o":"m 386 567 q 299 576 340 567 q 215 606 257 585 l 215 693 q 306 658 263 671 q 392 646 350 646 q 488 674 457 646 q 518 749 518 703 q 481 824 518 801 q 375 847 443 847 l 296 847 l 296 924 l 375 924 q 470 951 440 924 q 500 1021 500 978 q 474 1085 500 1065 q 408 1106 449 1106 q 339 1091 374 1106 q 268 1053 304 1076 l 218 1117 q 306 1167 261 1149 q 411 1185 350 1185 q 552 1142 504 1185 q 600 1031 600 1100 q 573 940 600 975 q 508 890 546 904 l 508 886 q 588 841 558 876 q 618 746 618 806 q 562 617 618 668 q 386 567 506 567 z "},"´":{"ha":833,"x_min":342,"x_max":621,"o":"m 342 858 q 387 921 363 885 q 435 995 411 957 q 474 1064 458 1033 l 621 1064 l 621 1050 q 569 985 604 1025 q 495 906 535 946 q 422 842 456 867 l 342 842 l 342 858 z "},"µ":{"ha":833,"x_min":104,"x_max":722,"o":"m 104 -333 l 104 744 l 229 744 l 229 268 q 266 133 229 179 q 393 88 303 88 q 553 160 508 88 q 597 361 597 232 l 597 744 l 722 744 l 722 0 l 622 0 l 604 100 l 597 100 q 499 12 558 38 q 363 -14 440 -14 q 229 10 283 -14 l 229 -333 l 104 -333 z "},"¶":{"ha":833,"x_min":69,"x_max":749,"o":"m 446 379 q 392 370 424 374 q 333 367 361 367 q 194 399 254 367 q 102 506 135 431 q 69 707 69 581 q 106 916 69 840 q 206 1024 142 992 q 354 1056 269 1056 l 749 1056 l 749 -176 l 668 -176 l 668 978 l 526 978 l 526 -176 l 446 -176 l 446 379 z "},"·":{"ha":833,"x_min":331,"x_max":503,"o":"m 417 378 q 356 400 381 378 q 331 472 331 422 q 356 546 331 525 q 417 567 381 567 q 478 546 453 567 q 503 472 503 525 q 478 400 503 422 q 417 378 453 378 z "},"¸":{"ha":833,"x_min":276,"x_max":551,"o":"m 347 -333 q 276 -326 301 -333 l 276 -250 q 310 -255 289 -253 q 350 -257 331 -257 q 426 -244 399 -257 q 453 -197 453 -231 q 420 -144 453 -161 q 326 -119 388 -128 l 386 7 l 467 7 l 431 -74 q 516 -112 481 -85 q 551 -196 551 -139 q 500 -297 551 -260 q 347 -333 449 -333 z "},"¹":{"ha":833,"x_min":206,"x_max":632,"o":"m 250 578 l 250 649 l 393 658 l 393 961 q 394 1024 393 997 q 396 1079 394 1050 q 335 1035 368 1053 l 253 989 l 206 1067 l 390 1172 l 483 1172 l 483 658 l 632 649 l 632 578 l 250 578 z "},"º":{"ha":833,"x_min":213,"x_max":619,"o":"m 414 532 q 267 592 322 532 q 213 768 213 653 q 267 942 213 882 q 417 1003 322 1003 q 564 943 508 1003 q 619 768 619 883 q 564 592 619 651 q 414 532 508 532 m 415 606 q 503 647 476 606 q 531 768 531 688 q 503 890 531 850 q 415 929 476 929 q 328 886 356 929 q 300 768 300 843 q 327 647 300 688 q 415 606 354 606 z "},"»":{"ha":833,"x_min":125,"x_max":711,"o":"m 206 663 l 442 378 l 442 360 l 206 74 l 125 132 l 314 368 l 125 606 l 206 663 m 478 661 l 711 378 l 711 360 l 478 74 l 396 135 l 585 368 l 397 606 l 478 661 z "},"¼":{"ha":833,"x_min":6,"x_max":797,"o":"m 115 0 l 629 992 l 735 992 l 222 0 l 115 0 m 44 510 l 44 581 l 151 590 l 151 781 q 152 843 151 817 q 154 899 153 869 q 93 854 126 872 l 53 832 l 6 910 l 149 992 l 242 992 l 242 589 l 354 581 l 354 510 l 44 510 m 636 0 l 636 108 l 417 108 l 417 181 l 632 485 l 725 485 l 725 186 l 797 186 l 797 108 l 725 108 l 725 0 l 636 0 m 514 186 l 636 186 l 636 289 q 638 334 636 317 q 639 376 639 351 q 623 347 633 364 q 601 314 613 331 l 514 186 z "},"½":{"ha":833,"x_min":6,"x_max":797,"o":"m 115 0 l 629 992 l 735 992 l 222 0 l 115 0 m 44 510 l 44 581 l 151 590 l 151 781 q 152 843 151 817 q 154 899 153 869 q 93 854 126 872 l 53 832 l 6 910 l 149 992 l 242 992 l 242 589 l 354 581 l 354 510 l 44 510 m 460 0 l 460 75 l 583 192 q 651 258 628 233 q 683 301 674 282 q 692 344 692 321 q 672 395 692 378 q 619 413 651 413 q 565 399 589 413 q 514 365 540 386 l 465 429 q 535 475 497 457 q 621 493 574 493 q 742 455 699 493 q 786 350 786 417 q 754 255 786 296 q 657 154 722 214 l 581 86 l 797 86 l 797 0 l 460 0 z "},"¾":{"ha":833,"x_min":26,"x_max":797,"o":"m 164 501 q 99 508 129 501 q 38 528 68 514 l 38 615 q 106 590 74 599 q 169 581 139 581 q 241 601 218 581 q 264 654 264 621 q 235 705 264 690 q 158 719 207 719 l 92 719 l 92 796 l 158 796 q 229 815 207 796 q 251 864 251 833 q 232 910 251 896 q 182 925 213 925 q 130 914 156 925 q 76 885 104 903 l 26 949 q 99 989 63 974 q 185 1004 135 1004 q 309 967 267 1004 q 351 871 351 931 q 331 801 351 828 q 282 767 311 775 l 282 763 q 364 654 364 739 q 317 544 364 586 q 164 501 269 501 m 115 0 l 629 992 l 735 992 l 222 0 l 115 0 m 636 0 l 636 108 l 417 108 l 417 181 l 632 485 l 725 485 l 725 186 l 797 186 l 797 108 l 725 108 l 725 0 l 636 0 m 514 186 l 636 186 l 636 289 q 638 334 636 317 q 639 376 639 351 q 623 347 633 364 q 601 314 613 331 l 514 186 z "},"¿":{"ha":833,"x_min":92,"x_max":675,"o":"m 481 429 q 468 338 481 378 q 425 264 456 299 q 340 190 394 229 q 265 128 293 157 q 223 64 236 99 q 210 -22 210 29 q 255 -122 210 -82 q 386 -162 300 -162 q 517 -145 460 -162 q 631 -101 575 -128 l 675 -206 q 553 -251 619 -231 q 393 -271 486 -271 q 173 -205 254 -271 q 92 -28 92 -139 q 108 85 92 38 q 160 171 125 132 q 247 249 194 210 q 329 317 303 289 q 364 374 356 346 q 372 442 372 403 l 372 454 l 481 454 l 481 429 m 421 749 q 482 726 457 749 q 507 654 507 704 q 482 581 507 603 q 421 560 457 560 q 360 581 386 560 q 335 654 335 603 q 360 726 335 704 q 421 749 386 749 z "},"À":{"ha":833,"x_min":28,"x_max":806,"o":"m 28 0 l 350 996 l 482 996 l 806 0 l 678 0 l 583 304 l 249 304 l 154 0 l 28 0 m 375 711 l 283 415 l 549 415 l 457 711 q 438 778 450 735 q 415 864 425 821 q 394 778 407 821 q 375 711 382 735 m 432 1089 q 360 1153 400 1114 q 285 1233 319 1193 q 235 1297 251 1272 l 235 1311 l 381 1311 q 419 1242 396 1281 q 467 1168 442 1204 q 514 1106 493 1132 l 514 1089 l 432 1089 z "},"Á":{"ha":833,"x_min":28,"x_max":806,"o":"m 28 0 l 350 996 l 482 996 l 806 0 l 678 0 l 583 304 l 249 304 l 154 0 l 28 0 m 375 711 l 283 415 l 549 415 l 457 711 q 438 778 450 735 q 415 864 425 821 q 394 778 407 821 q 375 711 382 735 m 360 1106 q 405 1168 381 1132 q 453 1242 429 1204 q 492 1311 476 1281 l 639 1311 l 639 1297 q 588 1233 622 1272 q 513 1153 553 1193 q 440 1089 474 1114 l 360 1089 l 360 1106 z "},"Â":{"ha":833,"x_min":28,"x_max":806,"o":"m 28 0 l 350 996 l 482 996 l 806 0 l 678 0 l 583 304 l 249 304 l 154 0 l 28 0 m 375 711 l 283 415 l 549 415 l 457 711 q 438 778 450 735 q 415 864 425 821 q 394 778 407 821 q 375 711 382 735 m 182 1104 q 241 1168 208 1132 q 304 1242 274 1204 q 353 1311 335 1281 l 478 1311 q 526 1242 494 1281 q 591 1167 557 1204 q 651 1104 625 1131 l 651 1089 l 565 1089 q 490 1149 529 1111 q 414 1224 451 1186 q 339 1149 376 1186 q 265 1089 301 1113 l 182 1089 l 182 1104 z "},"Ã":{"ha":833,"x_min":28,"x_max":806,"o":"m 28 0 l 350 996 l 482 996 l 806 0 l 678 0 l 583 304 l 249 304 l 154 0 l 28 0 m 375 711 l 283 415 l 549 415 l 457 711 q 438 778 450 735 q 415 864 425 821 q 394 778 407 821 q 375 711 382 735 m 167 1089 q 215 1219 175 1171 q 319 1267 254 1267 q 393 1247 358 1267 q 460 1207 428 1226 q 521 1188 492 1188 q 570 1208 553 1188 q 597 1268 588 1228 l 667 1268 q 619 1139 658 1188 q 515 1090 581 1090 q 442 1110 476 1090 q 377 1149 408 1129 q 314 1169 346 1169 q 264 1149 281 1169 q 238 1089 247 1129 l 167 1089 z "},"Ä":{"ha":833,"x_min":28,"x_max":806,"o":"m 28 0 l 350 996 l 482 996 l 806 0 l 678 0 l 583 304 l 249 304 l 154 0 l 28 0 m 375 711 l 283 415 l 549 415 l 457 711 q 438 778 450 735 q 415 864 425 821 q 394 778 407 821 q 375 711 382 735 m 575 1111 q 522 1131 544 1111 q 500 1193 500 1151 q 522 1254 500 1236 q 575 1272 544 1272 q 628 1254 606 1272 q 651 1193 651 1236 q 628 1131 651 1151 q 575 1111 606 1111 m 257 1111 q 204 1131 226 1111 q 182 1193 182 1151 q 204 1254 182 1236 q 257 1272 226 1272 q 310 1254 288 1272 q 333 1193 333 1236 q 310 1131 333 1151 q 257 1111 288 1111 z "},"Å":{"ha":833,"x_min":28,"x_max":806,"o":"m 28 0 l 350 996 l 482 996 l 806 0 l 678 0 l 583 304 l 249 304 l 154 0 l 28 0 m 375 711 l 283 415 l 549 415 l 457 711 q 438 778 450 735 q 415 864 425 821 q 394 778 407 821 q 375 711 382 735 m 415 1089 q 306 1128 347 1089 q 264 1236 264 1167 q 306 1344 264 1306 q 415 1382 347 1382 q 525 1344 481 1382 q 569 1238 569 1306 q 526 1128 569 1167 q 415 1089 482 1089 m 415 1161 q 469 1181 449 1161 q 490 1236 490 1201 q 469 1292 490 1272 q 415 1311 447 1311 q 363 1292 385 1311 q 342 1236 342 1272 q 363 1181 342 1201 q 415 1161 383 1161 z "},"Æ":{"ha":833,"x_min":28,"x_max":754,"o":"m 28 0 l 250 992 l 754 992 l 754 881 l 504 881 l 504 574 l 728 574 l 728 464 l 504 464 l 504 111 l 754 111 l 754 0 l 385 0 l 385 304 l 214 304 l 149 0 l 28 0 m 336 881 l 236 411 l 385 411 l 385 881 l 336 881 z "},"Ç":{"ha":833,"x_min":92,"x_max":764,"o":"m 507 -14 q 269 51 361 -14 q 135 231 178 117 q 92 496 92 346 q 141 767 92 653 q 284 944 190 882 q 513 1006 378 1006 q 648 990 585 1006 q 764 947 711 975 l 717 846 q 619 882 674 869 q 513 894 564 894 q 295 792 371 894 q 219 496 219 689 q 288 206 219 311 q 510 101 356 101 q 612 112 557 101 q 721 144 667 122 l 721 26 q 615 -4 665 6 q 507 -14 564 -14 m 414 -333 q 343 -326 368 -333 l 343 -250 q 376 -255 356 -253 q 417 -257 397 -257 q 492 -244 465 -257 q 519 -197 519 -231 q 487 -144 519 -161 q 393 -119 454 -128 l 453 7 l 533 7 l 497 -74 q 583 -112 547 -85 q 618 -196 618 -139 q 567 -297 618 -260 q 414 -333 515 -333 z "},"È":{"ha":833,"x_min":132,"x_max":715,"o":"m 132 0 l 132 992 l 715 992 l 715 881 l 257 881 l 257 574 l 689 574 l 689 463 l 257 463 l 257 111 l 715 111 l 715 0 l 132 0 m 440 1089 q 368 1153 408 1114 q 294 1233 328 1193 q 243 1297 260 1272 l 243 1311 l 389 1311 q 427 1242 404 1281 q 476 1168 450 1204 q 522 1106 501 1132 l 522 1089 l 440 1089 z "},"É":{"ha":833,"x_min":132,"x_max":715,"o":"m 132 0 l 132 992 l 715 992 l 715 881 l 257 881 l 257 574 l 689 574 l 689 463 l 257 463 l 257 111 l 715 111 l 715 0 l 132 0 m 368 1106 q 413 1168 389 1132 q 461 1242 438 1204 q 500 1311 485 1281 l 647 1311 l 647 1297 q 596 1233 631 1272 q 522 1153 561 1193 q 449 1089 482 1114 l 368 1089 l 368 1106 z "},"Ê":{"ha":833,"x_min":132,"x_max":715,"o":"m 132 0 l 132 992 l 715 992 l 715 881 l 257 881 l 257 574 l 689 574 l 689 463 l 257 463 l 257 111 l 715 111 l 715 0 l 132 0 m 190 1104 q 249 1168 217 1132 q 313 1242 282 1204 q 361 1311 343 1281 l 486 1311 q 534 1242 503 1281 q 599 1167 565 1204 q 660 1104 633 1131 l 660 1089 l 574 1089 q 499 1149 538 1111 q 422 1224 460 1186 q 347 1149 385 1186 q 274 1089 310 1113 l 190 1089 l 190 1104 z "},"Ë":{"ha":833,"x_min":132,"x_max":715,"o":"m 132 0 l 132 992 l 715 992 l 715 881 l 257 881 l 257 574 l 689 574 l 689 463 l 257 463 l 257 111 l 715 111 l 715 0 l 132 0 m 583 1111 q 531 1131 553 1111 q 508 1193 508 1151 q 531 1254 508 1236 q 583 1272 553 1272 q 637 1254 614 1272 q 660 1193 660 1236 q 637 1131 660 1151 q 583 1111 614 1111 m 265 1111 q 213 1131 235 1111 q 190 1193 190 1151 q 213 1254 190 1236 q 265 1272 235 1272 q 319 1254 296 1272 q 342 1193 342 1236 q 319 1131 342 1151 q 265 1111 296 1111 z "},"Ì":{"ha":833,"x_min":153,"x_max":681,"o":"m 153 0 l 153 86 l 353 104 l 353 888 l 153 906 l 153 992 l 681 992 l 681 906 l 478 888 l 478 104 l 681 86 l 681 0 l 153 0 m 432 1089 q 360 1153 400 1114 q 285 1233 319 1193 q 235 1297 251 1272 l 235 1311 l 381 1311 q 419 1242 396 1281 q 467 1168 442 1204 q 514 1106 493 1132 l 514 1089 l 432 1089 z "},"Í":{"ha":833,"x_min":153,"x_max":681,"o":"m 153 0 l 153 86 l 353 104 l 353 888 l 153 906 l 153 992 l 681 992 l 681 906 l 478 888 l 478 104 l 681 86 l 681 0 l 153 0 m 360 1106 q 405 1168 381 1132 q 453 1242 429 1204 q 492 1311 476 1281 l 639 1311 l 639 1297 q 588 1233 622 1272 q 513 1153 553 1193 q 440 1089 474 1114 l 360 1089 l 360 1106 z "},"Î":{"ha":833,"x_min":153,"x_max":681,"o":"m 153 0 l 153 86 l 353 104 l 353 888 l 153 906 l 153 992 l 681 992 l 681 906 l 478 888 l 478 104 l 681 86 l 681 0 l 153 0 m 182 1104 q 241 1168 208 1132 q 304 1242 274 1204 q 353 1311 335 1281 l 478 1311 q 526 1242 494 1281 q 591 1167 557 1204 q 651 1104 625 1131 l 651 1089 l 565 1089 q 490 1149 529 1111 q 414 1224 451 1186 q 339 1149 376 1186 q 265 1089 301 1113 l 182 1089 l 182 1104 z "},"Ï":{"ha":833,"x_min":153,"x_max":681,"o":"m 153 0 l 153 86 l 353 104 l 353 888 l 153 906 l 153 992 l 681 992 l 681 906 l 478 888 l 478 104 l 681 86 l 681 0 l 153 0 m 575 1111 q 522 1131 544 1111 q 500 1193 500 1151 q 522 1254 500 1236 q 575 1272 544 1272 q 628 1254 606 1272 q 651 1193 651 1236 q 628 1131 651 1151 q 575 1111 606 1111 m 257 1111 q 204 1131 226 1111 q 182 1193 182 1151 q 204 1254 182 1236 q 257 1272 226 1272 q 310 1254 288 1272 q 333 1193 333 1236 q 310 1131 333 1151 q 257 1111 288 1111 z "},"Ð":{"ha":833,"x_min":0,"x_max":785,"o":"m 111 0 l 111 436 l 0 436 l 0 544 l 111 544 l 111 992 l 351 992 q 581 936 483 992 q 731 773 678 881 q 785 506 785 665 q 663 127 785 254 q 324 0 542 0 l 111 0 m 311 108 q 573 208 489 108 q 657 501 657 308 q 572 791 657 699 q 338 883 486 883 l 236 883 l 236 544 l 406 544 l 406 436 l 236 436 l 236 108 l 311 108 z "},"Ñ":{"ha":833,"x_min":97,"x_max":736,"o":"m 97 0 l 97 992 l 263 992 l 624 165 l 628 165 q 618 315 621 247 q 615 467 615 382 l 615 992 l 736 992 l 736 0 l 585 0 l 206 864 l 200 864 q 213 708 207 786 q 218 553 218 631 l 218 0 l 97 0 m 174 1089 q 222 1219 182 1171 q 326 1267 261 1267 q 400 1247 365 1267 q 467 1207 435 1226 q 528 1188 499 1188 q 577 1208 560 1188 q 604 1268 594 1228 l 674 1268 q 626 1139 665 1188 q 522 1090 588 1090 q 449 1110 483 1090 q 384 1149 415 1129 q 321 1169 353 1169 q 271 1149 288 1169 q 244 1089 254 1129 l 174 1089 z "},"Ò":{"ha":833,"x_min":63,"x_max":771,"o":"m 415 -14 q 214 50 292 -14 q 99 229 136 114 q 63 496 63 344 q 99 764 63 649 q 215 944 136 879 q 417 1008 293 1008 q 619 944 540 1008 q 734 766 697 881 q 771 499 771 651 q 733 229 771 344 q 617 50 696 114 q 415 -14 539 -14 m 418 97 q 593 203 543 97 q 643 497 643 310 q 593 792 643 686 q 419 897 543 897 q 242 790 293 897 q 190 497 190 683 q 242 203 190 310 q 418 97 293 97 m 432 1089 q 360 1153 400 1114 q 285 1233 319 1193 q 235 1297 251 1272 l 235 1311 l 381 1311 q 419 1242 396 1281 q 467 1168 442 1204 q 514 1106 493 1132 l 514 1089 l 432 1089 z "},"Ó":{"ha":833,"x_min":63,"x_max":771,"o":"m 415 -14 q 214 50 292 -14 q 99 229 136 114 q 63 496 63 344 q 99 764 63 649 q 215 944 136 879 q 417 1008 293 1008 q 619 944 540 1008 q 734 766 697 881 q 771 499 771 651 q 733 229 771 344 q 617 50 696 114 q 415 -14 539 -14 m 418 97 q 593 203 543 97 q 643 497 643 310 q 593 792 643 686 q 419 897 543 897 q 242 790 293 897 q 190 497 190 683 q 242 203 190 310 q 418 97 293 97 m 360 1106 q 405 1168 381 1132 q 453 1242 429 1204 q 492 1311 476 1281 l 639 1311 l 639 1297 q 588 1233 622 1272 q 513 1153 553 1193 q 440 1089 474 1114 l 360 1089 l 360 1106 z "},"Ô":{"ha":833,"x_min":63,"x_max":771,"o":"m 415 -14 q 214 50 292 -14 q 99 229 136 114 q 63 496 63 344 q 99 764 63 649 q 215 944 136 879 q 417 1008 293 1008 q 619 944 540 1008 q 734 766 697 881 q 771 499 771 651 q 733 229 771 344 q 617 50 696 114 q 415 -14 539 -14 m 418 97 q 593 203 543 97 q 643 497 643 310 q 593 792 643 686 q 419 897 543 897 q 242 790 293 897 q 190 497 190 683 q 242 203 190 310 q 418 97 293 97 m 182 1104 q 241 1168 208 1132 q 304 1242 274 1204 q 353 1311 335 1281 l 478 1311 q 526 1242 494 1281 q 591 1167 557 1204 q 651 1104 625 1131 l 651 1089 l 565 1089 q 490 1149 529 1111 q 414 1224 451 1186 q 339 1149 376 1186 q 265 1089 301 1113 l 182 1089 l 182 1104 z "},"Õ":{"ha":833,"x_min":63,"x_max":771,"o":"m 415 -14 q 214 50 292 -14 q 99 229 136 114 q 63 496 63 344 q 99 764 63 649 q 215 944 136 879 q 417 1008 293 1008 q 619 944 540 1008 q 734 766 697 881 q 771 499 771 651 q 733 229 771 344 q 617 50 696 114 q 415 -14 539 -14 m 418 97 q 593 203 543 97 q 643 497 643 310 q 593 792 643 686 q 419 897 543 897 q 242 790 293 897 q 190 497 190 683 q 242 203 190 310 q 418 97 293 97 m 167 1089 q 215 1219 175 1171 q 319 1267 254 1267 q 393 1247 358 1267 q 460 1207 428 1226 q 521 1188 492 1188 q 570 1208 553 1188 q 597 1268 588 1228 l 667 1268 q 619 1139 658 1188 q 515 1090 581 1090 q 442 1110 476 1090 q 377 1149 408 1129 q 314 1169 346 1169 q 264 1149 281 1169 q 238 1089 247 1129 l 167 1089 z "},"Ö":{"ha":833,"x_min":63,"x_max":771,"o":"m 415 -14 q 214 50 292 -14 q 99 229 136 114 q 63 496 63 344 q 99 764 63 649 q 215 944 136 879 q 417 1008 293 1008 q 619 944 540 1008 q 734 766 697 881 q 771 499 771 651 q 733 229 771 344 q 617 50 696 114 q 415 -14 539 -14 m 418 97 q 593 203 543 97 q 643 497 643 310 q 593 792 643 686 q 419 897 543 897 q 242 790 293 897 q 190 497 190 683 q 242 203 190 310 q 418 97 293 97 m 575 1111 q 522 1131 544 1111 q 500 1193 500 1151 q 522 1254 500 1236 q 575 1272 544 1272 q 628 1254 606 1272 q 651 1193 651 1236 q 628 1131 651 1151 q 575 1111 606 1111 m 257 1111 q 204 1131 226 1111 q 182 1193 182 1151 q 204 1254 182 1236 q 257 1272 226 1272 q 310 1254 288 1272 q 333 1193 333 1236 q 310 1131 333 1151 q 257 1111 288 1111 z "},"×":{"ha":833,"x_min":118,"x_max":717,"o":"m 189 192 l 119 260 l 347 490 l 118 719 l 188 789 l 417 558 l 649 789 l 717 721 l 486 490 l 715 260 l 647 192 l 415 419 l 189 192 z "},"Ø":{"ha":833,"x_min":63,"x_max":771,"o":"m 168 -53 l 78 -4 l 150 122 q 84 284 106 189 q 63 496 63 379 q 99 764 63 649 q 215 944 136 879 q 417 1008 293 1008 q 530 992 479 1008 q 619 943 581 975 l 675 1040 l 764 992 l 690 863 q 751 703 732 796 q 771 499 771 611 q 733 229 771 344 q 617 50 696 114 q 415 -14 539 -14 q 224 43 301 -14 l 168 -53 m 190 497 q 198 360 190 422 q 222 249 206 297 l 560 840 q 419 897 508 897 q 242 790 293 897 q 190 497 190 683 m 418 97 q 593 203 543 97 q 643 497 643 310 q 637 627 643 568 q 617 733 631 686 l 282 147 q 418 97 335 97 z "},"Ù":{"ha":833,"x_min":97,"x_max":736,"o":"m 414 -14 q 230 31 300 -14 q 128 159 160 76 q 97 353 97 242 l 97 992 l 222 992 l 222 360 q 240 222 222 282 q 299 130 257 163 q 417 97 342 97 q 538 132 496 97 q 596 227 581 167 q 611 361 611 288 l 611 992 l 736 992 l 736 350 q 706 165 736 247 q 604 34 675 82 q 414 -14 533 -14 m 432 1089 q 360 1153 400 1114 q 285 1233 319 1193 q 235 1297 251 1272 l 235 1311 l 381 1311 q 419 1242 396 1281 q 467 1168 442 1204 q 514 1106 493 1132 l 514 1089 l 432 1089 z "},"Ú":{"ha":833,"x_min":97,"x_max":736,"o":"m 414 -14 q 230 31 300 -14 q 128 159 160 76 q 97 353 97 242 l 97 992 l 222 992 l 222 360 q 240 222 222 282 q 299 130 257 163 q 417 97 342 97 q 538 132 496 97 q 596 227 581 167 q 611 361 611 288 l 611 992 l 736 992 l 736 350 q 706 165 736 247 q 604 34 675 82 q 414 -14 533 -14 m 360 1106 q 405 1168 381 1132 q 453 1242 429 1204 q 492 1311 476 1281 l 639 1311 l 639 1297 q 588 1233 622 1272 q 513 1153 553 1193 q 440 1089 474 1114 l 360 1089 l 360 1106 z "},"Û":{"ha":833,"x_min":97,"x_max":736,"o":"m 414 -14 q 230 31 300 -14 q 128 159 160 76 q 97 353 97 242 l 97 992 l 222 992 l 222 360 q 240 222 222 282 q 299 130 257 163 q 417 97 342 97 q 538 132 496 97 q 596 227 581 167 q 611 361 611 288 l 611 992 l 736 992 l 736 350 q 706 165 736 247 q 604 34 675 82 q 414 -14 533 -14 m 182 1104 q 241 1168 208 1132 q 304 1242 274 1204 q 353 1311 335 1281 l 478 1311 q 526 1242 494 1281 q 591 1167 557 1204 q 651 1104 625 1131 l 651 1089 l 565 1089 q 490 1149 529 1111 q 414 1224 451 1186 q 339 1149 376 1186 q 265 1089 301 1113 l 182 1089 l 182 1104 z "},"Ü":{"ha":833,"x_min":97,"x_max":736,"o":"m 414 -14 q 230 31 300 -14 q 128 159 160 76 q 97 353 97 242 l 97 992 l 222 992 l 222 360 q 240 222 222 282 q 299 130 257 163 q 417 97 342 97 q 538 132 496 97 q 596 227 581 167 q 611 361 611 288 l 611 992 l 736 992 l 736 350 q 706 165 736 247 q 604 34 675 82 q 414 -14 533 -14 m 575 1111 q 522 1131 544 1111 q 500 1193 500 1151 q 522 1254 500 1236 q 575 1272 544 1272 q 628 1254 606 1272 q 651 1193 651 1236 q 628 1131 651 1151 q 575 1111 606 1111 m 257 1111 q 204 1131 226 1111 q 182 1193 182 1151 q 204 1254 182 1236 q 257 1272 226 1272 q 310 1254 288 1272 q 333 1193 333 1236 q 310 1131 333 1151 q 257 1111 288 1111 z "},"Ý":{"ha":833,"x_min":49,"x_max":785,"o":"m 357 0 l 357 386 l 49 992 l 186 992 l 418 490 l 651 992 l 785 992 l 476 386 l 476 0 l 357 0 m 360 1106 q 405 1168 381 1132 q 453 1242 429 1204 q 492 1311 476 1281 l 639 1311 l 639 1297 q 588 1233 622 1272 q 513 1153 553 1193 q 440 1089 474 1114 l 360 1089 l 360 1106 z "},"Þ":{"ha":833,"x_min":132,"x_max":757,"o":"m 132 0 l 132 992 l 257 992 l 257 811 l 415 811 q 675 735 593 811 q 757 521 757 660 q 723 365 757 439 q 610 247 689 292 q 397 201 532 201 l 257 201 l 257 0 l 132 0 m 383 310 q 568 357 507 310 q 629 514 629 404 q 404 703 629 703 l 257 703 l 257 310 l 383 310 z "},"ß":{"ha":833,"x_min":104,"x_max":799,"o":"m 535 -14 q 339 33 414 -14 l 339 146 q 428 106 375 124 q 539 88 481 88 q 644 120 613 88 q 676 213 676 153 q 665 269 676 247 q 625 314 653 292 q 546 371 597 336 q 433 463 469 424 q 396 560 396 501 q 415 639 396 607 q 462 694 433 671 q 518 738 490 717 q 565 785 546 760 q 583 847 583 811 q 535 931 583 904 q 410 957 488 957 q 319 944 361 957 q 252 899 278 931 q 226 807 226 867 l 226 0 l 104 0 l 104 811 q 144 959 104 904 q 253 1038 185 1014 q 410 1063 322 1063 q 627 1011 544 1063 q 710 861 710 960 q 690 775 710 811 q 642 712 671 739 q 583 663 613 685 q 535 617 554 640 q 515 565 515 594 q 526 533 515 547 q 565 500 538 518 q 638 449 592 482 q 722 383 686 415 q 778 310 758 351 q 799 208 799 269 q 726 40 799 93 q 535 -14 654 -14 z "},"à":{"ha":833,"x_min":97,"x_max":708,"o":"m 342 -14 q 165 40 232 -14 q 97 204 97 94 q 184 385 97 325 q 435 449 271 444 l 594 453 l 594 483 q 544 620 594 583 q 410 657 494 657 q 296 642 350 657 q 193 599 242 626 l 150 693 q 267 739 203 719 q 417 758 332 758 q 633 695 557 758 q 708 499 708 632 l 708 0 l 608 0 l 594 103 l 589 103 q 483 15 543 44 q 342 -14 424 -14 m 363 88 q 478 110 425 88 q 563 180 531 133 q 594 297 594 226 l 594 364 l 461 360 q 272 317 328 356 q 215 208 215 278 q 256 116 215 144 q 363 88 296 88 m 439 842 q 367 906 407 867 q 292 985 326 946 q 242 1050 258 1025 l 242 1064 l 388 1064 q 426 995 403 1033 q 474 921 449 957 q 521 858 500 885 l 521 842 l 439 842 z "},"á":{"ha":833,"x_min":97,"x_max":708,"o":"m 342 -14 q 165 40 232 -14 q 97 204 97 94 q 184 385 97 325 q 435 449 271 444 l 594 453 l 594 483 q 544 620 594 583 q 410 657 494 657 q 296 642 350 657 q 193 599 242 626 l 150 693 q 267 739 203 719 q 417 758 332 758 q 633 695 557 758 q 708 499 708 632 l 708 0 l 608 0 l 594 103 l 589 103 q 483 15 543 44 q 342 -14 424 -14 m 363 88 q 478 110 425 88 q 563 180 531 133 q 594 297 594 226 l 594 364 l 461 360 q 272 317 328 356 q 215 208 215 278 q 256 116 215 144 q 363 88 296 88 m 367 858 q 412 921 388 885 q 460 995 436 957 q 499 1064 483 1033 l 646 1064 l 646 1050 q 594 985 629 1025 q 520 906 560 946 q 447 842 481 867 l 367 842 l 367 858 z "},"â":{"ha":833,"x_min":97,"x_max":708,"o":"m 342 -14 q 165 40 232 -14 q 97 204 97 94 q 184 385 97 325 q 435 449 271 444 l 594 453 l 594 483 q 544 620 594 583 q 410 657 494 657 q 296 642 350 657 q 193 599 242 626 l 150 693 q 267 739 203 719 q 417 758 332 758 q 633 695 557 758 q 708 499 708 632 l 708 0 l 608 0 l 594 103 l 589 103 q 483 15 543 44 q 342 -14 424 -14 m 363 88 q 478 110 425 88 q 563 180 531 133 q 594 297 594 226 l 594 364 l 461 360 q 272 317 328 356 q 215 208 215 278 q 256 116 215 144 q 363 88 296 88 m 189 857 q 248 921 215 885 q 311 995 281 957 q 360 1064 342 1033 l 485 1064 q 533 995 501 1033 q 598 920 564 957 q 658 857 632 883 l 658 842 l 572 842 q 497 901 536 864 q 421 976 458 939 q 346 902 383 939 q 272 842 308 865 l 189 842 l 189 857 z "},"ã":{"ha":833,"x_min":97,"x_max":708,"o":"m 342 -14 q 165 40 232 -14 q 97 204 97 94 q 184 385 97 325 q 435 449 271 444 l 594 453 l 594 483 q 544 620 594 583 q 410 657 494 657 q 296 642 350 657 q 193 599 242 626 l 150 693 q 267 739 203 719 q 417 758 332 758 q 633 695 557 758 q 708 499 708 632 l 708 0 l 608 0 l 594 103 l 589 103 q 483 15 543 44 q 342 -14 424 -14 m 363 88 q 478 110 425 88 q 563 180 531 133 q 594 297 594 226 l 594 364 l 461 360 q 272 317 328 356 q 215 208 215 278 q 256 116 215 144 q 363 88 296 88 m 174 842 q 222 972 182 924 q 326 1019 261 1019 q 400 999 365 1019 q 467 960 435 979 q 528 940 499 940 q 577 960 560 940 q 604 1021 594 981 l 674 1021 q 626 892 665 940 q 522 843 588 843 q 449 863 483 843 q 384 902 415 882 q 321 922 353 922 q 271 902 288 922 q 244 842 254 882 l 174 842 z "},"ä":{"ha":833,"x_min":97,"x_max":708,"o":"m 342 -14 q 165 40 232 -14 q 97 204 97 94 q 184 385 97 325 q 435 449 271 444 l 594 453 l 594 483 q 544 620 594 583 q 410 657 494 657 q 296 642 350 657 q 193 599 242 626 l 150 693 q 267 739 203 719 q 417 758 332 758 q 633 695 557 758 q 708 499 708 632 l 708 0 l 608 0 l 594 103 l 589 103 q 483 15 543 44 q 342 -14 424 -14 m 363 88 q 478 110 425 88 q 563 180 531 133 q 594 297 594 226 l 594 364 l 461 360 q 272 317 328 356 q 215 208 215 278 q 256 116 215 144 q 363 88 296 88 m 582 864 q 529 884 551 864 q 507 946 507 904 q 529 1007 507 989 q 582 1025 551 1025 q 635 1007 613 1025 q 658 946 658 989 q 635 884 658 904 q 582 864 613 864 m 264 864 q 211 884 233 864 q 189 946 189 904 q 211 1007 189 989 q 264 1025 233 1025 q 317 1007 294 1025 q 340 946 340 989 q 317 884 340 904 q 264 864 294 864 z "},"å":{"ha":833,"x_min":97,"x_max":708,"o":"m 342 -14 q 165 40 232 -14 q 97 204 97 94 q 184 385 97 325 q 435 449 271 444 l 594 453 l 594 483 q 544 620 594 583 q 410 657 494 657 q 296 642 350 657 q 193 599 242 626 l 150 693 q 267 739 203 719 q 417 758 332 758 q 633 695 557 758 q 708 499 708 632 l 708 0 l 608 0 l 594 103 l 589 103 q 483 15 543 44 q 342 -14 424 -14 m 363 88 q 478 110 425 88 q 563 180 531 133 q 594 297 594 226 l 594 364 l 461 360 q 272 317 328 356 q 215 208 215 278 q 256 116 215 144 q 363 88 296 88 m 422 842 q 313 881 354 842 q 271 989 271 919 q 313 1097 271 1058 q 422 1135 354 1135 q 532 1097 488 1135 q 576 990 576 1058 q 533 881 576 919 q 422 842 489 842 m 422 914 q 476 934 456 914 q 497 989 497 954 q 476 1044 497 1025 q 422 1064 454 1064 q 370 1044 392 1064 q 349 989 349 1025 q 369 934 349 954 q 422 914 390 914 z "},"æ":{"ha":833,"x_min":28,"x_max":806,"o":"m 201 -14 q 79 40 131 -14 q 28 208 28 94 q 87 381 28 319 q 250 444 146 442 l 358 447 l 358 494 q 331 621 358 585 q 250 657 303 657 q 183 642 218 657 q 119 604 147 628 l 76 693 q 162 740 111 721 q 256 758 213 758 q 366 732 322 758 q 432 649 410 706 q 499 730 456 701 q 601 758 542 758 q 751 672 697 758 q 806 425 806 585 l 806 349 l 465 349 q 513 146 468 204 q 629 88 557 88 q 710 101 674 88 q 788 146 747 115 l 788 36 q 711 -2 749 10 q 624 -14 674 -14 q 500 19 557 -14 q 413 136 443 51 q 327 21 378 56 q 201 -14 276 -14 m 692 446 q 668 603 692 550 q 589 657 644 657 q 506 603 540 657 q 468 446 472 549 l 692 446 m 224 88 q 288 107 258 88 q 337 173 318 126 q 356 297 356 219 l 356 360 l 293 356 q 176 313 213 350 q 139 207 139 276 q 164 116 139 144 q 224 88 189 88 z "},"ç":{"ha":833,"x_min":118,"x_max":701,"o":"m 469 -14 q 212 76 306 -14 q 118 367 118 165 q 165 596 118 510 q 294 720 211 682 q 482 758 376 758 q 601 745 547 758 q 701 707 654 732 l 664 606 q 578 640 619 629 q 488 650 536 650 q 303 580 360 650 q 246 369 246 510 q 306 157 246 221 q 483 93 365 93 q 599 106 544 93 q 693 138 653 119 l 693 28 q 590 -3 651 8 q 469 -14 529 -14 m 388 -333 q 317 -326 342 -333 l 317 -250 q 350 -255 329 -253 q 390 -257 371 -257 q 466 -244 439 -257 q 493 -197 493 -231 q 460 -144 493 -161 q 367 -119 428 -128 l 426 7 l 507 7 l 471 -74 q 556 -112 521 -85 q 592 -196 592 -139 q 540 -297 592 -260 q 388 -333 489 -333 z "},"è":{"ha":833,"x_min":83,"x_max":750,"o":"m 468 -14 q 186 85 289 -14 q 83 369 83 185 q 128 578 83 492 q 251 712 172 665 q 436 758 331 758 q 666 664 582 758 q 750 406 750 569 l 750 349 l 210 349 q 247 194 213 251 q 340 113 281 138 q 476 89 399 89 q 597 106 538 89 q 717 150 657 122 l 717 39 q 589 -1 653 11 q 468 -14 525 -14 m 625 449 q 573 601 621 546 q 436 657 525 657 q 285 601 343 657 q 213 449 228 544 l 625 449 m 438 842 q 365 906 406 867 q 291 985 325 946 q 240 1050 257 1025 l 240 1064 l 386 1064 q 424 995 401 1033 q 473 921 447 957 q 519 858 499 885 l 519 842 l 438 842 z "},"é":{"ha":833,"x_min":83,"x_max":750,"o":"m 468 -14 q 186 85 289 -14 q 83 369 83 185 q 128 578 83 492 q 251 712 172 665 q 436 758 331 758 q 666 664 582 758 q 750 406 750 569 l 750 349 l 210 349 q 247 194 213 251 q 340 113 281 138 q 476 89 399 89 q 597 106 538 89 q 717 150 657 122 l 717 39 q 589 -1 653 11 q 468 -14 525 -14 m 625 449 q 573 601 621 546 q 436 657 525 657 q 285 601 343 657 q 213 449 228 544 l 625 449 m 365 858 q 410 921 386 885 q 458 995 435 957 q 497 1064 482 1033 l 644 1064 l 644 1050 q 593 985 628 1025 q 519 906 558 946 q 446 842 479 867 l 365 842 l 365 858 z "},"ê":{"ha":833,"x_min":83,"x_max":750,"o":"m 468 -14 q 186 85 289 -14 q 83 369 83 185 q 128 578 83 492 q 251 712 172 665 q 436 758 331 758 q 666 664 582 758 q 750 406 750 569 l 750 349 l 210 349 q 247 194 213 251 q 340 113 281 138 q 476 89 399 89 q 597 106 538 89 q 717 150 657 122 l 717 39 q 589 -1 653 11 q 468 -14 525 -14 m 625 449 q 573 601 621 546 q 436 657 525 657 q 285 601 343 657 q 213 449 228 544 l 625 449 m 188 857 q 247 921 214 885 q 310 995 279 957 q 358 1064 340 1033 l 483 1064 q 531 995 500 1033 q 597 920 563 957 q 657 857 631 883 l 657 842 l 571 842 q 496 901 535 864 q 419 976 457 939 q 344 902 382 939 q 271 842 307 865 l 188 842 l 188 857 z "},"ë":{"ha":833,"x_min":83,"x_max":750,"o":"m 468 -14 q 186 85 289 -14 q 83 369 83 185 q 128 578 83 492 q 251 712 172 665 q 436 758 331 758 q 666 664 582 758 q 750 406 750 569 l 750 349 l 210 349 q 247 194 213 251 q 340 113 281 138 q 476 89 399 89 q 597 106 538 89 q 717 150 657 122 l 717 39 q 589 -1 653 11 q 468 -14 525 -14 m 625 449 q 573 601 621 546 q 436 657 525 657 q 285 601 343 657 q 213 449 228 544 l 625 449 m 581 864 q 528 884 550 864 q 506 946 506 904 q 528 1007 506 989 q 581 1025 550 1025 q 634 1007 611 1025 q 657 946 657 989 q 634 884 657 904 q 581 864 611 864 m 263 864 q 210 884 232 864 q 188 946 188 904 q 210 1007 188 989 q 263 1025 232 1025 q 316 1007 293 1025 q 339 946 339 989 q 316 884 339 904 q 263 864 293 864 z "},"ì":{"ha":833,"x_min":111,"x_max":750,"o":"m 111 0 l 111 83 l 376 104 l 376 640 l 133 658 l 133 744 l 501 744 l 501 104 l 750 83 l 750 0 l 111 0 m 432 842 q 360 906 400 867 q 285 985 319 946 q 235 1050 251 1025 l 235 1064 l 381 1064 q 419 995 396 1033 q 467 921 442 957 q 514 858 493 885 l 514 842 l 432 842 z "},"í":{"ha":833,"x_min":111,"x_max":750,"o":"m 111 0 l 111 83 l 376 104 l 376 640 l 133 658 l 133 744 l 501 744 l 501 104 l 750 83 l 750 0 l 111 0 m 360 858 q 405 921 381 885 q 453 995 429 957 q 492 1064 476 1033 l 639 1064 l 639 1050 q 588 985 622 1025 q 513 906 553 946 q 440 842 474 867 l 360 842 l 360 858 z "},"î":{"ha":833,"x_min":111,"x_max":750,"o":"m 111 0 l 111 83 l 376 104 l 376 640 l 133 658 l 133 744 l 501 744 l 501 104 l 750 83 l 750 0 l 111 0 m 182 857 q 241 921 208 885 q 304 995 274 957 q 353 1064 335 1033 l 478 1064 q 526 995 494 1033 q 591 920 557 957 q 651 857 625 883 l 651 842 l 565 842 q 490 901 529 864 q 414 976 451 939 q 339 902 376 939 q 265 842 301 865 l 182 842 l 182 857 z "},"ï":{"ha":833,"x_min":111,"x_max":750,"o":"m 111 0 l 111 83 l 376 104 l 376 640 l 133 658 l 133 744 l 501 744 l 501 104 l 750 83 l 750 0 l 111 0 m 575 864 q 522 884 544 864 q 500 946 500 904 q 522 1007 500 989 q 575 1025 544 1025 q 628 1007 606 1025 q 651 946 651 989 q 628 884 651 904 q 575 864 606 864 m 257 864 q 204 884 226 864 q 182 946 182 904 q 204 1007 182 989 q 257 1025 226 1025 q 310 1007 288 1025 q 333 946 333 989 q 310 884 333 904 q 257 864 288 864 z "},"ð":{"ha":833,"x_min":76,"x_max":757,"o":"m 418 -14 q 241 27 318 -14 q 120 144 164 68 q 76 324 76 219 q 165 568 76 479 q 403 657 253 657 q 531 638 476 657 q 619 576 586 618 l 625 579 q 554 721 600 656 q 447 842 508 786 l 272 740 l 219 817 l 371 904 q 250 979 315 944 l 300 1063 q 467 960 390 1019 l 635 1056 l 688 981 l 539 894 q 699 660 642 792 q 757 382 757 529 q 666 85 757 185 q 418 -14 575 -14 m 421 86 q 583 153 532 86 q 633 349 633 221 q 581 497 633 435 q 421 558 529 558 q 252 497 304 558 q 200 319 200 435 q 253 152 200 218 q 421 86 306 86 z "},"ñ":{"ha":833,"x_min":111,"x_max":729,"o":"m 111 0 l 111 744 l 211 744 l 229 635 l 236 635 q 331 728 268 699 q 479 758 394 758 q 660 695 592 758 q 729 497 729 632 l 729 0 l 604 0 l 604 475 q 566 613 604 569 q 443 657 528 657 q 283 585 329 657 q 236 382 236 513 l 236 0 l 111 0 m 183 842 q 231 972 192 924 q 336 1019 271 1019 q 410 999 375 1019 q 476 960 444 979 q 538 940 508 940 q 587 960 569 940 q 614 1021 604 981 l 683 1021 q 636 892 675 940 q 532 843 597 843 q 459 863 493 843 q 394 902 425 882 q 331 922 363 922 q 281 902 297 922 q 254 842 264 882 l 183 842 z "},"ò":{"ha":833,"x_min":76,"x_max":757,"o":"m 418 -14 q 244 28 321 -14 q 122 158 167 71 q 76 375 76 244 q 120 589 76 504 q 240 716 164 674 q 414 758 317 758 q 589 716 511 758 q 712 588 667 674 q 757 371 757 503 q 713 156 757 242 q 592 28 668 71 q 418 -14 515 -14 m 417 88 q 578 165 525 88 q 631 374 631 242 q 577 581 631 506 q 415 657 524 657 q 253 581 307 657 q 200 374 200 506 q 254 165 200 242 q 417 88 308 88 m 432 842 q 360 906 400 867 q 285 985 319 946 q 235 1050 251 1025 l 235 1064 l 381 1064 q 419 995 396 1033 q 467 921 442 957 q 514 858 493 885 l 514 842 l 432 842 z "},"ó":{"ha":833,"x_min":76,"x_max":757,"o":"m 418 -14 q 244 28 321 -14 q 122 158 167 71 q 76 375 76 244 q 120 589 76 504 q 240 716 164 674 q 414 758 317 758 q 589 716 511 758 q 712 588 667 674 q 757 371 757 503 q 713 156 757 242 q 592 28 668 71 q 418 -14 515 -14 m 417 88 q 578 165 525 88 q 631 374 631 242 q 577 581 631 506 q 415 657 524 657 q 253 581 307 657 q 200 374 200 506 q 254 165 200 242 q 417 88 308 88 m 360 858 q 405 921 381 885 q 453 995 429 957 q 492 1064 476 1033 l 639 1064 l 639 1050 q 588 985 622 1025 q 513 906 553 946 q 440 842 474 867 l 360 842 l 360 858 z "},"ô":{"ha":833,"x_min":76,"x_max":757,"o":"m 418 -14 q 244 28 321 -14 q 122 158 167 71 q 76 375 76 244 q 120 589 76 504 q 240 716 164 674 q 414 758 317 758 q 589 716 511 758 q 712 588 667 674 q 757 371 757 503 q 713 156 757 242 q 592 28 668 71 q 418 -14 515 -14 m 417 88 q 578 165 525 88 q 631 374 631 242 q 577 581 631 506 q 415 657 524 657 q 253 581 307 657 q 200 374 200 506 q 254 165 200 242 q 417 88 308 88 m 182 857 q 241 921 208 885 q 304 995 274 957 q 353 1064 335 1033 l 478 1064 q 526 995 494 1033 q 591 920 557 957 q 651 857 625 883 l 651 842 l 565 842 q 490 901 529 864 q 414 976 451 939 q 339 902 376 939 q 265 842 301 865 l 182 842 l 182 857 z "},"õ":{"ha":833,"x_min":76,"x_max":757,"o":"m 418 -14 q 244 28 321 -14 q 122 158 167 71 q 76 375 76 244 q 120 589 76 504 q 240 716 164 674 q 414 758 317 758 q 589 716 511 758 q 712 588 667 674 q 757 371 757 503 q 713 156 757 242 q 592 28 668 71 q 418 -14 515 -14 m 417 88 q 578 165 525 88 q 631 374 631 242 q 577 581 631 506 q 415 657 524 657 q 253 581 307 657 q 200 374 200 506 q 254 165 200 242 q 417 88 308 88 m 167 842 q 215 972 175 924 q 319 1019 254 1019 q 393 999 358 1019 q 460 960 428 979 q 521 940 492 940 q 570 960 553 940 q 597 1021 588 981 l 667 1021 q 619 892 658 940 q 515 843 581 843 q 442 863 476 843 q 377 902 408 882 q 314 922 346 922 q 264 902 281 922 q 238 842 247 882 l 167 842 z "},"ö":{"ha":833,"x_min":76,"x_max":757,"o":"m 418 -14 q 244 28 321 -14 q 122 158 167 71 q 76 375 76 244 q 120 589 76 504 q 240 716 164 674 q 414 758 317 758 q 589 716 511 758 q 712 588 667 674 q 757 371 757 503 q 713 156 757 242 q 592 28 668 71 q 418 -14 515 -14 m 417 88 q 578 165 525 88 q 631 374 631 242 q 577 581 631 506 q 415 657 524 657 q 253 581 307 657 q 200 374 200 506 q 254 165 200 242 q 417 88 308 88 m 575 864 q 522 884 544 864 q 500 946 500 904 q 522 1007 500 989 q 575 1025 544 1025 q 628 1007 606 1025 q 651 946 651 989 q 628 884 651 904 q 575 864 606 864 m 257 864 q 204 884 226 864 q 182 946 182 904 q 204 1007 182 989 q 257 1025 226 1025 q 310 1007 288 1025 q 333 946 333 989 q 310 884 333 904 q 257 864 288 864 z "},"÷":{"ha":833,"x_min":111,"x_max":722,"o":"m 415 642 q 360 662 383 642 q 338 726 338 682 q 360 792 338 774 q 415 810 383 810 q 469 792 447 810 q 492 726 492 774 q 469 662 492 682 q 415 642 447 642 m 111 440 l 111 539 l 722 539 l 722 440 l 111 440 m 415 168 q 360 188 383 168 q 338 253 338 208 q 360 318 338 300 q 415 336 383 336 q 469 318 447 336 q 492 253 492 300 q 469 188 492 208 q 415 168 447 168 z "},"ø":{"ha":833,"x_min":76,"x_max":757,"o":"m 183 -46 l 103 8 l 164 94 q 99 212 122 142 q 76 375 76 282 q 120 589 76 504 q 240 716 164 674 q 414 758 317 758 q 603 708 522 758 l 658 786 l 740 733 l 676 643 q 735 528 714 596 q 757 371 757 460 q 713 156 757 242 q 592 28 668 71 q 418 -14 515 -14 q 239 32 315 -14 l 183 -46 m 200 374 q 236 194 200 265 l 539 619 q 415 657 489 657 q 253 581 307 657 q 200 374 200 506 m 417 88 q 578 165 525 88 q 631 374 631 242 q 601 539 631 472 l 301 119 q 417 88 349 88 z "},"ù":{"ha":833,"x_min":104,"x_max":722,"o":"m 363 -14 q 167 52 231 -14 q 104 249 104 118 l 104 744 l 229 744 l 229 268 q 266 133 229 179 q 393 88 303 88 q 553 160 508 88 q 597 361 597 232 l 597 744 l 722 744 l 722 0 l 622 0 l 604 100 l 597 100 q 499 12 558 38 q 363 -14 440 -14 m 432 842 q 360 906 400 867 q 285 985 319 946 q 235 1050 251 1025 l 235 1064 l 381 1064 q 419 995 396 1033 q 467 921 442 957 q 514 858 493 885 l 514 842 l 432 842 z "},"ú":{"ha":833,"x_min":104,"x_max":722,"o":"m 363 -14 q 167 52 231 -14 q 104 249 104 118 l 104 744 l 229 744 l 229 268 q 266 133 229 179 q 393 88 303 88 q 553 160 508 88 q 597 361 597 232 l 597 744 l 722 744 l 722 0 l 622 0 l 604 100 l 597 100 q 499 12 558 38 q 363 -14 440 -14 m 360 858 q 405 921 381 885 q 453 995 429 957 q 492 1064 476 1033 l 639 1064 l 639 1050 q 588 985 622 1025 q 513 906 553 946 q 440 842 474 867 l 360 842 l 360 858 z "},"û":{"ha":833,"x_min":104,"x_max":722,"o":"m 363 -14 q 167 52 231 -14 q 104 249 104 118 l 104 744 l 229 744 l 229 268 q 266 133 229 179 q 393 88 303 88 q 553 160 508 88 q 597 361 597 232 l 597 744 l 722 744 l 722 0 l 622 0 l 604 100 l 597 100 q 499 12 558 38 q 363 -14 440 -14 m 182 857 q 241 921 208 885 q 304 995 274 957 q 353 1064 335 1033 l 478 1064 q 526 995 494 1033 q 591 920 557 957 q 651 857 625 883 l 651 842 l 565 842 q 490 901 529 864 q 414 976 451 939 q 339 902 376 939 q 265 842 301 865 l 182 842 l 182 857 z "},"ü":{"ha":833,"x_min":104,"x_max":722,"o":"m 363 -14 q 167 52 231 -14 q 104 249 104 118 l 104 744 l 229 744 l 229 268 q 266 133 229 179 q 393 88 303 88 q 553 160 508 88 q 597 361 597 232 l 597 744 l 722 744 l 722 0 l 622 0 l 604 100 l 597 100 q 499 12 558 38 q 363 -14 440 -14 m 575 864 q 522 884 544 864 q 500 946 500 904 q 522 1007 500 989 q 575 1025 544 1025 q 628 1007 606 1025 q 651 946 651 989 q 628 884 651 904 q 575 864 606 864 m 257 864 q 204 884 226 864 q 182 946 182 904 q 204 1007 182 989 q 257 1025 226 1025 q 310 1007 288 1025 q 333 946 333 989 q 310 884 333 904 q 257 864 288 864 z "},"ý":{"ha":833,"x_min":63,"x_max":769,"o":"m 189 -340 q 135 -337 161 -340 q 89 -329 108 -333 l 89 -233 q 128 -239 106 -236 q 174 -242 151 -242 q 272 -210 238 -242 q 335 -108 307 -179 l 375 -7 l 63 744 l 185 744 l 363 307 q 398 211 381 264 q 429 110 415 158 l 433 110 q 465 213 449 161 q 496 308 482 265 l 642 744 l 769 744 l 457 -97 q 399 -224 431 -169 q 319 -310 368 -279 q 189 -340 269 -340 m 360 858 q 405 921 381 885 q 453 995 429 957 q 492 1064 476 1033 l 639 1064 l 639 1050 q 588 985 622 1025 q 513 906 553 946 q 440 842 474 867 l 360 842 l 360 858 z "},"þ":{"ha":833,"x_min":111,"x_max":757,"o":"m 111 -333 l 111 1056 l 235 1056 l 235 765 q 233 704 235 735 q 229 643 232 674 l 235 643 q 320 728 267 697 q 457 758 374 758 q 675 661 593 758 q 757 374 757 564 q 675 85 757 183 q 457 -14 593 -14 q 321 19 375 -14 q 235 96 267 53 l 226 96 q 235 -15 235 42 l 235 -333 l 111 -333 m 431 88 q 582 159 535 88 q 629 376 629 231 q 583 588 629 519 q 429 657 536 657 q 281 591 328 657 q 235 401 235 525 l 235 374 q 277 165 235 242 q 431 88 319 88 z "},"ÿ":{"ha":833,"x_min":63,"x_max":769,"o":"m 189 -340 q 135 -337 161 -340 q 89 -329 108 -333 l 89 -233 q 128 -239 106 -236 q 174 -242 151 -242 q 272 -210 238 -242 q 335 -108 307 -179 l 375 -7 l 63 744 l 185 744 l 363 307 q 398 211 381 264 q 429 110 415 158 l 433 110 q 465 213 449 161 q 496 308 482 265 l 642 744 l 769 744 l 457 -97 q 399 -224 431 -169 q 319 -310 368 -279 q 189 -340 269 -340 m 575 864 q 522 884 544 864 q 500 946 500 904 q 522 1007 500 989 q 575 1025 544 1025 q 628 1007 606 1025 q 651 946 651 989 q 628 884 651 904 q 575 864 606 864 m 257 864 q 204 884 226 864 q 182 946 182 904 q 204 1007 182 989 q 257 1025 226 1025 q 310 1007 288 1025 q 333 946 333 989 q 310 884 333 904 q 257 864 288 864 z "},"Ā":{"ha":833,"x_min":28,"x_max":806,"o":"m 28 0 l 350 996 l 482 996 l 806 0 l 678 0 l 583 304 l 249 304 l 154 0 l 28 0 m 375 711 l 283 415 l 549 415 l 457 711 q 438 778 450 735 q 415 864 425 821 q 394 778 407 821 q 375 711 382 735 m 210 1106 l 210 1204 l 622 1204 l 622 1106 l 210 1106 z "},"ā":{"ha":833,"x_min":97,"x_max":708,"o":"m 342 -14 q 165 40 232 -14 q 97 204 97 94 q 184 385 97 325 q 435 449 271 444 l 594 453 l 594 483 q 544 620 594 583 q 410 657 494 657 q 296 642 350 657 q 193 599 242 626 l 150 693 q 267 739 203 719 q 417 758 332 758 q 633 695 557 758 q 708 499 708 632 l 708 0 l 608 0 l 594 103 l 589 103 q 483 15 543 44 q 342 -14 424 -14 m 363 88 q 478 110 425 88 q 563 180 531 133 q 594 297 594 226 l 594 364 l 461 360 q 272 317 328 356 q 215 208 215 278 q 256 116 215 144 q 363 88 296 88 m 217 858 l 217 957 l 629 957 l 629 858 l 217 858 z "},"Ă":{"ha":833,"x_min":28,"x_max":806,"o":"m 28 0 l 350 996 l 482 996 l 806 0 l 678 0 l 583 304 l 249 304 l 154 0 l 28 0 m 375 711 l 283 415 l 549 415 l 457 711 q 438 778 450 735 q 415 864 425 821 q 394 778 407 821 q 375 711 382 735 m 411 1089 q 258 1142 313 1089 q 200 1275 203 1194 l 281 1275 q 312 1213 290 1233 q 361 1184 333 1192 q 415 1176 389 1176 q 498 1195 458 1176 q 550 1275 538 1214 l 632 1275 q 573 1142 631 1194 q 411 1089 515 1089 z "},"ă":{"ha":833,"x_min":97,"x_max":708,"o":"m 342 -14 q 165 40 232 -14 q 97 204 97 94 q 184 385 97 325 q 435 449 271 444 l 594 453 l 594 483 q 544 620 594 583 q 410 657 494 657 q 296 642 350 657 q 193 599 242 626 l 150 693 q 267 739 203 719 q 417 758 332 758 q 633 695 557 758 q 708 499 708 632 l 708 0 l 608 0 l 594 103 l 589 103 q 483 15 543 44 q 342 -14 424 -14 m 363 88 q 478 110 425 88 q 563 180 531 133 q 594 297 594 226 l 594 364 l 461 360 q 272 317 328 356 q 215 208 215 278 q 256 116 215 144 q 363 88 296 88 m 418 842 q 265 894 319 842 q 207 1028 210 947 l 288 1028 q 319 965 297 986 q 368 937 340 944 q 422 929 396 929 q 505 948 465 929 q 557 1028 544 967 l 639 1028 q 580 894 638 947 q 418 842 522 842 z "},"Ą":{"ha":833,"x_min":28,"x_max":840,"o":"m 28 0 l 350 996 l 482 996 l 806 0 l 678 0 l 583 304 l 249 304 l 154 0 l 28 0 m 375 711 l 283 415 l 549 415 l 457 711 q 438 778 450 735 q 415 864 425 821 q 394 778 407 821 q 375 711 382 735 m 756 -306 q 646 -271 681 -306 q 611 -182 611 -236 q 631 -98 611 -136 q 681 -30 651 -60 q 739 21 711 0 l 806 0 q 735 -81 760 -43 q 711 -160 711 -118 q 729 -209 711 -194 q 782 -224 747 -224 q 813 -222 797 -224 q 840 -215 829 -219 l 840 -293 q 801 -302 821 -299 q 756 -306 781 -306 z "},"ą":{"ha":833,"x_min":97,"x_max":735,"o":"m 342 -14 q 165 40 232 -14 q 97 204 97 94 q 184 385 97 325 q 435 449 271 444 l 594 453 l 594 483 q 544 620 594 583 q 410 657 494 657 q 296 642 350 657 q 193 599 242 626 l 150 693 q 267 739 203 719 q 417 758 332 758 q 633 695 557 758 q 708 499 708 632 l 708 0 l 608 0 l 594 103 l 589 103 q 483 15 543 44 q 342 -14 424 -14 m 363 88 q 478 110 425 88 q 563 180 531 133 q 594 297 594 226 l 594 364 l 461 360 q 272 317 328 356 q 215 208 215 278 q 256 116 215 144 q 363 88 296 88 m 650 -306 q 540 -271 575 -306 q 506 -182 506 -236 q 526 -98 506 -136 q 576 -30 546 -60 q 633 21 606 0 l 700 0 q 630 -81 654 -43 q 606 -160 606 -118 q 624 -209 606 -194 q 676 -224 642 -224 q 708 -222 692 -224 q 735 -215 724 -219 l 735 -293 q 695 -302 715 -299 q 650 -306 675 -306 z "},"Ć":{"ha":833,"x_min":92,"x_max":764,"o":"m 507 -14 q 269 51 361 -14 q 135 231 178 117 q 92 496 92 346 q 141 767 92 653 q 284 944 190 882 q 513 1006 378 1006 q 648 990 585 1006 q 764 947 711 975 l 717 846 q 619 882 674 869 q 513 894 564 894 q 295 792 371 894 q 219 496 219 689 q 288 206 219 311 q 510 101 356 101 q 612 112 557 101 q 721 144 667 122 l 721 26 q 615 -4 665 6 q 507 -14 564 -14 m 442 1106 q 487 1168 463 1132 q 535 1242 511 1204 q 574 1311 558 1281 l 721 1311 l 721 1297 q 669 1233 704 1272 q 595 1153 635 1193 q 522 1089 556 1114 l 442 1089 l 442 1106 z "},"ć":{"ha":833,"x_min":118,"x_max":701,"o":"m 469 -14 q 212 76 306 -14 q 118 367 118 165 q 165 596 118 510 q 294 720 211 682 q 482 758 376 758 q 601 745 547 758 q 701 707 654 732 l 664 606 q 578 640 619 629 q 488 650 536 650 q 303 580 360 650 q 246 369 246 510 q 306 157 246 221 q 483 93 365 93 q 599 106 544 93 q 693 138 653 119 l 693 28 q 590 -3 651 8 q 469 -14 529 -14 m 399 858 q 444 921 419 885 q 492 995 468 957 q 531 1064 515 1033 l 678 1064 l 678 1050 q 626 985 661 1025 q 552 906 592 946 q 479 842 513 867 l 399 842 l 399 858 z "},"Ĉ":{"ha":833,"x_min":92,"x_max":764,"o":"m 507 -14 q 269 51 361 -14 q 135 231 178 117 q 92 496 92 346 q 141 767 92 653 q 284 944 190 882 q 513 1006 378 1006 q 648 990 585 1006 q 764 947 711 975 l 717 846 q 619 882 674 869 q 513 894 564 894 q 295 792 371 894 q 219 496 219 689 q 288 206 219 311 q 510 101 356 101 q 612 112 557 101 q 721 144 667 122 l 721 26 q 615 -4 665 6 q 507 -14 564 -14 m 264 1104 q 323 1168 290 1132 q 386 1242 356 1204 q 435 1311 417 1281 l 560 1311 q 608 1242 576 1281 q 673 1167 639 1204 q 733 1104 707 1131 l 733 1089 l 647 1089 q 572 1149 611 1111 q 496 1224 533 1186 q 421 1149 458 1186 q 347 1089 383 1113 l 264 1089 l 264 1104 z "},"ĉ":{"ha":833,"x_min":118,"x_max":701,"o":"m 469 -14 q 212 76 306 -14 q 118 367 118 165 q 165 596 118 510 q 294 720 211 682 q 482 758 376 758 q 601 745 547 758 q 701 707 654 732 l 664 606 q 578 640 619 629 q 488 650 536 650 q 303 580 360 650 q 246 369 246 510 q 306 157 246 221 q 483 93 365 93 q 599 106 544 93 q 693 138 653 119 l 693 28 q 590 -3 651 8 q 469 -14 529 -14 m 221 857 q 280 921 247 885 q 343 995 313 957 q 392 1064 374 1033 l 517 1064 q 565 995 533 1033 q 630 920 596 957 q 690 857 664 883 l 690 842 l 604 842 q 529 901 568 864 q 453 976 490 939 q 378 902 415 939 q 304 842 340 865 l 221 842 l 221 857 z "},"Ċ":{"ha":833,"x_min":92,"x_max":764,"o":"m 507 -14 q 269 51 361 -14 q 135 231 178 117 q 92 496 92 346 q 141 767 92 653 q 284 944 190 882 q 513 1006 378 1006 q 648 990 585 1006 q 764 947 711 975 l 717 846 q 619 882 674 869 q 513 894 564 894 q 295 792 371 894 q 219 496 219 689 q 288 206 219 311 q 510 101 356 101 q 612 112 557 101 q 721 144 667 122 l 721 26 q 615 -4 665 6 q 507 -14 564 -14 m 497 1126 q 435 1149 461 1126 q 410 1214 410 1171 q 435 1281 410 1260 q 497 1303 461 1303 q 559 1281 533 1303 q 585 1214 585 1260 q 559 1149 585 1171 q 497 1126 533 1126 z "},"ċ":{"ha":833,"x_min":118,"x_max":701,"o":"m 469 -14 q 212 76 306 -14 q 118 367 118 165 q 165 596 118 510 q 294 720 211 682 q 482 758 376 758 q 601 745 547 758 q 701 707 654 732 l 664 606 q 578 640 619 629 q 488 650 536 650 q 303 580 360 650 q 246 369 246 510 q 306 157 246 221 q 483 93 365 93 q 599 106 544 93 q 693 138 653 119 l 693 28 q 590 -3 651 8 q 469 -14 529 -14 m 454 879 q 392 901 418 879 q 367 967 367 924 q 392 1034 367 1013 q 454 1056 418 1056 q 516 1034 490 1056 q 542 967 542 1013 q 516 901 542 924 q 454 879 490 879 z "},"Č":{"ha":833,"x_min":92,"x_max":764,"o":"m 507 -14 q 269 51 361 -14 q 135 231 178 117 q 92 496 92 346 q 141 767 92 653 q 284 944 190 882 q 513 1006 378 1006 q 648 990 585 1006 q 764 947 711 975 l 717 846 q 619 882 674 869 q 513 894 564 894 q 295 792 371 894 q 219 496 219 689 q 288 206 219 311 q 510 101 356 101 q 612 112 557 101 q 721 144 667 122 l 721 26 q 615 -4 665 6 q 507 -14 564 -14 m 435 1089 q 386 1158 417 1121 q 322 1231 356 1194 q 264 1293 289 1267 l 264 1311 l 347 1311 q 422 1254 383 1288 q 496 1183 461 1221 q 572 1254 533 1221 q 647 1311 611 1288 l 733 1311 l 733 1293 q 673 1231 707 1267 q 608 1158 639 1194 q 560 1089 576 1121 l 435 1089 z "},"č":{"ha":833,"x_min":118,"x_max":701,"o":"m 469 -14 q 212 76 306 -14 q 118 367 118 165 q 165 596 118 510 q 294 720 211 682 q 482 758 376 758 q 601 745 547 758 q 701 707 654 732 l 664 606 q 578 640 619 629 q 488 650 536 650 q 303 580 360 650 q 246 369 246 510 q 306 157 246 221 q 483 93 365 93 q 599 106 544 93 q 693 138 653 119 l 693 28 q 590 -3 651 8 q 469 -14 529 -14 m 392 842 q 343 910 374 874 q 279 983 313 947 q 221 1046 246 1019 l 221 1064 l 304 1064 q 379 1007 340 1040 q 453 936 418 974 q 529 1007 490 974 q 604 1064 568 1040 l 690 1064 l 690 1046 q 630 983 664 1019 q 565 910 596 947 q 517 842 533 874 l 392 842 z "},"Ď":{"ha":833,"x_min":97,"x_max":771,"o":"m 97 0 l 97 992 l 338 992 q 567 936 469 992 q 717 773 664 881 q 771 506 771 665 q 649 127 771 254 q 310 0 528 0 l 97 0 m 297 108 q 559 208 475 108 q 643 501 643 308 q 558 791 643 699 q 324 883 472 883 l 222 883 l 222 108 l 297 108 m 321 1089 q 272 1158 303 1121 q 208 1231 242 1194 q 150 1293 175 1267 l 150 1311 l 233 1311 q 308 1254 269 1288 q 382 1183 347 1221 q 458 1254 419 1221 q 533 1311 497 1288 l 619 1311 l 619 1293 q 559 1231 593 1267 q 494 1158 525 1194 q 446 1089 463 1121 l 321 1089 z "},"ď":{"ha":833,"x_min":63,"x_max":892,"o":"m 340 -14 q 138 82 214 -14 q 63 375 63 178 q 135 660 63 561 q 346 758 207 758 q 472 728 428 758 q 543 650 517 697 l 551 650 q 546 703 549 674 q 543 765 543 733 l 543 1056 l 667 1056 l 667 0 l 564 0 l 550 100 l 544 100 q 465 17 514 49 q 340 -14 415 -14 m 725 850 q 744 913 735 876 q 760 988 753 950 q 771 1056 768 1026 l 892 1056 l 892 1044 q 870 981 886 1019 q 833 903 854 943 q 792 833 813 864 l 725 833 l 725 850 m 363 88 q 499 156 454 88 q 543 343 543 225 l 543 371 q 526 516 543 451 q 472 619 510 581 q 368 657 433 657 q 237 585 283 657 q 190 364 190 513 q 363 88 190 88 z "},"Đ":{"ha":833,"x_min":0,"x_max":785,"o":"m 111 0 l 111 436 l 0 436 l 0 544 l 111 544 l 111 992 l 351 992 q 581 936 483 992 q 731 773 678 881 q 785 506 785 665 q 663 127 785 254 q 324 0 542 0 l 111 0 m 311 108 q 573 208 489 108 q 657 501 657 308 q 572 791 657 699 q 338 883 486 883 l 236 883 l 236 544 l 406 544 l 406 436 l 236 436 l 236 108 l 311 108 z "},"đ":{"ha":833,"x_min":76,"x_max":833,"o":"m 381 -14 q 160 81 243 -14 q 76 374 76 176 q 156 654 76 557 q 394 751 235 751 q 522 721 472 751 q 599 643 572 690 l 607 643 q 601 697 604 669 q 599 753 599 725 l 599 839 l 353 839 l 353 931 l 599 931 l 599 1056 l 722 1056 l 722 931 l 833 931 l 833 839 l 722 839 l 722 0 l 619 0 l 606 100 l 600 100 q 517 18 569 50 q 381 -14 465 -14 m 404 88 q 551 156 503 88 q 599 340 599 224 l 599 368 q 581 512 599 449 q 521 613 563 575 q 408 650 479 650 q 258 579 311 650 q 204 361 204 508 q 404 88 204 88 z "},"Ē":{"ha":833,"x_min":132,"x_max":715,"o":"m 132 0 l 132 992 l 715 992 l 715 881 l 257 881 l 257 574 l 689 574 l 689 463 l 257 463 l 257 111 l 715 111 l 715 0 l 132 0 m 218 1106 l 218 1204 l 631 1204 l 631 1106 l 218 1106 z "},"ē":{"ha":833,"x_min":83,"x_max":750,"o":"m 468 -14 q 186 85 289 -14 q 83 369 83 185 q 128 578 83 492 q 251 712 172 665 q 436 758 331 758 q 666 664 582 758 q 750 406 750 569 l 750 349 l 210 349 q 247 194 213 251 q 340 113 281 138 q 476 89 399 89 q 597 106 538 89 q 717 150 657 122 l 717 39 q 589 -1 653 11 q 468 -14 525 -14 m 625 449 q 573 601 621 546 q 436 657 525 657 q 285 601 343 657 q 213 449 228 544 l 625 449 m 215 858 l 215 957 l 628 957 l 628 858 l 215 858 z "},"Ĕ":{"ha":833,"x_min":132,"x_max":715,"o":"m 132 0 l 132 992 l 715 992 l 715 881 l 257 881 l 257 574 l 689 574 l 689 463 l 257 463 l 257 111 l 715 111 l 715 0 l 132 0 m 419 1089 q 266 1142 321 1089 q 208 1275 211 1194 l 289 1275 q 320 1213 299 1233 q 369 1184 342 1192 q 424 1176 397 1176 q 506 1195 467 1176 q 558 1275 546 1214 l 640 1275 q 581 1142 639 1194 q 419 1089 524 1089 z "},"ĕ":{"ha":833,"x_min":83,"x_max":750,"o":"m 468 -14 q 186 85 289 -14 q 83 369 83 185 q 128 578 83 492 q 251 712 172 665 q 436 758 331 758 q 666 664 582 758 q 750 406 750 569 l 750 349 l 210 349 q 247 194 213 251 q 340 113 281 138 q 476 89 399 89 q 597 106 538 89 q 717 150 657 122 l 717 39 q 589 -1 653 11 q 468 -14 525 -14 m 625 449 q 573 601 621 546 q 436 657 525 657 q 285 601 343 657 q 213 449 228 544 l 625 449 m 417 842 q 263 894 318 842 q 206 1028 208 947 l 286 1028 q 317 965 296 986 q 367 937 339 944 q 421 929 394 929 q 503 948 464 929 q 556 1028 543 967 l 638 1028 q 578 894 636 947 q 417 842 521 842 z "},"Ė":{"ha":833,"x_min":132,"x_max":715,"o":"m 132 0 l 132 992 l 715 992 l 715 881 l 257 881 l 257 574 l 689 574 l 689 463 l 257 463 l 257 111 l 715 111 l 715 0 l 132 0 m 424 1126 q 362 1149 388 1126 q 336 1214 336 1171 q 362 1281 336 1260 q 424 1303 388 1303 q 485 1281 460 1303 q 511 1214 511 1260 q 485 1149 511 1171 q 424 1126 460 1126 z "},"ė":{"ha":833,"x_min":83,"x_max":750,"o":"m 468 -14 q 186 85 289 -14 q 83 369 83 185 q 128 578 83 492 q 251 712 172 665 q 436 758 331 758 q 666 664 582 758 q 750 406 750 569 l 750 349 l 210 349 q 247 194 213 251 q 340 113 281 138 q 476 89 399 89 q 597 106 538 89 q 717 150 657 122 l 717 39 q 589 -1 653 11 q 468 -14 525 -14 m 625 449 q 573 601 621 546 q 436 657 525 657 q 285 601 343 657 q 213 449 228 544 l 625 449 m 421 879 q 359 901 385 879 q 333 967 333 924 q 359 1034 333 1013 q 421 1056 385 1056 q 483 1034 457 1056 q 508 967 508 1013 q 483 901 508 924 q 421 879 457 879 z "},"Ę":{"ha":833,"x_min":132,"x_max":715,"o":"m 132 0 l 132 992 l 715 992 l 715 881 l 257 881 l 257 574 l 689 574 l 689 463 l 257 463 l 257 111 l 715 111 l 715 0 l 132 0 m 590 -306 q 481 -271 515 -306 q 446 -182 446 -236 q 466 -98 446 -136 q 516 -30 486 -60 q 574 21 546 0 l 640 0 q 570 -81 594 -43 q 546 -160 546 -118 q 564 -209 546 -194 q 617 -224 582 -224 q 648 -222 632 -224 q 675 -215 664 -219 l 675 -293 q 635 -302 656 -299 q 590 -306 615 -306 z "},"ę":{"ha":833,"x_min":83,"x_max":750,"o":"m 468 -14 q 186 85 289 -14 q 83 369 83 185 q 128 578 83 492 q 251 712 172 665 q 436 758 331 758 q 666 664 582 758 q 750 406 750 569 l 750 349 l 210 349 q 247 194 213 251 q 340 113 281 138 q 476 89 399 89 q 597 106 538 89 q 717 150 657 122 l 717 39 q 617 -49 660 -4 q 575 -153 575 -94 q 647 -224 575 -224 q 676 -222 660 -224 q 704 -215 693 -219 l 704 -293 q 665 -302 685 -299 q 621 -306 644 -306 q 510 -267 544 -306 q 475 -172 475 -228 q 502 -78 475 -119 q 568 -6 529 -36 q 468 -14 518 -14 m 625 449 q 573 601 621 546 q 436 657 525 657 q 285 601 343 657 q 213 449 228 544 l 625 449 z "},"Ě":{"ha":833,"x_min":132,"x_max":715,"o":"m 132 0 l 132 992 l 715 992 l 715 881 l 257 881 l 257 574 l 689 574 l 689 463 l 257 463 l 257 111 l 715 111 l 715 0 l 132 0 m 361 1089 q 313 1158 343 1121 q 249 1231 282 1194 q 190 1293 215 1267 l 190 1311 l 274 1311 q 349 1254 310 1288 q 422 1183 388 1221 q 499 1254 460 1221 q 574 1311 538 1288 l 660 1311 l 660 1293 q 599 1231 633 1267 q 534 1158 565 1194 q 486 1089 503 1121 l 361 1089 z "},"ě":{"ha":833,"x_min":83,"x_max":750,"o":"m 468 -14 q 186 85 289 -14 q 83 369 83 185 q 128 578 83 492 q 251 712 172 665 q 436 758 331 758 q 666 664 582 758 q 750 406 750 569 l 750 349 l 210 349 q 247 194 213 251 q 340 113 281 138 q 476 89 399 89 q 597 106 538 89 q 717 150 657 122 l 717 39 q 589 -1 653 11 q 468 -14 525 -14 m 625 449 q 573 601 621 546 q 436 657 525 657 q 285 601 343 657 q 213 449 228 544 l 625 449 m 358 842 q 310 910 340 874 q 246 983 279 947 q 188 1046 213 1019 l 188 1064 l 271 1064 q 346 1007 307 1040 q 419 936 385 974 q 496 1007 457 974 q 571 1064 535 1040 l 657 1064 l 657 1046 q 597 983 631 1019 q 531 910 563 947 q 483 842 500 874 l 358 842 z "},"Ĝ":{"ha":833,"x_min":63,"x_max":736,"o":"m 472 -14 q 166 113 269 -14 q 63 481 63 239 q 171 867 63 729 q 489 1006 279 1006 q 617 990 560 1006 q 725 947 674 975 l 681 843 q 599 879 646 865 q 492 893 551 893 q 265 787 340 893 q 190 486 190 681 q 217 287 190 375 q 308 148 244 199 q 478 97 371 97 q 556 104 522 97 q 615 118 589 111 l 615 413 l 435 413 l 435 524 l 736 524 l 736 38 q 617 1 685 17 q 472 -14 550 -14 m 213 1104 q 272 1168 239 1132 q 335 1242 304 1204 q 383 1311 365 1281 l 508 1311 q 556 1242 525 1281 q 622 1167 588 1204 q 682 1104 656 1131 l 682 1089 l 596 1089 q 521 1149 560 1111 q 444 1224 482 1186 q 369 1149 407 1186 q 296 1089 332 1113 l 213 1089 l 213 1104 z "},"ĝ":{"ha":833,"x_min":76,"x_max":722,"o":"m 383 -340 q 240 -326 307 -340 q 115 -287 172 -311 l 115 -176 q 244 -224 171 -208 q 379 -240 317 -240 q 556 -181 506 -240 q 606 -19 606 -122 l 606 7 q 606 39 606 24 q 610 86 607 54 l 604 86 q 513 8 565 29 q 388 -14 461 -14 q 158 87 240 -14 q 76 368 76 188 q 158 654 76 550 q 381 758 239 758 q 507 734 456 758 q 599 653 558 710 l 606 653 l 622 744 l 722 744 l 722 -19 q 640 -260 722 -179 q 383 -340 558 -340 m 411 88 q 557 148 504 88 q 610 342 610 208 l 610 371 q 556 590 610 524 q 407 657 501 657 q 253 583 301 657 q 204 372 204 508 q 255 160 204 233 q 411 88 306 88 m 182 857 q 241 921 208 885 q 304 995 274 957 q 353 1064 335 1033 l 478 1064 q 526 995 494 1033 q 591 920 557 957 q 651 857 625 883 l 651 842 l 565 842 q 490 901 529 864 q 414 976 451 939 q 339 902 376 939 q 265 842 301 865 l 182 842 l 182 857 z "},"Ğ":{"ha":833,"x_min":63,"x_max":736,"o":"m 472 -14 q 166 113 269 -14 q 63 481 63 239 q 171 867 63 729 q 489 1006 279 1006 q 617 990 560 1006 q 725 947 674 975 l 681 843 q 599 879 646 865 q 492 893 551 893 q 265 787 340 893 q 190 486 190 681 q 217 287 190 375 q 308 148 244 199 q 478 97 371 97 q 556 104 522 97 q 615 118 589 111 l 615 413 l 435 413 l 435 524 l 736 524 l 736 38 q 617 1 685 17 q 472 -14 550 -14 m 442 1089 q 288 1142 343 1089 q 231 1275 233 1194 l 311 1275 q 342 1213 321 1233 q 392 1184 364 1192 q 446 1176 419 1176 q 528 1195 489 1176 q 581 1275 568 1214 l 663 1275 q 603 1142 661 1194 q 442 1089 546 1089 z "},"ğ":{"ha":833,"x_min":76,"x_max":722,"o":"m 383 -340 q 240 -326 307 -340 q 115 -287 172 -311 l 115 -176 q 244 -224 171 -208 q 379 -240 317 -240 q 556 -181 506 -240 q 606 -19 606 -122 l 606 7 q 606 39 606 24 q 610 86 607 54 l 604 86 q 513 8 565 29 q 388 -14 461 -14 q 158 87 240 -14 q 76 368 76 188 q 158 654 76 550 q 381 758 239 758 q 507 734 456 758 q 599 653 558 710 l 606 653 l 622 744 l 722 744 l 722 -19 q 640 -260 722 -179 q 383 -340 558 -340 m 411 88 q 557 148 504 88 q 610 342 610 208 l 610 371 q 556 590 610 524 q 407 657 501 657 q 253 583 301 657 q 204 372 204 508 q 255 160 204 233 q 411 88 306 88 m 411 842 q 258 894 313 842 q 200 1028 203 947 l 281 1028 q 312 965 290 986 q 361 937 333 944 q 415 929 389 929 q 498 948 458 929 q 550 1028 538 967 l 632 1028 q 573 894 631 947 q 411 842 515 842 z "},"Ġ":{"ha":833,"x_min":63,"x_max":736,"o":"m 472 -14 q 166 113 269 -14 q 63 481 63 239 q 171 867 63 729 q 489 1006 279 1006 q 617 990 560 1006 q 725 947 674 975 l 681 843 q 599 879 646 865 q 492 893 551 893 q 265 787 340 893 q 190 486 190 681 q 217 287 190 375 q 308 148 244 199 q 478 97 371 97 q 556 104 522 97 q 615 118 589 111 l 615 413 l 435 413 l 435 524 l 736 524 l 736 38 q 617 1 685 17 q 472 -14 550 -14 m 446 1126 q 384 1149 410 1126 q 358 1214 358 1171 q 384 1281 358 1260 q 446 1303 410 1303 q 508 1281 482 1303 q 533 1214 533 1260 q 508 1149 533 1171 q 446 1126 482 1126 z "},"ġ":{"ha":833,"x_min":76,"x_max":722,"o":"m 383 -340 q 240 -326 307 -340 q 115 -287 172 -311 l 115 -176 q 244 -224 171 -208 q 379 -240 317 -240 q 556 -181 506 -240 q 606 -19 606 -122 l 606 7 q 606 39 606 24 q 610 86 607 54 l 604 86 q 513 8 565 29 q 388 -14 461 -14 q 158 87 240 -14 q 76 368 76 188 q 158 654 76 550 q 381 758 239 758 q 507 734 456 758 q 599 653 558 710 l 606 653 l 622 744 l 722 744 l 722 -19 q 640 -260 722 -179 q 383 -340 558 -340 m 411 88 q 557 148 504 88 q 610 342 610 208 l 610 371 q 556 590 610 524 q 407 657 501 657 q 253 583 301 657 q 204 372 204 508 q 255 160 204 233 q 411 88 306 88 m 415 879 q 353 901 379 879 q 328 967 328 924 q 353 1034 328 1013 q 415 1056 379 1056 q 477 1034 451 1056 q 503 967 503 1013 q 477 901 503 924 q 415 879 451 879 z "},"Ģ":{"ha":833,"x_min":63,"x_max":736,"o":"m 472 -14 q 166 113 269 -14 q 63 481 63 239 q 171 867 63 729 q 489 1006 279 1006 q 617 990 560 1006 q 725 947 674 975 l 681 843 q 599 879 646 865 q 492 893 551 893 q 265 787 340 893 q 190 486 190 681 q 217 287 190 375 q 308 148 244 199 q 478 97 371 97 q 556 104 522 97 q 615 118 589 111 l 615 413 l 435 413 l 435 524 l 736 524 l 736 38 q 617 1 685 17 q 472 -14 550 -14 m 353 -290 q 376 -230 364 -267 q 397 -153 388 -193 q 410 -85 407 -114 l 531 -85 l 531 -94 q 508 -158 525 -119 q 467 -237 490 -197 q 419 -307 444 -276 l 353 -307 l 353 -290 z "},"ģ":{"ha":833,"x_min":76,"x_max":722,"o":"m 326 853 q 350 916 333 878 q 390 994 367 954 q 438 1064 413 1033 l 506 1064 l 506 1047 q 483 987 494 1024 q 461 911 471 950 q 447 842 451 872 l 326 842 l 326 853 m 383 -340 q 240 -326 307 -340 q 115 -287 172 -311 l 115 -176 q 244 -224 171 -208 q 379 -240 317 -240 q 556 -181 506 -240 q 606 -19 606 -122 l 606 7 q 606 39 606 24 q 610 86 607 54 l 604 86 q 513 8 565 29 q 388 -14 461 -14 q 158 87 240 -14 q 76 368 76 188 q 158 654 76 550 q 381 758 239 758 q 507 734 456 758 q 599 653 558 710 l 606 653 l 622 744 l 722 744 l 722 -19 q 640 -260 722 -179 q 383 -340 558 -340 m 411 88 q 557 148 504 88 q 610 342 610 208 l 610 371 q 556 590 610 524 q 407 657 501 657 q 253 583 301 657 q 204 372 204 508 q 255 160 204 233 q 411 88 306 88 z "},"Ĥ":{"ha":833,"x_min":97,"x_max":736,"o":"m 97 0 l 97 992 l 222 992 l 222 574 l 611 574 l 611 992 l 736 992 l 736 0 l 611 0 l 611 463 l 222 463 l 222 0 l 97 0 m 182 1104 q 241 1168 208 1132 q 304 1242 274 1204 q 353 1311 335 1281 l 478 1311 q 526 1242 494 1281 q 591 1167 557 1204 q 651 1104 625 1131 l 651 1089 l 565 1089 q 490 1149 529 1111 q 414 1224 451 1186 q 339 1149 376 1186 q 265 1089 301 1113 l 182 1089 l 182 1104 z "},"ĥ":{"ha":833,"x_min":-60,"x_max":729,"o":"m 111 0 l 111 1056 l 236 1056 l 236 756 q 234 689 236 729 q 231 625 232 649 l 238 625 q 334 726 274 694 q 471 758 394 758 q 658 694 586 758 q 729 486 729 629 l 729 0 l 604 0 l 604 461 q 561 610 604 563 q 439 657 518 657 q 291 585 346 657 q 236 386 236 514 l 236 0 l 111 0 m -60 1168 q -1 1232 -33 1196 q 63 1306 32 1268 q 111 1375 93 1344 l 236 1375 q 284 1306 253 1344 q 349 1231 315 1268 q 410 1168 383 1194 l 410 1153 l 324 1153 q 249 1213 288 1175 q 172 1288 210 1250 q 97 1213 135 1250 q 24 1153 60 1176 l -60 1153 l -60 1168 z "},"Ħ":{"ha":833,"x_min":0,"x_max":833,"o":"m 97 0 l 97 726 l 0 726 l 0 826 l 97 826 l 97 992 l 222 992 l 222 826 l 611 826 l 611 992 l 736 992 l 736 826 l 833 826 l 833 726 l 736 726 l 736 0 l 611 0 l 611 463 l 222 463 l 222 0 l 97 0 m 222 574 l 611 574 l 611 726 l 222 726 l 222 574 z "},"ħ":{"ha":833,"x_min":0,"x_max":729,"o":"m 111 0 l 111 839 l 0 839 l 0 931 l 111 931 l 111 1056 l 236 1056 l 236 931 l 481 931 l 481 839 l 236 839 l 236 756 q 234 689 236 729 q 231 625 232 649 l 238 625 q 334 726 274 694 q 471 758 394 758 q 658 694 586 758 q 729 486 729 629 l 729 0 l 604 0 l 604 461 q 561 610 604 563 q 439 657 518 657 q 291 585 346 657 q 236 386 236 514 l 236 0 l 111 0 z "},"Ĩ":{"ha":833,"x_min":153,"x_max":681,"o":"m 153 0 l 153 86 l 353 104 l 353 888 l 153 906 l 153 992 l 681 992 l 681 906 l 478 888 l 478 104 l 681 86 l 681 0 l 153 0 m 167 1089 q 215 1219 175 1171 q 319 1267 254 1267 q 393 1247 358 1267 q 460 1207 428 1226 q 521 1188 492 1188 q 570 1208 553 1188 q 597 1268 588 1228 l 667 1268 q 619 1139 658 1188 q 515 1090 581 1090 q 442 1110 476 1090 q 377 1149 408 1129 q 314 1169 346 1169 q 264 1149 281 1169 q 238 1089 247 1129 l 167 1089 z "},"ĩ":{"ha":833,"x_min":111,"x_max":750,"o":"m 111 0 l 111 83 l 376 104 l 376 640 l 133 658 l 133 744 l 501 744 l 501 104 l 750 83 l 750 0 l 111 0 m 167 842 q 215 972 175 924 q 319 1019 254 1019 q 393 999 358 1019 q 460 960 428 979 q 521 940 492 940 q 570 960 553 940 q 597 1021 588 981 l 667 1021 q 619 892 658 940 q 515 843 581 843 q 442 863 476 843 q 377 902 408 882 q 314 922 346 922 q 264 902 281 922 q 238 842 247 882 l 167 842 z "},"Ī":{"ha":833,"x_min":153,"x_max":681,"o":"m 153 0 l 153 86 l 353 104 l 353 888 l 153 906 l 153 992 l 681 992 l 681 906 l 478 888 l 478 104 l 681 86 l 681 0 l 153 0 m 210 1106 l 210 1204 l 622 1204 l 622 1106 l 210 1106 z "},"ī":{"ha":833,"x_min":111,"x_max":750,"o":"m 111 0 l 111 83 l 376 104 l 376 640 l 133 658 l 133 744 l 501 744 l 501 104 l 750 83 l 750 0 l 111 0 m 210 858 l 210 957 l 622 957 l 622 858 l 210 858 z "},"Ĭ":{"ha":833,"x_min":153,"x_max":681,"o":"m 153 0 l 153 86 l 353 104 l 353 888 l 153 906 l 153 992 l 681 992 l 681 906 l 478 888 l 478 104 l 681 86 l 681 0 l 153 0 m 411 1089 q 258 1142 313 1089 q 200 1275 203 1194 l 281 1275 q 312 1213 290 1233 q 361 1184 333 1192 q 415 1176 389 1176 q 498 1195 458 1176 q 550 1275 538 1214 l 632 1275 q 573 1142 631 1194 q 411 1089 515 1089 z "},"ĭ":{"ha":833,"x_min":111,"x_max":750,"o":"m 111 0 l 111 83 l 376 104 l 376 640 l 133 658 l 133 744 l 501 744 l 501 104 l 750 83 l 750 0 l 111 0 m 411 842 q 258 894 313 842 q 200 1028 203 947 l 281 1028 q 312 965 290 986 q 361 937 333 944 q 415 929 389 929 q 498 948 458 929 q 550 1028 538 967 l 632 1028 q 573 894 631 947 q 411 842 515 842 z "},"Į":{"ha":833,"x_min":153,"x_max":681,"o":"m 153 0 l 153 86 l 353 104 l 353 888 l 153 906 l 153 992 l 681 992 l 681 906 l 478 888 l 478 104 l 681 86 l 681 0 l 153 0 m 565 -306 q 456 -271 490 -306 q 421 -182 421 -236 q 441 -98 421 -136 q 491 -30 461 -60 q 549 21 521 0 l 615 0 q 545 -81 569 -43 q 521 -160 521 -118 q 539 -209 521 -194 q 592 -224 557 -224 q 623 -222 607 -224 q 650 -215 639 -219 l 650 -293 q 610 -302 631 -299 q 565 -306 590 -306 z "},"į":{"ha":833,"x_min":111,"x_max":750,"o":"m 426 879 q 365 901 390 879 q 339 967 339 924 q 365 1034 339 1013 q 426 1056 390 1056 q 488 1034 463 1056 q 514 967 514 1013 q 488 901 514 924 q 426 879 463 879 m 111 0 l 111 83 l 376 104 l 376 640 l 133 658 l 133 744 l 501 744 l 501 104 l 750 83 l 750 0 l 111 0 m 590 -306 q 481 -271 515 -306 q 446 -182 446 -236 q 466 -98 446 -136 q 516 -30 486 -60 q 574 21 546 0 l 640 0 q 570 -81 594 -43 q 546 -160 546 -118 q 564 -209 546 -194 q 617 -224 582 -224 q 648 -222 632 -224 q 675 -215 664 -219 l 675 -293 q 635 -302 656 -299 q 590 -306 615 -306 z "},"İ":{"ha":833,"x_min":153,"x_max":681,"o":"m 153 0 l 153 86 l 353 104 l 353 888 l 153 906 l 153 992 l 681 992 l 681 906 l 478 888 l 478 104 l 681 86 l 681 0 l 153 0 m 415 1126 q 353 1149 379 1126 q 328 1214 328 1171 q 353 1281 328 1260 q 415 1303 379 1303 q 477 1281 451 1303 q 503 1214 503 1260 q 477 1149 503 1171 q 415 1126 451 1126 z "},"Ĳ":{"ha":833,"x_min":139,"x_max":694,"o":"m 375 -14 q 289 -9 335 -14 q 203 6 243 -4 q 142 26 164 15 l 142 144 q 197 126 161 136 q 278 108 233 115 q 365 101 324 101 q 513 151 456 101 q 569 318 569 200 l 569 992 l 694 992 l 694 301 q 613 68 694 150 q 375 -14 531 -14 m 139 278 l 139 992 l 264 992 l 264 278 l 139 278 z "},"ĳ":{"ha":833,"x_min":139,"x_max":694,"o":"m 226 879 q 165 901 190 879 q 139 968 139 924 q 164 1034 139 1013 q 226 1056 189 1056 q 288 1034 263 1056 q 314 968 314 1013 q 288 901 314 922 q 226 879 261 879 m 607 879 q 546 901 571 879 q 521 968 521 924 q 545 1034 521 1013 q 607 1056 569 1056 q 669 1034 643 1056 q 694 968 694 1013 q 668 901 694 922 q 607 879 642 879 m 376 -340 q 275 -333 331 -340 q 181 -317 219 -326 l 181 -207 q 270 -228 221 -219 q 364 -236 319 -236 q 508 -190 464 -236 q 551 -51 551 -144 l 551 744 l 676 744 l 676 -72 q 599 -271 676 -201 q 376 -340 521 -340 m 163 0 l 163 744 l 288 744 l 288 0 l 163 0 z "},"Ĵ":{"ha":833,"x_min":139,"x_max":818,"o":"m 350 -14 q 238 -3 297 -14 q 139 26 178 8 l 139 144 q 228 116 171 131 q 340 101 285 101 q 472 151 422 101 q 521 318 521 200 l 521 992 l 646 992 l 646 301 q 571 68 646 150 q 350 -14 496 -14 m 349 1104 q 408 1168 375 1132 q 471 1242 440 1204 q 519 1311 501 1281 l 644 1311 q 692 1242 661 1281 q 758 1167 724 1204 q 818 1104 792 1131 l 818 1089 l 732 1089 q 657 1149 696 1111 q 581 1224 618 1186 q 506 1149 543 1186 q 432 1089 468 1113 l 349 1089 l 349 1104 z "},"ĵ":{"ha":833,"x_min":83,"x_max":707,"o":"m 267 -340 q 172 -333 224 -340 q 83 -317 119 -326 l 83 -207 q 165 -228 119 -219 q 253 -236 211 -236 q 386 -190 346 -236 q 426 -51 426 -144 l 426 640 l 183 658 l 183 744 l 551 744 l 551 -72 q 477 -271 551 -201 q 267 -340 403 -340 m 238 857 q 297 921 264 885 q 360 995 329 957 q 408 1064 390 1033 l 533 1064 q 581 995 550 1033 q 647 920 613 957 q 707 857 681 883 l 707 842 l 621 842 q 546 901 585 864 q 469 976 507 939 q 394 902 432 939 q 321 842 357 865 l 238 842 l 238 857 z "},"Ķ":{"ha":833,"x_min":97,"x_max":764,"o":"m 97 0 l 97 992 l 222 992 l 222 458 q 271 535 246 496 q 325 613 296 574 l 608 992 l 751 992 l 419 543 l 764 0 l 621 0 l 335 458 l 222 329 l 222 0 l 97 0 m 315 -290 q 338 -230 326 -267 q 360 -153 350 -193 q 372 -85 369 -114 l 493 -85 l 493 -94 q 470 -158 488 -119 q 430 -237 453 -197 q 382 -307 407 -276 l 315 -307 l 315 -290 z "},"ķ":{"ha":833,"x_min":146,"x_max":792,"o":"m 146 0 l 146 1056 l 271 1056 l 271 547 q 267 445 271 504 q 261 338 264 386 l 264 338 q 315 401 290 372 q 365 460 339 429 l 622 744 l 772 744 l 476 424 l 792 0 l 647 0 l 393 350 l 271 232 l 271 0 l 146 0 m 356 -290 q 378 -230 367 -267 q 400 -153 390 -193 q 413 -85 410 -114 l 533 -85 l 533 -94 q 510 -158 528 -119 q 470 -237 493 -197 q 422 -307 447 -276 l 356 -307 l 356 -290 z "},"ĸ":{"ha":833,"x_min":146,"x_max":792,"o":"m 146 0 l 146 744 l 271 744 l 271 547 q 267 445 271 504 q 261 338 264 386 l 264 338 q 314 401 290 372 q 365 460 338 429 l 622 744 l 772 744 l 476 424 l 792 0 l 647 0 l 393 350 l 271 232 l 271 0 l 146 0 z "},"Ĺ":{"ha":833,"x_min":160,"x_max":715,"o":"m 160 0 l 160 992 l 285 992 l 285 115 l 715 115 l 715 0 l 160 0 m 167 1106 q 212 1168 188 1132 q 260 1242 236 1204 q 299 1311 283 1281 l 446 1311 l 446 1297 q 394 1233 429 1272 q 320 1153 360 1193 q 247 1089 281 1114 l 167 1089 l 167 1106 z "},"ĺ":{"ha":833,"x_min":111,"x_max":750,"o":"m 111 0 l 111 83 l 383 104 l 383 951 l 119 969 l 119 1056 l 508 1056 l 508 104 l 750 83 l 750 0 l 111 0 m 360 1169 q 405 1232 381 1196 q 453 1306 429 1268 q 492 1375 476 1344 l 639 1375 l 639 1361 q 588 1297 622 1336 q 513 1217 553 1257 q 440 1153 474 1178 l 360 1153 l 360 1169 z "},"Ļ":{"ha":833,"x_min":160,"x_max":715,"o":"m 160 0 l 160 992 l 285 992 l 285 115 l 715 115 l 715 0 l 160 0 m 343 -290 q 366 -230 354 -267 q 388 -153 378 -193 q 400 -85 397 -114 l 521 -85 l 521 -94 q 498 -158 515 -119 q 458 -237 481 -197 q 410 -307 435 -276 l 343 -307 l 343 -290 z "},"ļ":{"ha":833,"x_min":111,"x_max":750,"o":"m 111 0 l 111 83 l 383 104 l 383 951 l 119 969 l 119 1056 l 508 1056 l 508 104 l 750 83 l 750 0 l 111 0 m 332 -290 q 355 -230 343 -267 q 376 -153 367 -193 q 389 -85 386 -114 l 510 -85 l 510 -94 q 487 -158 504 -119 q 447 -237 469 -197 q 399 -307 424 -276 l 332 -307 l 332 -290 z "},"Ľ":{"ha":833,"x_min":160,"x_max":715,"o":"m 533 786 q 552 849 543 813 q 569 924 561 886 q 579 992 576 963 l 700 992 l 700 981 q 678 917 694 956 q 642 840 663 879 q 600 769 621 800 l 533 769 l 533 786 m 160 0 l 160 992 l 285 992 l 285 115 l 715 115 l 715 0 l 160 0 z "},"ľ":{"ha":833,"x_min":111,"x_max":782,"o":"m 615 850 q 634 913 625 876 q 651 988 643 950 q 661 1056 658 1026 l 782 1056 l 782 1044 q 760 981 776 1019 q 724 903 744 943 q 682 833 703 864 l 615 833 l 615 850 m 111 0 l 111 83 l 383 104 l 383 951 l 119 969 l 119 1056 l 508 1056 l 508 104 l 750 83 l 750 0 l 111 0 z "},"Ŀ":{"ha":833,"x_min":160,"x_max":715,"o":"m 160 0 l 160 992 l 285 992 l 285 115 l 715 115 l 715 0 l 160 0 m 629 422 q 568 444 593 422 q 543 517 543 467 q 568 590 543 569 q 629 611 593 611 q 690 590 665 611 q 715 517 715 569 q 690 444 715 467 q 629 422 665 422 z "},"ŀ":{"ha":833,"x_min":111,"x_max":919,"o":"m 833 476 q 772 499 797 476 q 747 571 747 521 q 772 644 747 624 q 833 665 797 665 q 894 644 869 665 q 919 571 919 624 q 894 499 919 521 q 833 476 869 476 m 111 0 l 111 83 l 383 104 l 383 951 l 119 969 l 119 1056 l 508 1056 l 508 104 l 750 83 l 750 0 l 111 0 z "},"Ł":{"ha":833,"x_min":75,"x_max":771,"o":"m 215 0 l 215 349 l 124 296 l 75 379 l 215 463 l 215 992 l 340 992 l 340 536 l 507 635 l 557 547 l 340 422 l 340 115 l 771 115 l 771 0 l 215 0 z "},"ł":{"ha":833,"x_min":111,"x_max":750,"o":"m 111 0 l 111 83 l 383 104 l 383 411 l 250 329 l 200 411 l 383 525 l 383 951 l 119 969 l 119 1056 l 508 1056 l 508 603 l 628 676 l 679 594 l 508 489 l 508 104 l 750 83 l 750 0 l 111 0 z "},"Ń":{"ha":833,"x_min":97,"x_max":736,"o":"m 97 0 l 97 992 l 263 992 l 624 165 l 628 165 q 618 315 621 247 q 615 467 615 382 l 615 992 l 736 992 l 736 0 l 585 0 l 206 864 l 200 864 q 213 708 207 786 q 218 553 218 631 l 218 0 l 97 0 m 367 1106 q 412 1168 388 1132 q 460 1242 436 1204 q 499 1311 483 1281 l 646 1311 l 646 1297 q 594 1233 629 1272 q 520 1153 560 1193 q 447 1089 481 1114 l 367 1089 l 367 1106 z "},"ń":{"ha":833,"x_min":111,"x_max":729,"o":"m 111 0 l 111 744 l 211 744 l 229 635 l 236 635 q 331 728 268 699 q 479 758 394 758 q 660 695 592 758 q 729 497 729 632 l 729 0 l 604 0 l 604 475 q 566 613 604 569 q 443 657 528 657 q 283 585 329 657 q 236 382 236 513 l 236 0 l 111 0 m 376 858 q 422 921 397 885 q 469 995 446 957 q 508 1064 493 1033 l 656 1064 l 656 1050 q 604 985 639 1025 q 530 906 569 946 q 457 842 490 867 l 376 842 l 376 858 z "},"Ņ":{"ha":833,"x_min":97,"x_max":736,"o":"m 97 0 l 97 992 l 263 992 l 624 165 l 628 165 q 618 315 621 247 q 615 467 615 382 l 615 992 l 736 992 l 736 0 l 585 0 l 206 864 l 200 864 q 213 708 207 786 q 218 553 218 631 l 218 0 l 97 0 m 301 -290 q 324 -230 313 -267 q 346 -153 336 -193 q 358 -85 356 -114 l 479 -85 l 479 -94 q 456 -158 474 -119 q 416 -237 439 -197 q 368 -307 393 -276 l 301 -307 l 301 -290 z "},"ņ":{"ha":833,"x_min":111,"x_max":729,"o":"m 111 0 l 111 744 l 211 744 l 229 635 l 236 635 q 331 728 268 699 q 479 758 394 758 q 660 695 592 758 q 729 497 729 632 l 729 0 l 604 0 l 604 475 q 566 613 604 569 q 443 657 528 657 q 283 585 329 657 q 236 382 236 513 l 236 0 l 111 0 m 310 -290 q 333 -230 321 -267 q 354 -153 344 -193 q 367 -85 364 -114 l 488 -85 l 488 -94 q 465 -158 482 -119 q 424 -237 447 -197 q 376 -307 401 -276 l 310 -307 l 310 -290 z "},"Ň":{"ha":833,"x_min":97,"x_max":736,"o":"m 97 0 l 97 992 l 263 992 l 624 165 l 628 165 q 618 315 621 247 q 615 467 615 382 l 615 992 l 736 992 l 736 0 l 585 0 l 206 864 l 200 864 q 213 708 207 786 q 218 553 218 631 l 218 0 l 97 0 m 360 1089 q 311 1158 342 1121 q 247 1231 281 1194 q 189 1293 214 1267 l 189 1311 l 272 1311 q 347 1254 308 1288 q 421 1183 386 1221 q 497 1254 458 1221 q 572 1311 536 1288 l 658 1311 l 658 1293 q 598 1231 632 1267 q 533 1158 564 1194 q 485 1089 501 1121 l 360 1089 z "},"ň":{"ha":833,"x_min":111,"x_max":729,"o":"m 111 0 l 111 744 l 211 744 l 229 635 l 236 635 q 331 728 268 699 q 479 758 394 758 q 660 695 592 758 q 729 497 729 632 l 729 0 l 604 0 l 604 475 q 566 613 604 569 q 443 657 528 657 q 283 585 329 657 q 236 382 236 513 l 236 0 l 111 0 m 369 842 q 321 910 351 874 q 257 983 290 947 q 199 1046 224 1019 l 199 1064 l 282 1064 q 357 1007 318 1040 q 431 936 396 974 q 507 1007 468 974 q 582 1064 546 1040 l 668 1064 l 668 1046 q 608 983 642 1019 q 542 910 574 947 q 494 842 511 874 l 369 842 z "},"ŉ":{"ha":833,"x_min":-69,"x_max":729,"o":"m -69 651 q -31 826 -50 733 q -1 992 -11 919 l 142 992 l 151 976 q 100 815 133 903 q 32 651 67 728 l -69 651 m 132 0 l 132 744 l 232 744 l 250 635 l 257 635 q 348 728 289 699 q 486 758 407 758 q 663 695 596 758 q 729 497 729 632 l 729 0 l 604 0 l 604 475 q 564 613 604 569 q 450 657 524 657 q 302 585 347 657 q 257 382 257 513 l 257 0 l 132 0 z "},"Ŋ":{"ha":833,"x_min":97,"x_max":736,"o":"m 97 0 l 97 992 l 263 992 l 624 165 l 628 165 q 618 315 621 247 q 615 467 615 382 l 615 992 l 736 992 l 736 0 l 736 0 q 663 -200 733 -136 q 475 -264 593 -264 q 415 -259 440 -264 q 369 -246 389 -254 l 369 -140 q 469 -154 418 -154 q 542 -141 508 -154 q 598 -94 576 -128 q 619 0 619 -60 l 585 0 l 206 864 l 200 864 q 213 708 207 786 q 218 553 218 631 l 218 0 l 97 0 z "},"ŋ":{"ha":833,"x_min":111,"x_max":729,"o":"m 111 0 l 111 744 l 211 744 l 229 635 l 236 635 q 331 728 268 699 q 479 758 394 758 q 660 695 592 758 q 729 497 729 632 l 729 -111 q 680 -274 729 -215 q 528 -333 631 -333 q 471 -328 494 -333 q 429 -317 447 -324 l 429 -218 q 468 -228 449 -224 q 513 -232 488 -232 q 578 -208 553 -232 q 604 -115 604 -183 l 604 475 q 566 613 604 569 q 443 657 528 657 q 283 585 329 657 q 236 382 236 513 l 236 0 l 111 0 z "},"Ō":{"ha":833,"x_min":63,"x_max":771,"o":"m 415 -14 q 214 50 292 -14 q 99 229 136 114 q 63 496 63 344 q 99 764 63 649 q 215 944 136 879 q 417 1008 293 1008 q 619 944 540 1008 q 734 766 697 881 q 771 499 771 651 q 733 229 771 344 q 617 50 696 114 q 415 -14 539 -14 m 418 97 q 593 203 543 97 q 643 497 643 310 q 593 792 643 686 q 419 897 543 897 q 242 790 293 897 q 190 497 190 683 q 242 203 190 310 q 418 97 293 97 m 210 1106 l 210 1204 l 622 1204 l 622 1106 l 210 1106 z "},"ō":{"ha":833,"x_min":76,"x_max":757,"o":"m 418 -14 q 244 28 321 -14 q 122 158 167 71 q 76 375 76 244 q 120 589 76 504 q 240 716 164 674 q 414 758 317 758 q 589 716 511 758 q 712 588 667 674 q 757 371 757 503 q 713 156 757 242 q 592 28 668 71 q 418 -14 515 -14 m 417 88 q 578 165 525 88 q 631 374 631 242 q 577 581 631 506 q 415 657 524 657 q 253 581 307 657 q 200 374 200 506 q 254 165 200 242 q 417 88 308 88 m 210 858 l 210 957 l 622 957 l 622 858 l 210 858 z "},"Ŏ":{"ha":833,"x_min":63,"x_max":771,"o":"m 415 -14 q 214 50 292 -14 q 99 229 136 114 q 63 496 63 344 q 99 764 63 649 q 215 944 136 879 q 417 1008 293 1008 q 619 944 540 1008 q 734 766 697 881 q 771 499 771 651 q 733 229 771 344 q 617 50 696 114 q 415 -14 539 -14 m 418 97 q 593 203 543 97 q 643 497 643 310 q 593 792 643 686 q 419 897 543 897 q 242 790 293 897 q 190 497 190 683 q 242 203 190 310 q 418 97 293 97 m 411 1089 q 258 1142 313 1089 q 200 1275 203 1194 l 281 1275 q 312 1213 290 1233 q 361 1184 333 1192 q 415 1176 389 1176 q 498 1195 458 1176 q 550 1275 538 1214 l 632 1275 q 573 1142 631 1194 q 411 1089 515 1089 z "},"ŏ":{"ha":833,"x_min":76,"x_max":757,"o":"m 418 -14 q 244 28 321 -14 q 122 158 167 71 q 76 375 76 244 q 120 589 76 504 q 240 716 164 674 q 414 758 317 758 q 589 716 511 758 q 712 588 667 674 q 757 371 757 503 q 713 156 757 242 q 592 28 668 71 q 418 -14 515 -14 m 417 88 q 578 165 525 88 q 631 374 631 242 q 577 581 631 506 q 415 657 524 657 q 253 581 307 657 q 200 374 200 506 q 254 165 200 242 q 417 88 308 88 m 411 842 q 258 894 313 842 q 200 1028 203 947 l 281 1028 q 312 965 290 986 q 361 937 333 944 q 415 929 389 929 q 498 948 458 929 q 550 1028 538 967 l 632 1028 q 573 894 631 947 q 411 842 515 842 z "},"Ő":{"ha":833,"x_min":63,"x_max":771,"o":"m 415 -14 q 214 50 292 -14 q 99 229 136 114 q 63 496 63 344 q 99 764 63 649 q 215 944 136 879 q 417 1008 293 1008 q 619 944 540 1008 q 734 766 697 881 q 771 499 771 651 q 733 229 771 344 q 617 50 696 114 q 415 -14 539 -14 m 418 97 q 593 203 543 97 q 643 497 643 310 q 593 792 643 686 q 419 897 543 897 q 242 790 293 897 q 190 497 190 683 q 242 203 190 310 q 418 97 293 97 m 439 1106 q 481 1168 458 1132 q 524 1242 503 1204 q 560 1311 546 1281 l 693 1311 l 693 1297 q 647 1233 679 1274 q 578 1153 615 1193 q 508 1089 540 1114 l 439 1089 l 439 1106 m 194 1106 q 258 1205 224 1146 q 315 1311 293 1264 l 449 1311 l 449 1297 q 403 1233 435 1274 q 333 1153 371 1193 q 264 1089 296 1114 l 194 1089 l 194 1106 z "},"ő":{"ha":833,"x_min":76,"x_max":757,"o":"m 418 -14 q 244 28 321 -14 q 122 158 167 71 q 76 375 76 244 q 120 589 76 504 q 240 716 164 674 q 414 758 317 758 q 589 716 511 758 q 712 588 667 674 q 757 371 757 503 q 713 156 757 242 q 592 28 668 71 q 418 -14 515 -14 m 417 88 q 578 165 525 88 q 631 374 631 242 q 577 581 631 506 q 415 657 524 657 q 253 581 307 657 q 200 374 200 506 q 254 165 200 242 q 417 88 308 88 m 439 858 q 481 921 458 885 q 524 995 503 957 q 560 1064 546 1033 l 693 1064 l 693 1050 q 647 986 679 1026 q 578 906 615 946 q 508 842 540 867 l 439 842 l 439 858 m 194 858 q 258 958 224 899 q 315 1064 293 1017 l 449 1064 l 449 1050 q 403 986 435 1026 q 333 906 371 946 q 264 842 296 867 l 194 842 l 194 858 z "},"Œ":{"ha":833,"x_min":56,"x_max":792,"o":"m 333 -14 q 174 50 235 -14 q 84 229 113 114 q 56 499 56 344 q 85 767 56 653 q 181 943 115 881 q 350 1006 246 1006 q 454 992 408 1006 l 792 992 l 792 881 l 551 881 l 551 574 l 765 574 l 765 464 l 551 464 l 551 111 l 792 111 l 792 0 l 432 0 q 385 -10 410 -6 q 333 -14 360 -14 m 340 97 q 431 119 390 97 l 431 874 q 342 896 390 896 q 220 790 257 896 q 183 497 183 683 q 220 204 183 311 q 340 97 257 97 z "},"œ":{"ha":833,"x_min":31,"x_max":806,"o":"m 264 -14 q 91 90 151 -14 q 31 379 31 193 q 90 661 31 563 q 263 760 149 760 q 370 726 329 760 q 439 626 411 692 q 608 758 493 758 q 722 715 678 758 q 785 596 765 671 q 806 429 806 521 l 806 351 l 494 351 q 529 147 497 214 q 636 81 561 81 q 778 131 697 81 l 778 33 q 625 -14 701 -14 q 516 18 561 -14 q 440 121 471 50 q 371 20 414 54 q 264 -14 328 -14 m 701 440 q 692 553 701 503 q 661 635 682 604 q 604 665 640 665 q 528 608 557 665 q 496 440 499 551 l 701 440 m 269 83 q 358 153 331 83 q 385 371 385 224 q 358 588 385 515 q 267 661 331 661 q 172 588 201 661 q 142 375 142 515 q 269 83 142 83 z "},"Ŕ":{"ha":833,"x_min":132,"x_max":790,"o":"m 132 0 l 132 992 l 364 992 q 713 714 713 992 q 688 583 713 636 q 620 495 663 529 q 525 442 578 461 l 790 0 l 651 0 l 413 406 l 257 406 l 257 0 l 132 0 m 360 514 q 533 562 482 514 q 583 703 583 610 q 530 842 583 801 q 357 883 476 883 l 257 883 l 257 514 l 360 514 m 360 1106 q 405 1168 381 1132 q 453 1242 429 1204 q 492 1311 476 1281 l 639 1311 l 639 1297 q 588 1233 622 1272 q 513 1153 553 1193 q 440 1089 474 1114 l 360 1089 l 360 1106 z "},"ŕ":{"ha":833,"x_min":86,"x_max":794,"o":"m 86 0 l 86 83 l 313 104 l 313 640 l 108 658 l 108 744 l 413 744 l 429 608 l 435 608 q 520 720 474 682 q 643 758 567 758 q 727 750 690 758 q 794 728 764 742 l 761 618 q 708 640 739 631 q 643 649 678 649 q 538 611 583 649 q 465 511 492 574 q 439 374 439 449 l 439 104 l 656 83 l 656 0 l 86 0 m 415 858 q 460 921 436 885 q 508 995 485 957 q 547 1064 532 1033 l 694 1064 l 694 1050 q 643 985 678 1025 q 569 906 608 946 q 496 842 529 867 l 415 842 l 415 858 z "},"Ŗ":{"ha":833,"x_min":132,"x_max":790,"o":"m 132 0 l 132 992 l 364 992 q 713 714 713 992 q 688 583 713 636 q 620 495 663 529 q 525 442 578 461 l 790 0 l 651 0 l 413 406 l 257 406 l 257 0 l 132 0 m 360 514 q 533 562 482 514 q 583 703 583 610 q 530 842 583 801 q 357 883 476 883 l 257 883 l 257 514 l 360 514 m 343 -290 q 366 -230 354 -267 q 388 -153 378 -193 q 400 -85 397 -114 l 521 -85 l 521 -94 q 498 -158 515 -119 q 458 -237 481 -197 q 410 -307 435 -276 l 343 -307 l 343 -290 z "},"ŗ":{"ha":833,"x_min":86,"x_max":794,"o":"m 86 0 l 86 83 l 313 104 l 313 640 l 108 658 l 108 744 l 413 744 l 429 608 l 435 608 q 520 720 474 682 q 643 758 567 758 q 727 750 690 758 q 794 728 764 742 l 761 618 q 708 640 739 631 q 643 649 678 649 q 538 611 583 649 q 465 511 492 574 q 439 374 439 449 l 439 104 l 656 83 l 656 0 l 86 0 m 261 -290 q 284 -230 272 -267 q 306 -153 296 -193 q 318 -85 315 -114 l 439 -85 l 439 -94 q 416 -158 433 -119 q 376 -237 399 -197 q 328 -307 353 -276 l 261 -307 l 261 -290 z "},"Ř":{"ha":833,"x_min":132,"x_max":790,"o":"m 132 0 l 132 992 l 364 992 q 713 714 713 992 q 688 583 713 636 q 620 495 663 529 q 525 442 578 461 l 790 0 l 651 0 l 413 406 l 257 406 l 257 0 l 132 0 m 360 514 q 533 562 482 514 q 583 703 583 610 q 530 842 583 801 q 357 883 476 883 l 257 883 l 257 514 l 360 514 m 353 1089 q 304 1158 335 1121 q 240 1231 274 1194 q 182 1293 207 1267 l 182 1311 l 265 1311 q 340 1254 301 1288 q 414 1183 379 1221 q 490 1254 451 1221 q 565 1311 529 1288 l 651 1311 l 651 1293 q 591 1231 625 1267 q 526 1158 557 1194 q 478 1089 494 1121 l 353 1089 z "},"ř":{"ha":833,"x_min":86,"x_max":794,"o":"m 86 0 l 86 83 l 313 104 l 313 640 l 108 658 l 108 744 l 413 744 l 429 608 l 435 608 q 520 720 474 682 q 643 758 567 758 q 727 750 690 758 q 794 728 764 742 l 761 618 q 708 640 739 631 q 643 649 678 649 q 538 611 583 649 q 465 511 492 574 q 439 374 439 449 l 439 104 l 656 83 l 656 0 l 86 0 m 408 842 q 360 910 390 874 q 296 983 329 947 q 238 1046 263 1019 l 238 1064 l 321 1064 q 396 1007 357 1040 q 469 936 435 974 q 546 1007 507 974 q 621 1064 585 1040 l 707 1064 l 707 1046 q 647 983 681 1019 q 581 910 613 947 q 533 842 550 874 l 408 842 z "},"Ś":{"ha":833,"x_min":118,"x_max":735,"o":"m 390 -14 q 237 1 311 -14 q 118 38 163 15 l 118 153 q 243 112 169 131 q 393 93 317 93 q 607 267 607 93 q 588 342 607 314 q 519 395 568 369 q 381 460 469 421 q 267 518 322 486 q 176 603 211 550 q 140 742 140 656 q 225 938 140 869 q 457 1006 310 1006 q 599 990 532 1006 q 715 950 665 974 l 675 846 q 569 881 628 868 q 454 894 511 894 q 321 860 374 894 q 268 739 268 825 q 288 660 268 690 q 353 606 308 629 q 467 553 397 583 q 606 485 546 519 q 701 401 667 451 q 735 265 735 351 q 648 60 735 133 q 390 -14 561 -14 m 386 1106 q 431 1168 407 1132 q 479 1242 456 1204 q 518 1311 503 1281 l 665 1311 l 665 1297 q 614 1233 649 1272 q 540 1153 579 1193 q 467 1089 500 1114 l 386 1089 l 386 1106 z "},"ś":{"ha":833,"x_min":146,"x_max":688,"o":"m 388 -14 q 255 -1 318 -14 q 146 33 192 11 l 146 149 q 253 108 194 126 q 394 89 313 89 q 524 117 486 89 q 563 200 563 146 q 549 248 563 229 q 499 286 536 267 q 389 336 461 306 q 265 396 317 368 q 186 462 214 424 q 158 560 158 500 q 234 708 158 658 q 444 758 310 758 q 561 747 506 758 q 676 711 617 736 l 639 614 q 537 646 583 638 q 444 654 490 654 q 319 632 358 654 q 279 563 279 610 q 297 511 279 532 q 353 471 314 490 q 458 424 393 451 q 583 367 532 393 q 661 303 635 340 q 688 203 688 267 q 612 42 688 97 q 388 -14 536 -14 m 367 858 q 412 921 388 885 q 460 995 436 957 q 499 1064 483 1033 l 646 1064 l 646 1050 q 594 985 629 1025 q 520 906 560 946 q 447 842 481 867 l 367 842 l 367 858 z "},"Ŝ":{"ha":833,"x_min":118,"x_max":735,"o":"m 390 -14 q 237 1 311 -14 q 118 38 163 15 l 118 153 q 243 112 169 131 q 393 93 317 93 q 607 267 607 93 q 588 342 607 314 q 519 395 568 369 q 381 460 469 421 q 267 518 322 486 q 176 603 211 550 q 140 742 140 656 q 225 938 140 869 q 457 1006 310 1006 q 599 990 532 1006 q 715 950 665 974 l 675 846 q 569 881 628 868 q 454 894 511 894 q 321 860 374 894 q 268 739 268 825 q 288 660 268 690 q 353 606 308 629 q 467 553 397 583 q 606 485 546 519 q 701 401 667 451 q 735 265 735 351 q 648 60 735 133 q 390 -14 561 -14 m 208 1104 q 267 1168 235 1132 q 331 1242 300 1204 q 379 1311 361 1281 l 504 1311 q 552 1242 521 1281 q 617 1167 583 1204 q 678 1104 651 1131 l 678 1089 l 592 1089 q 517 1149 556 1111 q 440 1224 478 1186 q 365 1149 403 1186 q 292 1089 328 1113 l 208 1089 l 208 1104 z "},"ŝ":{"ha":833,"x_min":146,"x_max":688,"o":"m 388 -14 q 255 -1 318 -14 q 146 33 192 11 l 146 149 q 253 108 194 126 q 394 89 313 89 q 524 117 486 89 q 563 200 563 146 q 549 248 563 229 q 499 286 536 267 q 389 336 461 306 q 265 396 317 368 q 186 462 214 424 q 158 560 158 500 q 234 708 158 658 q 444 758 310 758 q 561 747 506 758 q 676 711 617 736 l 639 614 q 537 646 583 638 q 444 654 490 654 q 319 632 358 654 q 279 563 279 610 q 297 511 279 532 q 353 471 314 490 q 458 424 393 451 q 583 367 532 393 q 661 303 635 340 q 688 203 688 267 q 612 42 688 97 q 388 -14 536 -14 m 189 857 q 248 921 215 885 q 311 995 281 957 q 360 1064 342 1033 l 485 1064 q 533 995 501 1033 q 598 920 564 957 q 658 857 632 883 l 658 842 l 572 842 q 497 901 536 864 q 421 976 458 939 q 346 902 383 939 q 272 842 308 865 l 189 842 l 189 857 z "},"Ş":{"ha":833,"x_min":118,"x_max":735,"o":"m 390 -14 q 237 1 311 -14 q 118 38 163 15 l 118 153 q 243 112 169 131 q 393 93 317 93 q 607 267 607 93 q 588 342 607 314 q 519 395 568 369 q 381 460 469 421 q 267 518 322 486 q 176 603 211 550 q 140 742 140 656 q 225 938 140 869 q 457 1006 310 1006 q 599 990 532 1006 q 715 950 665 974 l 675 846 q 569 881 628 868 q 454 894 511 894 q 321 860 374 894 q 268 739 268 825 q 288 660 268 690 q 353 606 308 629 q 467 553 397 583 q 606 485 546 519 q 701 401 667 451 q 735 265 735 351 q 648 60 735 133 q 390 -14 561 -14 m 343 -333 q 272 -326 297 -333 l 272 -250 q 306 -255 285 -253 q 346 -257 326 -257 q 422 -244 394 -257 q 449 -197 449 -231 q 416 -144 449 -161 q 322 -119 383 -128 l 382 7 l 463 7 l 426 -74 q 512 -112 476 -85 q 547 -196 547 -139 q 496 -297 547 -260 q 343 -333 444 -333 z "},"ş":{"ha":833,"x_min":146,"x_max":688,"o":"m 388 -14 q 255 -1 318 -14 q 146 33 192 11 l 146 149 q 253 108 194 126 q 394 89 313 89 q 524 117 486 89 q 563 200 563 146 q 549 248 563 229 q 499 286 536 267 q 389 336 461 306 q 265 396 317 368 q 186 462 214 424 q 158 560 158 500 q 234 708 158 658 q 444 758 310 758 q 561 747 506 758 q 676 711 617 736 l 639 614 q 537 646 583 638 q 444 654 490 654 q 319 632 358 654 q 279 563 279 610 q 297 511 279 532 q 353 471 314 490 q 458 424 393 451 q 583 367 532 393 q 661 303 635 340 q 688 203 688 267 q 612 42 688 97 q 388 -14 536 -14 m 350 -333 q 279 -326 304 -333 l 279 -250 q 313 -255 292 -253 q 353 -257 333 -257 q 428 -244 401 -257 q 456 -197 456 -231 q 423 -144 456 -161 q 329 -119 390 -128 l 389 7 l 469 7 l 433 -74 q 519 -112 483 -85 q 554 -196 554 -139 q 503 -297 554 -260 q 350 -333 451 -333 z "},"Š":{"ha":833,"x_min":118,"x_max":735,"o":"m 390 -14 q 237 1 311 -14 q 118 38 163 15 l 118 153 q 243 112 169 131 q 393 93 317 93 q 607 267 607 93 q 588 342 607 314 q 519 395 568 369 q 381 460 469 421 q 267 518 322 486 q 176 603 211 550 q 140 742 140 656 q 225 938 140 869 q 457 1006 310 1006 q 599 990 532 1006 q 715 950 665 974 l 675 846 q 569 881 628 868 q 454 894 511 894 q 321 860 374 894 q 268 739 268 825 q 288 660 268 690 q 353 606 308 629 q 467 553 397 583 q 606 485 546 519 q 701 401 667 451 q 735 265 735 351 q 648 60 735 133 q 390 -14 561 -14 m 379 1089 q 331 1158 361 1121 q 267 1231 300 1194 q 208 1293 233 1267 l 208 1311 l 292 1311 q 367 1254 328 1288 q 440 1183 406 1221 q 517 1254 478 1221 q 592 1311 556 1288 l 678 1311 l 678 1293 q 617 1231 651 1267 q 552 1158 583 1194 q 504 1089 521 1121 l 379 1089 z "},"š":{"ha":833,"x_min":146,"x_max":688,"o":"m 388 -14 q 255 -1 318 -14 q 146 33 192 11 l 146 149 q 253 108 194 126 q 394 89 313 89 q 524 117 486 89 q 563 200 563 146 q 549 248 563 229 q 499 286 536 267 q 389 336 461 306 q 265 396 317 368 q 186 462 214 424 q 158 560 158 500 q 234 708 158 658 q 444 758 310 758 q 561 747 506 758 q 676 711 617 736 l 639 614 q 537 646 583 638 q 444 654 490 654 q 319 632 358 654 q 279 563 279 610 q 297 511 279 532 q 353 471 314 490 q 458 424 393 451 q 583 367 532 393 q 661 303 635 340 q 688 203 688 267 q 612 42 688 97 q 388 -14 536 -14 m 360 842 q 311 910 342 874 q 247 983 281 947 q 189 1046 214 1019 l 189 1064 l 272 1064 q 347 1007 308 1040 q 421 936 386 974 q 497 1007 458 974 q 572 1064 536 1040 l 658 1064 l 658 1046 q 598 983 632 1019 q 533 910 564 947 q 485 842 501 874 l 360 842 z "},"Ț":{"ha":833,"x_min":63,"x_max":771,"o":"m 354 0 l 354 881 l 63 881 l 63 992 l 771 992 l 771 881 l 479 881 l 479 0 l 354 0 m 301 -290 q 324 -230 313 -267 q 346 -153 336 -193 q 358 -85 356 -114 l 479 -85 l 479 -94 q 456 -158 474 -119 q 416 -237 439 -197 q 368 -307 393 -276 l 301 -307 l 301 -290 z "},"ț":{"ha":833,"x_min":78,"x_max":717,"o":"m 558 -14 q 417 7 479 -14 q 317 81 354 28 q 281 226 281 133 l 281 640 l 78 640 l 78 726 l 281 749 l 306 943 l 406 943 l 406 744 l 696 744 l 696 640 l 406 640 l 406 250 q 443 126 406 165 q 567 88 481 88 q 644 94 603 88 q 717 108 686 101 l 717 8 q 643 -7 683 0 q 558 -14 603 -14 m 404 -290 q 427 -230 415 -267 q 449 -153 439 -193 q 461 -85 458 -114 l 582 -85 l 582 -94 q 559 -158 576 -119 q 519 -237 542 -197 q 471 -307 496 -276 l 404 -307 l 404 -290 z "},"Ť":{"ha":833,"x_min":63,"x_max":771,"o":"m 354 0 l 354 881 l 63 881 l 63 992 l 771 992 l 771 881 l 479 881 l 479 0 l 354 0 m 353 1089 q 304 1158 335 1121 q 240 1231 274 1194 q 182 1293 207 1267 l 182 1311 l 265 1311 q 340 1254 301 1288 q 414 1183 379 1221 q 490 1254 451 1221 q 565 1311 529 1288 l 651 1311 l 651 1293 q 591 1231 625 1267 q 526 1158 557 1194 q 478 1089 494 1121 l 353 1089 z "},"ť":{"ha":833,"x_min":78,"x_max":717,"o":"m 544 865 q 563 928 554 892 q 580 1003 572 965 q 590 1071 588 1042 l 711 1071 l 711 1060 q 690 997 706 1035 q 653 919 674 958 q 611 849 632 879 l 544 849 l 544 865 m 558 -14 q 417 7 479 -14 q 317 81 354 28 q 281 226 281 133 l 281 640 l 78 640 l 78 726 l 281 749 l 306 943 l 406 943 l 406 744 l 696 744 l 696 640 l 406 640 l 406 250 q 443 126 406 165 q 567 88 481 88 q 644 94 603 88 q 717 108 686 101 l 717 8 q 643 -7 683 0 q 558 -14 603 -14 z "},"Ŧ":{"ha":833,"x_min":63,"x_max":771,"o":"m 354 0 l 354 451 l 149 451 l 149 554 l 354 554 l 354 881 l 63 881 l 63 992 l 771 992 l 771 881 l 479 881 l 479 554 l 686 554 l 686 451 l 479 451 l 479 0 l 354 0 z "},"ŧ":{"ha":833,"x_min":78,"x_max":717,"o":"m 78 389 l 78 481 l 281 481 l 281 640 l 78 640 l 78 726 l 281 749 l 306 943 l 406 943 l 406 744 l 696 744 l 696 640 l 406 640 l 406 481 l 717 481 l 717 389 l 406 389 l 406 250 q 443 126 406 165 q 567 88 481 88 q 644 94 603 88 q 717 108 686 101 l 717 8 q 643 -7 683 0 q 558 -14 603 -14 q 417 7 479 -14 q 317 81 354 28 q 281 226 281 133 l 281 389 l 78 389 z "},"Ũ":{"ha":833,"x_min":97,"x_max":736,"o":"m 414 -14 q 230 31 300 -14 q 128 159 160 76 q 97 353 97 242 l 97 992 l 222 992 l 222 360 q 240 222 222 282 q 299 130 257 163 q 417 97 342 97 q 538 132 496 97 q 596 227 581 167 q 611 361 611 288 l 611 992 l 736 992 l 736 350 q 706 165 736 247 q 604 34 675 82 q 414 -14 533 -14 m 167 1089 q 215 1219 175 1171 q 319 1267 254 1267 q 393 1247 358 1267 q 460 1207 428 1226 q 521 1188 492 1188 q 570 1208 553 1188 q 597 1268 588 1228 l 667 1268 q 619 1139 658 1188 q 515 1090 581 1090 q 442 1110 476 1090 q 377 1149 408 1129 q 314 1169 346 1169 q 264 1149 281 1169 q 238 1089 247 1129 l 167 1089 z "},"ũ":{"ha":833,"x_min":104,"x_max":722,"o":"m 363 -14 q 167 52 231 -14 q 104 249 104 118 l 104 744 l 229 744 l 229 268 q 266 133 229 179 q 393 88 303 88 q 553 160 508 88 q 597 361 597 232 l 597 744 l 722 744 l 722 0 l 622 0 l 604 100 l 597 100 q 499 12 558 38 q 363 -14 440 -14 m 167 842 q 215 972 175 924 q 319 1019 254 1019 q 393 999 358 1019 q 460 960 428 979 q 521 940 492 940 q 570 960 553 940 q 597 1021 588 981 l 667 1021 q 619 892 658 940 q 515 843 581 843 q 442 863 476 843 q 377 902 408 882 q 314 922 346 922 q 264 902 281 922 q 238 842 247 882 l 167 842 z "},"Ū":{"ha":833,"x_min":97,"x_max":736,"o":"m 414 -14 q 230 31 300 -14 q 128 159 160 76 q 97 353 97 242 l 97 992 l 222 992 l 222 360 q 240 222 222 282 q 299 130 257 163 q 417 97 342 97 q 538 132 496 97 q 596 227 581 167 q 611 361 611 288 l 611 992 l 736 992 l 736 350 q 706 165 736 247 q 604 34 675 82 q 414 -14 533 -14 m 210 1106 l 210 1204 l 622 1204 l 622 1106 l 210 1106 z "},"ū":{"ha":833,"x_min":104,"x_max":722,"o":"m 363 -14 q 167 52 231 -14 q 104 249 104 118 l 104 744 l 229 744 l 229 268 q 266 133 229 179 q 393 88 303 88 q 553 160 508 88 q 597 361 597 232 l 597 744 l 722 744 l 722 0 l 622 0 l 604 100 l 597 100 q 499 12 558 38 q 363 -14 440 -14 m 210 858 l 210 957 l 622 957 l 622 858 l 210 858 z "},"Ŭ":{"ha":833,"x_min":97,"x_max":736,"o":"m 414 -14 q 230 31 300 -14 q 128 159 160 76 q 97 353 97 242 l 97 992 l 222 992 l 222 360 q 240 222 222 282 q 299 130 257 163 q 417 97 342 97 q 538 132 496 97 q 596 227 581 167 q 611 361 611 288 l 611 992 l 736 992 l 736 350 q 706 165 736 247 q 604 34 675 82 q 414 -14 533 -14 m 411 1089 q 258 1142 313 1089 q 200 1275 203 1194 l 281 1275 q 312 1213 290 1233 q 361 1184 333 1192 q 415 1176 389 1176 q 498 1195 458 1176 q 550 1275 538 1214 l 632 1275 q 573 1142 631 1194 q 411 1089 515 1089 z "},"ŭ":{"ha":833,"x_min":104,"x_max":722,"o":"m 363 -14 q 167 52 231 -14 q 104 249 104 118 l 104 744 l 229 744 l 229 268 q 266 133 229 179 q 393 88 303 88 q 553 160 508 88 q 597 361 597 232 l 597 744 l 722 744 l 722 0 l 622 0 l 604 100 l 597 100 q 499 12 558 38 q 363 -14 440 -14 m 411 842 q 258 894 313 842 q 200 1028 203 947 l 281 1028 q 312 965 290 986 q 361 937 333 944 q 415 929 389 929 q 498 948 458 929 q 550 1028 538 967 l 632 1028 q 573 894 631 947 q 411 842 515 842 z "},"Ů":{"ha":833,"x_min":97,"x_max":736,"o":"m 414 -14 q 230 31 300 -14 q 128 159 160 76 q 97 353 97 242 l 97 992 l 222 992 l 222 360 q 240 222 222 282 q 299 130 257 163 q 417 97 342 97 q 538 132 496 97 q 596 227 581 167 q 611 361 611 288 l 611 992 l 736 992 l 736 350 q 706 165 736 247 q 604 34 675 82 q 414 -14 533 -14 m 415 1089 q 306 1128 347 1089 q 264 1236 264 1167 q 306 1344 264 1306 q 415 1382 347 1382 q 525 1344 481 1382 q 569 1238 569 1306 q 526 1128 569 1167 q 415 1089 482 1089 m 415 1161 q 469 1181 449 1161 q 490 1236 490 1201 q 469 1292 490 1272 q 415 1311 447 1311 q 363 1292 385 1311 q 342 1236 342 1272 q 363 1181 342 1201 q 415 1161 383 1161 z "},"ů":{"ha":833,"x_min":104,"x_max":722,"o":"m 363 -14 q 167 52 231 -14 q 104 249 104 118 l 104 744 l 229 744 l 229 268 q 266 133 229 179 q 393 88 303 88 q 553 160 508 88 q 597 361 597 232 l 597 744 l 722 744 l 722 0 l 622 0 l 604 100 l 597 100 q 499 12 558 38 q 363 -14 440 -14 m 415 842 q 306 881 347 842 q 264 989 264 919 q 306 1097 264 1058 q 415 1135 347 1135 q 525 1097 481 1135 q 569 990 569 1058 q 526 881 569 919 q 415 842 482 842 m 415 914 q 469 934 449 914 q 490 989 490 954 q 469 1044 490 1025 q 415 1064 447 1064 q 363 1044 385 1064 q 342 989 342 1025 q 363 934 342 954 q 415 914 383 914 z "},"Ű":{"ha":833,"x_min":97,"x_max":736,"o":"m 414 -14 q 230 31 300 -14 q 128 159 160 76 q 97 353 97 242 l 97 992 l 222 992 l 222 360 q 240 222 222 282 q 299 130 257 163 q 417 97 342 97 q 538 132 496 97 q 596 227 581 167 q 611 361 611 288 l 611 992 l 736 992 l 736 350 q 706 165 736 247 q 604 34 675 82 q 414 -14 533 -14 m 439 1106 q 481 1168 458 1132 q 524 1242 503 1204 q 560 1311 546 1281 l 693 1311 l 693 1297 q 647 1233 679 1274 q 578 1153 615 1193 q 508 1089 540 1114 l 439 1089 l 439 1106 m 194 1106 q 258 1205 224 1146 q 315 1311 293 1264 l 449 1311 l 449 1297 q 403 1233 435 1274 q 333 1153 371 1193 q 264 1089 296 1114 l 194 1089 l 194 1106 z "},"ű":{"ha":833,"x_min":104,"x_max":722,"o":"m 363 -14 q 167 52 231 -14 q 104 249 104 118 l 104 744 l 229 744 l 229 268 q 266 133 229 179 q 393 88 303 88 q 553 160 508 88 q 597 361 597 232 l 597 744 l 722 744 l 722 0 l 622 0 l 604 100 l 597 100 q 499 12 558 38 q 363 -14 440 -14 m 439 858 q 481 921 458 885 q 524 995 503 957 q 560 1064 546 1033 l 693 1064 l 693 1050 q 647 986 679 1026 q 578 906 615 946 q 508 842 540 867 l 439 842 l 439 858 m 194 858 q 258 958 224 899 q 315 1064 293 1017 l 449 1064 l 449 1050 q 403 986 435 1026 q 333 906 371 946 q 264 842 296 867 l 194 842 l 194 858 z "},"Ų":{"ha":833,"x_min":97,"x_max":736,"o":"m 414 -14 q 230 31 300 -14 q 128 159 160 76 q 97 353 97 242 l 97 992 l 222 992 l 222 360 q 240 222 222 282 q 299 130 257 163 q 417 97 342 97 q 538 132 496 97 q 596 227 581 167 q 611 361 611 288 l 611 992 l 736 992 l 736 350 q 699 148 736 236 q 574 18 663 60 q 463 -66 501 -25 q 424 -157 424 -107 q 494 -224 424 -224 q 526 -222 510 -224 q 553 -215 542 -219 l 553 -293 q 513 -302 533 -299 q 468 -306 493 -306 q 358 -267 393 -306 q 324 -168 324 -228 q 351 -81 324 -119 q 418 -14 379 -43 l 414 -14 z "},"ų":{"ha":833,"x_min":104,"x_max":750,"o":"m 363 -14 q 167 52 231 -14 q 104 249 104 118 l 104 744 l 229 744 l 229 268 q 266 133 229 179 q 393 88 303 88 q 553 160 508 88 q 597 361 597 232 l 597 744 l 722 744 l 722 0 l 622 0 l 604 100 l 597 100 q 499 12 558 38 q 363 -14 440 -14 m 665 -306 q 556 -271 590 -306 q 521 -182 521 -236 q 541 -98 521 -136 q 591 -30 561 -60 q 649 21 621 0 l 715 0 q 645 -81 669 -43 q 621 -160 621 -118 q 639 -209 621 -194 q 692 -224 657 -224 q 723 -222 707 -224 q 750 -215 739 -219 l 750 -293 q 710 -302 731 -299 q 665 -306 690 -306 z "},"Ŵ":{"ha":833,"x_min":35,"x_max":799,"o":"m 146 0 l 35 992 l 150 992 q 172 773 161 882 q 192 554 182 664 q 202 439 197 501 q 211 317 207 376 q 218 209 215 257 q 221 136 221 161 l 224 136 q 240 219 229 168 q 262 324 250 269 q 283 422 274 379 l 358 744 l 478 744 l 556 419 q 580 318 568 372 q 602 216 592 264 q 617 136 613 168 l 619 136 q 624 235 621 169 q 633 385 628 300 q 646 558 639 469 q 665 775 656 667 q 683 992 674 883 l 799 992 l 699 0 l 564 0 l 454 456 q 431 563 440 518 q 419 625 422 608 l 417 625 q 408 564 415 608 q 385 456 400 519 l 279 0 l 146 0 m 182 1104 q 241 1168 208 1132 q 304 1242 274 1204 q 353 1311 335 1281 l 478 1311 q 526 1242 494 1281 q 591 1167 557 1204 q 651 1104 625 1131 l 651 1089 l 565 1089 q 490 1149 529 1111 q 414 1224 451 1186 q 339 1149 376 1186 q 265 1089 301 1113 l 182 1089 l 182 1104 z "},"ŵ":{"ha":833,"x_min":22,"x_max":813,"o":"m 142 0 l 22 744 l 139 744 l 193 376 q 205 285 201 325 q 212 203 208 244 q 218 104 215 161 l 222 104 q 234 170 226 128 q 252 262 242 213 q 275 353 263 311 l 347 604 l 485 604 l 554 353 q 578 263 567 311 q 598 173 589 215 q 610 104 607 131 l 614 104 q 621 201 618 160 q 628 282 624 242 q 640 376 632 322 l 699 744 l 813 744 l 690 0 l 540 0 l 474 261 q 444 375 460 318 q 418 488 429 432 l 414 488 q 387 375 403 432 q 356 261 371 318 l 288 0 l 142 0 m 183 857 q 242 921 210 885 q 306 995 275 957 q 354 1064 336 1033 l 479 1064 q 527 995 496 1033 q 592 920 558 957 q 653 857 626 883 l 653 842 l 567 842 q 492 901 531 864 q 415 976 453 939 q 340 902 378 939 q 267 842 303 865 l 183 842 l 183 857 z "},"Ŷ":{"ha":833,"x_min":49,"x_max":785,"o":"m 357 0 l 357 386 l 49 992 l 186 992 l 418 490 l 651 992 l 785 992 l 476 386 l 476 0 l 357 0 m 182 1104 q 241 1168 208 1132 q 304 1242 274 1204 q 353 1311 335 1281 l 478 1311 q 526 1242 494 1281 q 591 1167 557 1204 q 651 1104 625 1131 l 651 1089 l 565 1089 q 490 1149 529 1111 q 414 1224 451 1186 q 339 1149 376 1186 q 265 1089 301 1113 l 182 1089 l 182 1104 z "},"ŷ":{"ha":833,"x_min":63,"x_max":769,"o":"m 189 -340 q 135 -337 161 -340 q 89 -329 108 -333 l 89 -233 q 128 -239 106 -236 q 174 -242 151 -242 q 272 -210 238 -242 q 335 -108 307 -179 l 375 -7 l 63 744 l 185 744 l 363 307 q 398 211 381 264 q 429 110 415 158 l 433 110 q 465 213 449 161 q 496 308 482 265 l 642 744 l 769 744 l 457 -97 q 399 -224 431 -169 q 319 -310 368 -279 q 189 -340 269 -340 m 182 857 q 241 921 208 885 q 304 995 274 957 q 353 1064 335 1033 l 478 1064 q 526 995 494 1033 q 591 920 557 957 q 651 857 625 883 l 651 842 l 565 842 q 490 901 529 864 q 414 976 451 939 q 339 902 376 939 q 265 842 301 865 l 182 842 l 182 857 z "},"Ÿ":{"ha":833,"x_min":49,"x_max":785,"o":"m 357 0 l 357 386 l 49 992 l 186 992 l 418 490 l 651 992 l 785 992 l 476 386 l 476 0 l 357 0 m 575 1111 q 522 1131 544 1111 q 500 1193 500 1151 q 522 1254 500 1236 q 575 1272 544 1272 q 628 1254 606 1272 q 651 1193 651 1236 q 628 1131 651 1151 q 575 1111 606 1111 m 257 1111 q 204 1131 226 1111 q 182 1193 182 1151 q 204 1254 182 1236 q 257 1272 226 1272 q 310 1254 288 1272 q 333 1193 333 1236 q 310 1131 333 1151 q 257 1111 288 1111 z "},"Ź":{"ha":833,"x_min":132,"x_max":701,"o":"m 132 0 l 132 99 l 572 883 l 160 883 l 160 992 l 701 992 l 701 893 l 267 111 l 701 111 l 701 0 l 132 0 m 376 1106 q 422 1168 397 1132 q 469 1242 446 1204 q 508 1311 493 1281 l 656 1311 l 656 1297 q 604 1233 639 1272 q 530 1153 569 1193 q 457 1089 490 1114 l 376 1089 l 376 1106 z "},"ź":{"ha":833,"x_min":125,"x_max":708,"o":"m 125 0 l 125 85 l 563 649 l 147 649 l 147 744 l 697 744 l 697 646 l 274 106 l 708 106 l 708 0 l 125 0 m 374 858 q 419 921 394 885 q 467 995 443 957 q 506 1064 490 1033 l 653 1064 l 653 1050 q 601 985 636 1025 q 527 906 567 946 q 454 842 488 867 l 374 842 l 374 858 z "},"Ż":{"ha":833,"x_min":132,"x_max":701,"o":"m 132 0 l 132 99 l 572 883 l 160 883 l 160 992 l 701 992 l 701 893 l 267 111 l 701 111 l 701 0 l 132 0 m 432 1126 q 370 1149 396 1126 q 344 1214 344 1171 q 370 1281 344 1260 q 432 1303 396 1303 q 494 1281 468 1303 q 519 1214 519 1260 q 494 1149 519 1171 q 432 1126 468 1126 z "},"ż":{"ha":833,"x_min":125,"x_max":708,"o":"m 125 0 l 125 85 l 563 649 l 147 649 l 147 744 l 697 744 l 697 646 l 274 106 l 708 106 l 708 0 l 125 0 m 429 879 q 367 901 393 879 q 342 967 342 924 q 367 1034 342 1013 q 429 1056 393 1056 q 491 1034 465 1056 q 517 967 517 1013 q 491 901 517 924 q 429 879 465 879 z "},"Ž":{"ha":833,"x_min":132,"x_max":701,"o":"m 132 0 l 132 99 l 572 883 l 160 883 l 160 992 l 701 992 l 701 893 l 267 111 l 701 111 l 701 0 l 132 0 m 369 1089 q 321 1158 351 1121 q 257 1231 290 1194 q 199 1293 224 1267 l 199 1311 l 282 1311 q 357 1254 318 1288 q 431 1183 396 1221 q 507 1254 468 1221 q 582 1311 546 1288 l 668 1311 l 668 1293 q 608 1231 642 1267 q 542 1158 574 1194 q 494 1089 511 1121 l 369 1089 z "},"ž":{"ha":833,"x_min":125,"x_max":708,"o":"m 125 0 l 125 85 l 563 649 l 147 649 l 147 744 l 697 744 l 697 646 l 274 106 l 708 106 l 708 0 l 125 0 m 367 842 q 318 910 349 874 q 254 983 288 947 q 196 1046 221 1019 l 196 1064 l 279 1064 q 354 1007 315 1040 q 428 936 393 974 q 504 1007 465 974 q 579 1064 543 1040 l 665 1064 l 665 1046 q 605 983 639 1019 q 540 910 571 947 q 492 842 508 874 l 367 842 z "},"ſ":{"ha":833,"x_min":307,"x_max":761,"o":"m 307 801 q 385 1003 307 944 q 590 1063 463 1063 q 689 1055 643 1063 q 761 1036 735 1047 l 729 940 q 667 954 707 947 q 589 961 628 961 q 471 922 513 961 q 429 781 429 883 l 429 0 l 307 0 l 307 801 z "},"ƒ":{"ha":833,"x_min":78,"x_max":792,"o":"m 278 -335 q 129 -281 181 -335 q 78 -146 78 -226 q 81 -109 78 -126 q 88 -78 83 -92 l 210 -106 q 206 -124 208 -114 q 204 -146 204 -135 q 225 -208 204 -186 q 281 -231 246 -231 q 342 -198 322 -231 q 363 -106 363 -165 l 363 640 l 133 640 l 133 726 l 363 744 l 363 829 q 394 969 363 918 q 485 1041 426 1019 q 619 1063 543 1063 q 719 1054 676 1063 q 792 1035 761 1046 l 764 939 q 700 953 738 947 q 626 960 663 960 q 524 929 560 960 q 488 813 488 899 l 488 744 l 740 744 l 740 640 l 488 640 l 488 -107 q 438 -270 488 -206 q 278 -335 389 -335 z "},"Ǻ":{"ha":833,"x_min":28,"x_max":806,"o":"m 28 0 l 350 996 l 482 996 l 806 0 l 678 0 l 583 304 l 249 304 l 154 0 l 28 0 m 375 711 l 283 415 l 549 415 l 457 711 q 438 778 450 735 q 415 864 425 821 q 394 778 407 821 q 375 711 382 735 m 415 925 q 306 964 347 925 q 264 1072 264 1003 q 306 1180 264 1142 q 415 1218 347 1218 q 525 1180 481 1218 q 569 1074 569 1142 q 526 964 569 1003 q 415 925 482 925 m 415 997 q 469 1017 449 997 q 490 1072 490 1038 q 469 1128 490 1108 q 415 1147 447 1147 q 363 1128 385 1147 q 342 1072 342 1108 q 363 1017 342 1038 q 415 997 383 997 m 360 1288 q 405 1350 381 1314 q 453 1424 429 1386 q 492 1493 476 1463 l 639 1493 l 639 1479 q 588 1415 622 1454 q 513 1335 553 1375 q 440 1271 474 1296 l 360 1271 l 360 1288 z "},"ǻ":{"ha":833,"x_min":97,"x_max":708,"o":"m 342 -14 q 165 40 232 -14 q 97 204 97 94 q 184 385 97 325 q 435 449 271 444 l 594 453 l 594 483 q 544 620 594 583 q 410 657 494 657 q 296 642 350 657 q 193 599 242 626 l 150 693 q 267 739 203 719 q 417 758 332 758 q 633 695 557 758 q 708 499 708 632 l 708 0 l 608 0 l 594 103 l 589 103 q 483 15 543 44 q 342 -14 424 -14 m 363 88 q 478 110 425 88 q 563 180 531 133 q 594 297 594 226 l 594 364 l 461 360 q 272 317 328 356 q 215 208 215 278 q 256 116 215 144 q 363 88 296 88 m 422 842 q 313 881 354 842 q 271 989 271 919 q 313 1097 271 1058 q 422 1135 354 1135 q 532 1097 488 1135 q 576 990 576 1058 q 533 881 576 919 q 422 842 489 842 m 422 914 q 476 934 456 914 q 497 989 497 954 q 476 1044 497 1025 q 422 1064 454 1064 q 370 1044 392 1064 q 349 989 349 1025 q 369 934 349 954 q 422 914 390 914 m 367 1249 q 412 1311 388 1275 q 460 1385 436 1347 q 499 1454 483 1424 l 646 1454 l 646 1440 q 594 1376 629 1415 q 520 1297 560 1336 q 447 1232 481 1257 l 367 1232 l 367 1249 z "},"Ǽ":{"ha":833,"x_min":28,"x_max":754,"o":"m 28 0 l 250 992 l 754 992 l 754 881 l 504 881 l 504 574 l 728 574 l 728 464 l 504 464 l 504 111 l 754 111 l 754 0 l 385 0 l 385 304 l 214 304 l 149 0 l 28 0 m 336 881 l 236 411 l 385 411 l 385 881 l 336 881 m 394 1106 q 440 1168 415 1132 q 488 1242 464 1204 q 526 1311 511 1281 l 674 1311 l 674 1297 q 622 1233 657 1272 q 548 1153 588 1193 q 475 1089 508 1114 l 394 1089 l 394 1106 z "},"ǽ":{"ha":833,"x_min":28,"x_max":806,"o":"m 201 -14 q 79 40 131 -14 q 28 208 28 94 q 87 381 28 319 q 250 444 146 442 l 358 447 l 358 494 q 331 621 358 585 q 250 657 303 657 q 183 642 218 657 q 119 604 147 628 l 76 693 q 162 740 111 721 q 256 758 213 758 q 366 732 322 758 q 432 649 410 706 q 499 730 456 701 q 601 758 542 758 q 751 672 697 758 q 806 425 806 585 l 806 349 l 465 349 q 513 146 468 204 q 629 88 557 88 q 710 101 674 88 q 788 146 747 115 l 788 36 q 711 -2 749 10 q 624 -14 674 -14 q 500 19 557 -14 q 413 136 443 51 q 327 21 378 56 q 201 -14 276 -14 m 692 446 q 668 603 692 550 q 589 657 644 657 q 506 603 540 657 q 468 446 472 549 l 692 446 m 224 88 q 288 107 258 88 q 337 173 318 126 q 356 297 356 219 l 356 360 l 293 356 q 176 313 213 350 q 139 207 139 276 q 164 116 139 144 q 224 88 189 88 m 360 858 q 405 921 381 885 q 453 995 429 957 q 492 1064 476 1033 l 639 1064 l 639 1050 q 588 985 622 1025 q 513 906 553 946 q 440 842 474 867 l 360 842 l 360 858 z "},"Ǿ":{"ha":833,"x_min":63,"x_max":771,"o":"m 168 -53 l 78 -4 l 150 122 q 84 284 106 189 q 63 496 63 379 q 99 764 63 649 q 215 944 136 879 q 417 1008 293 1008 q 530 992 479 1008 q 619 943 581 975 l 675 1040 l 764 992 l 690 863 q 751 703 732 796 q 771 499 771 611 q 733 229 771 344 q 617 50 696 114 q 415 -14 539 -14 q 224 43 301 -14 l 168 -53 m 190 497 q 198 360 190 422 q 222 249 206 297 l 560 840 q 419 897 508 897 q 242 790 293 897 q 190 497 190 683 m 418 97 q 593 203 543 97 q 643 497 643 310 q 637 627 643 568 q 617 733 631 686 l 282 147 q 418 97 335 97 m 360 1106 q 405 1168 381 1132 q 453 1242 429 1204 q 492 1311 476 1281 l 639 1311 l 639 1297 q 588 1233 622 1272 q 513 1153 553 1193 q 440 1089 474 1114 l 360 1089 l 360 1106 z "},"ǿ":{"ha":833,"x_min":76,"x_max":757,"o":"m 183 -46 l 103 8 l 164 94 q 99 212 122 142 q 76 375 76 282 q 120 589 76 504 q 240 716 164 674 q 414 758 317 758 q 603 708 522 758 l 658 786 l 740 733 l 676 643 q 735 528 714 596 q 757 371 757 460 q 713 156 757 242 q 592 28 668 71 q 418 -14 515 -14 q 239 32 315 -14 l 183 -46 m 200 374 q 236 194 200 265 l 539 619 q 415 657 489 657 q 253 581 307 657 q 200 374 200 506 m 417 88 q 578 165 525 88 q 631 374 631 242 q 601 539 631 472 l 301 119 q 417 88 349 88 m 360 858 q 405 921 381 885 q 453 995 429 957 q 492 1064 476 1033 l 639 1064 l 639 1050 q 588 985 622 1025 q 513 906 553 946 q 440 842 474 867 l 360 842 l 360 858 z "},"Ș":{"ha":833,"x_min":118,"x_max":735,"o":"m 390 -14 q 237 1 311 -14 q 118 38 163 15 l 118 153 q 243 112 169 131 q 393 93 317 93 q 607 267 607 93 q 588 342 607 314 q 519 395 568 369 q 381 460 469 421 q 267 518 322 486 q 176 603 211 550 q 140 742 140 656 q 225 938 140 869 q 457 1006 310 1006 q 599 990 532 1006 q 715 950 665 974 l 675 846 q 569 881 628 868 q 454 894 511 894 q 321 860 374 894 q 268 739 268 825 q 288 660 268 690 q 353 606 308 629 q 467 553 397 583 q 606 485 546 519 q 701 401 667 451 q 735 265 735 351 q 648 60 735 133 q 390 -14 561 -14 m 301 -290 q 324 -230 313 -267 q 346 -153 336 -193 q 358 -85 356 -114 l 479 -85 l 479 -94 q 456 -158 474 -119 q 416 -237 439 -197 q 368 -307 393 -276 l 301 -307 l 301 -290 z "},"ș":{"ha":833,"x_min":146,"x_max":688,"o":"m 388 -14 q 255 -1 318 -14 q 146 33 192 11 l 146 149 q 253 108 194 126 q 394 89 313 89 q 524 117 486 89 q 563 200 563 146 q 549 248 563 229 q 499 286 536 267 q 389 336 461 306 q 265 396 317 368 q 186 462 214 424 q 158 560 158 500 q 234 708 158 658 q 444 758 310 758 q 561 747 506 758 q 676 711 617 736 l 639 614 q 537 646 583 638 q 444 654 490 654 q 319 632 358 654 q 279 563 279 610 q 297 511 279 532 q 353 471 314 490 q 458 424 393 451 q 583 367 532 393 q 661 303 635 340 q 688 203 688 267 q 612 42 688 97 q 388 -14 536 -14 m 308 -290 q 331 -230 319 -267 q 353 -153 343 -193 q 365 -85 363 -114 l 486 -85 l 486 -94 q 463 -158 481 -119 q 423 -237 446 -197 q 375 -307 400 -276 l 308 -307 l 308 -290 z "},"ˆ":{"ha":833,"x_min":182,"x_max":651,"o":"m 182 857 q 241 921 208 885 q 304 995 274 957 q 353 1064 335 1033 l 478 1064 q 526 995 494 1033 q 591 920 557 957 q 651 857 625 883 l 651 842 l 565 842 q 490 901 529 864 q 414 976 451 939 q 339 902 376 939 q 265 842 301 865 l 182 842 l 182 857 z "},"ˇ":{"ha":833,"x_min":182,"x_max":651,"o":"m 353 842 q 304 910 335 874 q 240 983 274 947 q 182 1046 207 1019 l 182 1064 l 265 1064 q 340 1007 301 1040 q 414 936 379 974 q 490 1007 451 974 q 565 1064 529 1040 l 651 1064 l 651 1046 q 591 983 625 1019 q 526 910 557 947 q 478 842 494 874 l 353 842 z "},"ˉ":{"ha":833,"x_min":210,"x_max":622,"o":"m 210 858 l 210 957 l 622 957 l 622 858 l 210 858 z "},"˘":{"ha":833,"x_min":201,"x_max":633,"o":"m 413 842 q 259 894 314 842 q 201 1028 204 947 l 282 1028 q 313 965 292 986 q 363 937 335 944 q 417 929 390 929 q 499 948 460 929 q 551 1028 539 967 l 633 1028 q 574 894 632 947 q 413 842 517 842 z "},"˙":{"ha":833,"x_min":329,"x_max":504,"o":"m 417 879 q 355 901 381 879 q 329 967 329 924 q 355 1034 329 1013 q 417 1056 381 1056 q 478 1034 453 1056 q 504 967 504 1013 q 478 901 504 924 q 417 879 453 879 z "},"˚":{"ha":833,"x_min":264,"x_max":569,"o":"m 415 842 q 306 881 347 842 q 264 989 264 919 q 306 1097 264 1058 q 415 1135 347 1135 q 525 1097 481 1135 q 569 990 569 1058 q 526 881 569 919 q 415 842 482 842 m 415 914 q 469 934 449 914 q 490 989 490 954 q 469 1044 490 1025 q 415 1064 447 1064 q 363 1044 385 1064 q 342 989 342 1025 q 363 934 342 954 q 415 914 383 914 z "},"˛":{"ha":833,"x_min":307,"x_max":536,"o":"m 451 -306 q 342 -271 376 -306 q 307 -182 307 -236 q 327 -98 307 -136 q 377 -30 347 -60 q 435 21 407 0 l 501 0 q 431 -81 456 -43 q 407 -160 407 -118 q 425 -209 407 -194 q 478 -224 443 -224 q 509 -222 493 -224 q 536 -215 525 -219 l 536 -293 q 497 -302 517 -299 q 451 -306 476 -306 z "},"˜":{"ha":833,"x_min":167,"x_max":667,"o":"m 167 842 q 215 972 175 924 q 319 1019 254 1019 q 393 999 358 1019 q 460 960 428 979 q 521 940 492 940 q 570 960 553 940 q 597 1021 588 981 l 667 1021 q 619 892 658 940 q 515 843 581 843 q 442 863 476 843 q 377 902 408 882 q 314 922 346 922 q 264 902 281 922 q 238 842 247 882 l 167 842 z "},"˝":{"ha":833,"x_min":215,"x_max":714,"o":"m 460 858 q 501 921 479 885 q 545 995 524 957 q 581 1064 567 1033 l 714 1064 l 714 1050 q 668 986 700 1026 q 599 906 636 946 q 529 842 561 867 l 460 842 l 460 858 m 215 858 q 279 958 244 899 q 336 1064 314 1017 l 469 1064 l 469 1050 q 424 986 456 1026 q 354 906 392 946 q 285 842 317 867 l 215 842 l 215 858 z "},"΄":{"ha":833,"x_min":375,"x_max":554,"o":"m 375 861 q 394 941 385 896 q 412 1033 404 986 q 424 1118 419 1081 l 554 1118 l 554 1103 q 531 1026 547 1072 q 492 930 514 979 q 449 842 471 881 l 375 842 l 375 861 z "},"΅":{"ha":833,"x_min":200,"x_max":632,"o":"m 371 958 q 405 1058 386 1000 q 433 1164 424 1117 l 567 1164 l 567 1150 q 507 1049 544 1107 q 429 942 469 990 l 371 942 l 371 958 m 264 876 q 219 894 238 876 q 200 946 200 911 q 219 998 200 982 q 264 1014 238 1014 q 309 998 290 1014 q 328 946 328 982 q 309 894 328 911 q 264 876 290 876 m 568 876 q 522 894 540 876 q 504 946 504 911 q 522 998 504 982 q 568 1014 540 1014 q 613 998 593 1014 q 632 946 632 982 q 613 894 632 911 q 568 876 593 876 z "},"Ά":{"ha":833,"x_min":19,"x_max":806,"o":"m 28 0 l 350 996 l 482 996 l 806 0 l 678 0 l 583 304 l 249 304 l 154 0 l 28 0 m 375 711 l 283 415 l 549 415 l 457 711 q 438 778 450 735 q 415 864 425 821 q 394 778 407 821 q 375 711 382 735 m 19 861 q 39 941 29 896 q 56 1033 49 986 q 68 1118 64 1081 l 199 1118 l 199 1103 q 175 1026 192 1072 q 137 930 158 979 q 93 842 115 881 l 19 842 l 19 861 z "},"·":{"ha":833,"x_min":331,"x_max":503,"o":"m 417 569 q 356 592 381 569 q 331 664 331 614 q 356 738 331 717 q 417 758 381 758 q 478 738 453 758 q 503 664 503 717 q 478 592 503 614 q 417 569 453 569 z "},"Έ":{"ha":833,"x_min":-58,"x_max":715,"o":"m -58 861 q -39 941 -49 896 q -22 1033 -29 986 q -10 1118 -14 1081 l 121 1118 l 121 1103 q 97 1026 114 1072 q 59 930 81 979 q 15 842 38 881 l -58 842 l -58 861 m 172 0 l 172 992 l 715 992 l 715 881 l 297 881 l 297 574 l 689 574 l 689 463 l 297 463 l 297 111 l 715 111 l 715 0 l 172 0 z "},"Ή":{"ha":833,"x_min":-36,"x_max":736,"o":"m -36 861 q -17 941 -26 896 q 1 1033 -7 986 q 13 1118 8 1081 l 143 1118 l 143 1103 q 119 1026 136 1072 q 81 930 103 979 q 38 842 60 881 l -36 842 l -36 861 m 154 0 l 154 992 l 279 992 l 279 574 l 611 574 l 611 992 l 736 992 l 736 0 l 611 0 l 611 463 l 279 463 l 279 0 l 154 0 z "},"Ί":{"ha":833,"x_min":-36,"x_max":708,"o":"m 181 0 l 181 86 l 381 104 l 381 888 l 181 906 l 181 992 l 708 992 l 708 906 l 506 888 l 506 104 l 708 86 l 708 0 l 181 0 m -36 861 q -17 941 -26 896 q 1 1033 -7 986 q 13 1118 8 1081 l 143 1118 l 143 1103 q 119 1026 136 1072 q 81 930 103 979 q 38 842 60 881 l -36 842 l -36 861 z "},"Ό":{"ha":833,"x_min":-1,"x_max":771,"o":"m 415 -14 q 214 50 292 -14 q 99 229 136 114 q 63 496 63 344 q 99 764 63 649 q 215 944 136 879 q 417 1008 293 1008 q 619 944 540 1008 q 734 766 697 881 q 771 499 771 651 q 733 229 771 344 q 617 50 696 114 q 415 -14 539 -14 m 418 97 q 593 203 543 97 q 643 497 643 310 q 593 792 643 686 q 419 897 543 897 q 242 790 293 897 q 190 497 190 683 q 242 203 190 310 q 418 97 293 97 m -1 861 q 18 941 8 896 q 35 1033 28 986 q 47 1118 43 1081 l 178 1118 l 178 1103 q 154 1026 171 1072 q 116 930 138 979 q 72 842 94 881 l -1 842 l -1 861 z "},"Ύ":{"ha":833,"x_min":-11,"x_max":813,"o":"m -11 861 q 8 941 -1 896 q 26 1033 18 986 q 38 1118 33 1081 l 168 1118 l 168 1103 q 144 1026 161 1072 q 106 930 128 979 q 63 842 85 881 l -11 842 l -11 861 m 440 0 l 440 386 l 188 992 l 325 992 l 501 504 l 679 992 l 813 992 l 560 386 l 560 0 l 440 0 z "},"Ώ":{"ha":833,"x_min":-1,"x_max":806,"o":"m 28 0 l 28 106 l 214 106 q 111 288 154 167 q 68 561 68 408 q 159 890 68 775 q 418 1006 250 1006 q 676 889 588 1006 q 764 561 764 772 q 722 285 764 406 q 618 106 679 165 l 806 106 l 806 0 l 488 0 l 488 93 q 604 282 571 171 q 638 528 638 393 q 586 805 638 710 q 419 900 535 900 q 253 810 310 900 q 196 532 196 719 q 232 280 196 390 q 346 93 268 169 l 346 0 l 28 0 m -1 861 q 18 941 8 896 q 35 1033 28 986 q 47 1118 43 1081 l 178 1118 l 178 1103 q 154 1026 171 1072 q 116 930 138 979 q 72 842 94 881 l -1 842 l -1 861 z "},"ΐ":{"ha":833,"x_min":222,"x_max":696,"o":"m 565 -14 q 456 6 504 -14 q 381 77 408 26 q 354 218 354 128 l 354 744 l 475 744 l 475 219 q 501 119 475 153 q 582 86 526 86 q 645 91 613 86 q 696 101 678 96 l 696 8 q 639 -8 676 -1 q 565 -14 601 -14 m 393 958 q 427 1058 408 1000 q 456 1164 446 1117 l 589 1164 l 589 1150 q 529 1049 567 1107 q 451 942 492 990 l 393 942 l 393 958 m 286 876 q 241 894 260 876 q 222 946 222 911 q 241 998 222 982 q 286 1014 260 1014 q 331 998 313 1014 q 350 946 350 982 q 331 894 350 911 q 286 876 313 876 m 590 876 q 544 894 563 876 q 526 946 526 911 q 544 998 526 982 q 590 1014 563 1014 q 635 998 615 1014 q 654 946 654 982 q 635 894 654 911 q 590 876 615 876 z "},"Α":{"ha":833,"x_min":28,"x_max":806,"o":"m 28 0 l 350 996 l 482 996 l 806 0 l 678 0 l 583 304 l 249 304 l 154 0 l 28 0 m 375 711 l 283 415 l 549 415 l 457 711 q 438 778 450 735 q 415 864 425 821 q 394 778 407 821 q 375 711 382 735 z "},"Β":{"ha":833,"x_min":132,"x_max":757,"o":"m 132 0 l 132 992 l 399 992 q 640 937 551 992 q 729 749 729 882 q 682 596 729 651 q 551 526 635 540 l 551 519 q 655 485 608 510 q 729 413 701 460 q 757 288 757 365 q 672 76 757 153 q 440 0 588 0 l 132 0 m 410 572 q 558 612 514 572 q 603 732 603 651 q 555 849 603 814 q 389 883 507 883 l 250 883 l 250 572 l 410 572 m 418 108 q 583 158 538 108 q 629 288 629 208 q 581 416 629 368 q 410 464 533 464 l 250 464 l 250 108 l 418 108 z "},"Γ":{"ha":833,"x_min":160,"x_max":715,"o":"m 160 0 l 160 992 l 715 992 l 715 881 l 285 881 l 285 0 l 160 0 z "},"Δ":{"ha":833,"x_min":28,"x_max":806,"o":"m 28 0 l 28 76 l 353 992 l 478 992 l 806 75 l 806 0 l 28 0 m 161 110 l 668 110 l 490 626 q 448 747 468 689 q 414 856 428 806 q 383 748 401 806 q 344 632 365 690 l 161 110 z "},"Ε":{"ha":833,"x_min":132,"x_max":715,"o":"m 132 0 l 132 992 l 715 992 l 715 881 l 257 881 l 257 574 l 689 574 l 689 463 l 257 463 l 257 111 l 715 111 l 715 0 l 132 0 z "},"Ζ":{"ha":833,"x_min":132,"x_max":701,"o":"m 132 0 l 132 99 l 572 883 l 160 883 l 160 992 l 701 992 l 701 893 l 267 111 l 701 111 l 701 0 l 132 0 z "},"Η":{"ha":833,"x_min":97,"x_max":736,"o":"m 97 0 l 97 992 l 222 992 l 222 574 l 611 574 l 611 992 l 736 992 l 736 0 l 611 0 l 611 463 l 222 463 l 222 0 l 97 0 z "},"Θ":{"ha":833,"x_min":63,"x_max":771,"o":"m 415 -14 q 214 50 292 -14 q 99 229 136 114 q 63 496 63 344 q 99 764 63 649 q 215 944 136 879 q 417 1008 293 1008 q 619 944 540 1008 q 734 766 697 881 q 771 499 771 651 q 733 229 771 344 q 617 50 696 114 q 415 -14 539 -14 m 418 97 q 593 203 543 97 q 643 497 643 310 q 593 792 643 686 q 419 897 543 897 q 242 790 293 897 q 190 497 190 683 q 242 203 190 310 q 418 97 293 97 m 276 450 l 276 558 l 557 558 l 557 450 l 276 450 z "},"Ι":{"ha":833,"x_min":153,"x_max":681,"o":"m 153 0 l 153 86 l 353 104 l 353 888 l 153 906 l 153 992 l 681 992 l 681 906 l 478 888 l 478 104 l 681 86 l 681 0 l 153 0 z "},"Κ":{"ha":833,"x_min":97,"x_max":764,"o":"m 97 0 l 97 992 l 222 992 l 222 458 q 271 535 246 496 q 325 613 296 574 l 608 992 l 751 992 l 419 543 l 764 0 l 621 0 l 335 458 l 222 329 l 222 0 l 97 0 z "},"Λ":{"ha":833,"x_min":28,"x_max":806,"o":"m 28 0 l 350 992 l 481 992 l 806 0 l 674 0 l 482 625 q 444 748 463 690 q 414 856 426 806 q 388 748 404 806 q 351 626 371 690 l 160 0 l 28 0 z "},"Μ":{"ha":833,"x_min":69,"x_max":764,"o":"m 69 0 l 69 992 l 249 992 l 414 410 l 418 410 l 583 992 l 764 992 l 764 0 l 646 0 l 646 538 q 649 706 646 619 q 663 867 653 793 l 657 867 l 474 247 l 358 247 l 174 868 l 168 868 q 179 770 175 828 q 185 651 183 713 q 188 538 188 590 l 188 0 l 69 0 z "},"Ν":{"ha":833,"x_min":97,"x_max":736,"o":"m 97 0 l 97 992 l 263 992 l 624 165 l 628 165 q 618 315 621 247 q 615 467 615 382 l 615 992 l 736 992 l 736 0 l 585 0 l 206 864 l 200 864 q 213 708 207 786 q 218 553 218 631 l 218 0 l 97 0 z "},"Ξ":{"ha":833,"x_min":97,"x_max":736,"o":"m 125 882 l 125 992 l 708 992 l 708 882 l 125 882 m 167 464 l 167 572 l 667 572 l 667 464 l 167 464 m 97 0 l 97 110 l 736 110 l 736 0 l 97 0 z "},"Ο":{"ha":833,"x_min":63,"x_max":771,"o":"m 415 -14 q 214 50 292 -14 q 99 229 136 114 q 63 496 63 344 q 99 764 63 649 q 215 944 136 879 q 417 1008 293 1008 q 619 944 540 1008 q 734 766 697 881 q 771 499 771 651 q 733 229 771 344 q 617 50 696 114 q 415 -14 539 -14 m 418 97 q 593 203 543 97 q 643 497 643 310 q 593 792 643 686 q 419 897 543 897 q 242 790 293 897 q 190 497 190 683 q 242 203 190 310 q 418 97 293 97 z "},"Π":{"ha":833,"x_min":97,"x_max":736,"o":"m 97 0 l 97 992 l 736 992 l 736 0 l 613 0 l 613 882 l 222 882 l 222 0 l 97 0 z "},"Ρ":{"ha":833,"x_min":132,"x_max":757,"o":"m 132 0 l 132 992 l 415 992 q 675 916 593 992 q 757 701 757 840 q 723 546 757 619 q 610 427 689 472 q 397 382 532 382 l 257 382 l 257 0 l 132 0 m 383 490 q 568 538 507 490 q 629 694 629 585 q 574 840 629 797 q 404 883 519 883 l 257 883 l 257 490 l 383 490 z "},"Σ":{"ha":833,"x_min":132,"x_max":701,"o":"m 132 0 l 132 103 l 415 518 l 140 888 l 140 992 l 661 992 l 661 881 l 376 881 q 327 881 358 881 q 283 882 296 881 l 554 519 l 269 108 q 340 109 306 108 q 413 110 375 110 l 701 110 l 701 0 l 132 0 z "},"Τ":{"ha":833,"x_min":63,"x_max":771,"o":"m 354 0 l 354 881 l 63 881 l 63 992 l 771 992 l 771 881 l 479 881 l 479 0 l 354 0 z "},"Υ":{"ha":833,"x_min":49,"x_max":785,"o":"m 357 0 l 357 386 l 49 992 l 186 992 l 418 490 l 651 992 l 785 992 l 476 386 l 476 0 l 357 0 z "},"Φ":{"ha":833,"x_min":56,"x_max":778,"o":"m 360 139 q 198 186 267 139 q 92 317 129 233 q 56 513 56 401 q 90 701 56 618 q 192 834 124 785 q 360 883 260 883 l 360 1006 l 474 1006 l 474 883 q 642 836 575 883 q 744 706 710 789 q 778 514 778 622 q 744 321 778 406 q 642 188 710 236 q 474 139 574 139 l 474 -14 l 360 -14 l 360 139 m 360 782 q 220 714 267 782 q 174 514 174 646 q 221 310 174 381 q 360 240 268 240 l 360 782 m 474 240 q 613 312 564 240 q 661 518 661 383 q 474 782 661 782 l 474 240 z "},"Χ":{"ha":833,"x_min":49,"x_max":785,"o":"m 49 0 l 358 513 l 69 992 l 204 992 l 417 613 l 632 992 l 764 992 l 476 511 l 785 0 l 656 0 l 418 411 l 182 0 l 49 0 z "},"Ψ":{"ha":833,"x_min":56,"x_max":778,"o":"m 360 296 q 178 338 244 296 q 83 462 111 381 q 56 657 56 543 l 56 992 l 172 992 l 172 665 q 185 528 172 588 q 238 434 197 468 q 360 400 278 400 l 360 992 l 474 992 l 474 400 q 619 461 576 401 q 661 665 661 521 l 661 992 l 778 992 l 778 640 q 749 458 778 536 q 653 338 719 381 q 474 296 586 296 l 474 0 l 360 0 l 360 296 z "},"Ω":{"ha":833,"x_min":28,"x_max":806,"o":"m 28 0 l 28 106 l 214 106 q 111 288 154 167 q 68 561 68 408 q 159 890 68 775 q 418 1006 250 1006 q 676 889 588 1006 q 764 561 764 772 q 722 285 764 406 q 618 106 679 165 l 806 106 l 806 0 l 488 0 l 488 93 q 604 282 571 171 q 638 528 638 393 q 586 805 638 710 q 419 900 535 900 q 253 810 310 900 q 196 532 196 719 q 232 280 196 390 q 346 93 268 169 l 346 0 l 28 0 z "},"Ϊ":{"ha":833,"x_min":153,"x_max":681,"o":"m 153 0 l 153 86 l 353 104 l 353 888 l 153 906 l 153 992 l 681 992 l 681 906 l 478 888 l 478 104 l 681 86 l 681 0 l 153 0 m 575 1111 q 522 1131 544 1111 q 500 1193 500 1151 q 522 1254 500 1236 q 575 1272 544 1272 q 628 1254 606 1272 q 651 1193 651 1236 q 628 1131 651 1151 q 575 1111 606 1111 m 257 1111 q 204 1131 226 1111 q 182 1193 182 1151 q 204 1254 182 1236 q 257 1272 226 1272 q 310 1254 288 1272 q 333 1193 333 1236 q 310 1131 333 1151 q 257 1111 288 1111 z "},"Ϋ":{"ha":833,"x_min":49,"x_max":785,"o":"m 357 0 l 357 386 l 49 992 l 186 992 l 418 490 l 651 992 l 785 992 l 476 386 l 476 0 l 357 0 m 575 1111 q 522 1131 544 1111 q 500 1193 500 1151 q 522 1254 500 1236 q 575 1272 544 1272 q 628 1254 606 1272 q 651 1193 651 1236 q 628 1131 651 1151 q 575 1111 606 1111 m 257 1111 q 204 1131 226 1111 q 182 1193 182 1151 q 204 1254 182 1236 q 257 1272 226 1272 q 310 1254 288 1272 q 333 1193 333 1236 q 310 1131 333 1151 q 257 1111 288 1111 z "},"ά":{"ha":833,"x_min":76,"x_max":792,"o":"m 358 -14 q 153 83 229 -14 q 76 371 76 179 q 153 658 76 558 q 368 758 229 758 q 492 730 442 758 q 579 644 543 701 l 588 644 q 606 696 594 668 q 632 744 617 724 l 728 744 q 710 664 718 714 q 697 558 701 614 q 693 453 693 503 l 693 164 q 710 103 693 121 q 750 86 726 86 q 774 89 761 86 q 792 93 786 92 l 792 4 q 760 -8 782 -1 q 710 -14 738 -14 q 632 10 667 -14 q 582 100 597 33 l 572 100 q 495 22 544 58 q 358 -14 446 -14 m 386 88 q 527 157 482 88 q 572 363 572 226 l 572 371 q 530 579 572 503 q 385 656 488 656 q 246 585 289 656 q 203 374 203 514 q 250 154 203 221 q 386 88 297 88 m 375 861 q 394 941 385 896 q 412 1033 404 986 q 424 1118 419 1081 l 554 1118 l 554 1103 q 531 1026 547 1072 q 492 930 514 979 q 449 842 471 881 l 375 842 l 375 861 z "},"έ":{"ha":833,"x_min":142,"x_max":706,"o":"m 454 -14 q 218 48 294 -14 q 142 203 142 110 q 165 294 142 258 q 225 351 188 329 q 307 385 263 372 l 307 392 q 206 452 244 411 q 168 561 168 493 q 248 707 168 656 q 454 758 328 758 q 592 744 535 758 q 706 706 650 731 l 660 608 q 566 643 614 629 q 453 657 518 657 q 285 551 285 657 q 342 464 285 490 q 497 438 400 438 l 575 438 l 575 338 l 474 338 q 264 210 264 338 q 321 114 264 142 q 461 86 378 86 q 598 104 539 86 q 703 144 657 122 l 703 38 q 600 1 660 15 q 454 -14 540 -14 m 375 861 q 394 941 385 896 q 412 1033 404 986 q 424 1118 419 1081 l 554 1118 l 554 1103 q 531 1026 547 1072 q 492 930 514 979 q 449 842 471 881 l 375 842 l 375 861 z "},"ή":{"ha":833,"x_min":111,"x_max":729,"o":"m 111 0 l 111 744 l 211 744 l 229 635 l 236 635 q 331 728 268 699 q 479 758 394 758 q 660 695 592 758 q 729 497 729 632 l 729 -339 l 604 -339 l 604 475 q 566 613 604 569 q 443 657 528 657 q 283 585 329 657 q 236 382 236 513 l 236 0 l 111 0 m 375 861 q 394 941 385 896 q 412 1033 404 986 q 424 1118 419 1081 l 554 1118 l 554 1103 q 531 1026 547 1072 q 492 930 514 979 q 449 842 471 881 l 375 842 l 375 861 z "},"ί":{"ha":833,"x_min":354,"x_max":696,"o":"m 565 -14 q 456 6 504 -14 q 381 77 408 26 q 354 218 354 128 l 354 744 l 475 744 l 475 219 q 501 119 475 153 q 582 86 526 86 q 645 91 613 86 q 696 101 678 96 l 696 8 q 639 -8 676 -1 q 565 -14 601 -14 m 375 861 q 394 941 385 896 q 412 1033 404 986 q 424 1118 419 1081 l 554 1118 l 554 1103 q 531 1026 547 1072 q 492 930 514 979 q 449 842 471 881 l 375 842 l 375 861 z "},"ΰ":{"ha":833,"x_min":111,"x_max":764,"o":"m 428 -14 q 235 33 304 -14 q 139 159 167 79 q 111 338 111 239 l 111 744 l 233 744 l 233 342 q 282 155 233 224 q 438 86 331 86 q 590 165 540 86 q 640 411 640 244 q 629 585 640 508 q 597 744 618 661 l 719 744 q 753 585 742 663 q 764 406 764 508 q 678 88 764 190 q 428 -14 593 -14 m 371 958 q 405 1058 386 1000 q 433 1164 424 1117 l 567 1164 l 567 1150 q 507 1049 544 1107 q 429 942 469 990 l 371 942 l 371 958 m 264 876 q 219 894 238 876 q 200 946 200 911 q 219 998 200 982 q 264 1014 238 1014 q 309 998 290 1014 q 328 946 328 982 q 309 894 328 911 q 264 876 290 876 m 568 876 q 522 894 540 876 q 504 946 504 911 q 522 998 504 982 q 568 1014 540 1014 q 613 998 593 1014 q 632 946 632 982 q 613 894 632 911 q 568 876 593 876 z "},"α":{"ha":833,"x_min":76,"x_max":792,"o":"m 358 -14 q 153 83 229 -14 q 76 371 76 179 q 153 658 76 558 q 368 758 229 758 q 492 730 442 758 q 579 644 543 701 l 588 644 q 606 696 594 668 q 632 744 617 724 l 728 744 q 710 664 718 714 q 697 558 701 614 q 693 453 693 503 l 693 164 q 710 103 693 121 q 750 86 726 86 q 774 89 761 86 q 792 93 786 92 l 792 4 q 760 -8 782 -1 q 710 -14 738 -14 q 632 10 667 -14 q 582 100 597 33 l 572 100 q 495 22 544 58 q 358 -14 446 -14 m 386 88 q 527 157 482 88 q 572 363 572 226 l 572 371 q 530 579 572 503 q 385 656 488 656 q 246 585 289 656 q 203 374 203 514 q 250 154 203 221 q 386 88 297 88 z "},"β":{"ha":833,"x_min":111,"x_max":779,"o":"m 111 743 q 151 926 111 856 q 259 1029 190 996 q 415 1063 328 1063 q 581 1033 508 1063 q 694 944 653 1003 q 735 797 735 886 q 681 639 735 697 q 524 564 626 581 l 524 558 q 715 476 650 544 q 779 282 779 408 q 692 63 779 139 q 456 -14 604 -14 q 324 3 379 -14 q 233 39 269 19 l 233 -333 l 111 -333 l 111 743 m 442 86 q 608 140 558 86 q 657 290 657 193 q 590 451 657 400 q 415 501 524 501 l 342 501 l 342 604 l 401 604 q 560 656 510 604 q 610 792 610 707 q 556 919 610 878 q 413 961 503 961 q 324 942 365 961 q 258 874 283 922 q 233 738 233 825 l 233 146 q 320 105 268 124 q 442 86 372 86 z "},"γ":{"ha":833,"x_min":63,"x_max":769,"o":"m 293 -333 q 302 -236 293 -294 q 327 -113 311 -178 q 364 8 343 -49 l 63 744 l 189 744 l 346 354 q 376 274 361 318 q 404 189 392 229 q 421 124 417 149 l 426 124 q 442 188 431 146 q 469 274 454 229 q 494 349 483 318 l 643 744 l 769 744 l 493 18 q 457 -101 472 -37 q 433 -226 442 -165 q 425 -333 425 -286 l 293 -333 z "},"δ":{"ha":833,"x_min":76,"x_max":757,"o":"m 415 -14 q 240 23 317 -14 q 119 128 163 60 q 76 294 76 197 q 113 451 76 385 q 215 563 150 518 q 363 633 281 608 q 238 731 285 678 q 190 861 190 785 q 261 1006 190 957 q 446 1056 332 1056 q 603 1032 533 1056 q 726 981 674 1008 l 674 885 q 568 933 628 911 q 443 956 508 956 q 342 927 371 956 q 314 858 314 899 q 338 790 314 818 q 405 735 363 761 q 500 679 447 710 q 637 585 579 633 q 726 476 694 538 q 757 322 757 414 q 663 74 757 163 q 415 -14 569 -14 m 415 88 q 574 149 518 88 q 631 321 631 211 q 585 480 631 422 q 460 581 539 538 q 342 535 401 567 q 244 446 283 503 q 204 301 204 389 q 260 145 204 203 q 415 88 315 88 z "},"ε":{"ha":833,"x_min":142,"x_max":706,"o":"m 454 -14 q 218 48 294 -14 q 142 203 142 110 q 165 294 142 258 q 225 351 188 329 q 307 385 263 372 l 307 392 q 206 452 244 411 q 168 561 168 493 q 248 707 168 656 q 454 758 328 758 q 592 744 535 758 q 706 706 650 731 l 660 608 q 566 643 614 629 q 453 657 518 657 q 285 551 285 657 q 342 464 285 490 q 497 438 400 438 l 575 438 l 575 338 l 474 338 q 264 210 264 338 q 321 114 264 142 q 461 86 378 86 q 598 104 539 86 q 703 144 657 122 l 703 38 q 600 1 660 15 q 454 -14 540 -14 z "},"ζ":{"ha":833,"x_min":165,"x_max":724,"o":"m 515 -271 q 575 -176 549 -226 q 601 -87 601 -125 q 590 -51 601 -68 q 544 -20 579 -35 q 433 7 508 -6 q 233 102 301 31 q 165 311 165 174 q 199 502 165 415 q 290 665 232 589 q 422 814 347 742 q 579 960 497 886 q 501 956 557 958 q 374 954 444 954 l 207 954 l 207 1056 l 724 1056 l 724 964 q 494 748 581 843 q 364 576 407 653 q 306 438 321 500 q 292 319 292 375 q 319 199 292 240 q 400 138 347 158 q 528 103 453 118 q 679 42 635 81 q 724 -56 724 4 q 697 -172 724 -117 q 636 -271 669 -226 l 515 -271 z "},"η":{"ha":833,"x_min":111,"x_max":729,"o":"m 111 0 l 111 744 l 211 744 l 229 635 l 236 635 q 331 728 268 699 q 479 758 394 758 q 660 695 592 758 q 729 497 729 632 l 729 -339 l 604 -339 l 604 475 q 566 613 604 569 q 443 657 528 657 q 283 585 329 657 q 236 382 236 513 l 236 0 l 111 0 z "},"θ":{"ha":833,"x_min":79,"x_max":753,"o":"m 414 -14 q 160 129 242 -14 q 79 524 79 272 q 113 814 79 693 q 220 999 146 935 q 414 1063 294 1063 q 670 922 588 1063 q 753 524 753 781 q 719 235 753 356 q 610 51 685 115 q 414 -14 536 -14 m 628 589 q 571 869 621 775 q 414 963 521 963 q 259 869 308 963 q 203 589 210 775 l 628 589 m 414 86 q 574 186 522 86 q 629 488 625 286 l 203 488 q 255 188 206 289 q 414 86 304 86 z "},"ι":{"ha":833,"x_min":354,"x_max":696,"o":"m 565 -14 q 456 6 504 -14 q 381 77 408 26 q 354 218 354 128 l 354 744 l 475 744 l 475 219 q 501 119 475 153 q 582 86 526 86 q 645 91 613 86 q 696 101 678 96 l 696 8 q 639 -8 676 -1 q 565 -14 601 -14 z "},"κ":{"ha":833,"x_min":146,"x_max":792,"o":"m 146 0 l 146 744 l 271 744 l 271 547 q 267 445 271 504 q 261 338 264 386 l 264 338 q 314 401 290 372 q 365 460 338 429 l 622 744 l 772 744 l 476 424 l 792 0 l 647 0 l 393 350 l 271 232 l 271 0 l 146 0 z "},"λ":{"ha":833,"x_min":47,"x_max":808,"o":"m 729 -14 q 648 12 678 -14 q 596 99 618 38 l 494 383 q 469 458 483 417 q 442 538 454 499 q 425 604 431 578 l 419 604 q 387 500 407 556 q 343 390 367 444 l 174 0 l 47 0 l 368 731 l 331 835 q 282 928 308 894 q 196 963 256 963 q 152 960 171 963 q 118 954 133 957 l 118 1053 q 161 1060 138 1057 q 210 1064 185 1064 q 326 1039 282 1064 q 399 963 369 1014 q 457 831 429 911 l 697 161 q 767 86 724 86 q 790 89 778 86 q 808 93 801 92 l 808 3 q 773 -9 793 -4 q 729 -14 753 -14 z "},"μ":{"ha":833,"x_min":104,"x_max":722,"o":"m 104 -333 l 104 744 l 229 744 l 229 268 q 266 133 229 179 q 393 88 303 88 q 553 160 508 88 q 597 361 597 232 l 597 744 l 722 744 l 722 0 l 622 0 l 604 100 l 597 100 q 499 12 558 38 q 363 -14 440 -14 q 229 10 283 -14 l 229 -333 l 104 -333 z "},"ν":{"ha":833,"x_min":90,"x_max":742,"o":"m 336 0 l 90 744 l 217 744 l 339 344 q 365 265 350 311 q 393 174 379 218 q 414 103 407 131 l 419 103 q 541 287 497 190 q 603 497 585 383 q 621 744 621 610 l 742 744 q 717 473 742 599 q 634 231 693 347 q 468 0 575 115 l 336 0 z "},"ξ":{"ha":833,"x_min":158,"x_max":718,"o":"m 519 -271 q 576 -175 551 -226 q 601 -87 601 -124 q 560 -27 601 -43 q 432 7 518 -11 q 351 28 397 14 q 260 72 304 43 q 187 150 215 100 q 158 279 158 200 q 215 456 158 390 q 353 549 272 522 l 353 557 q 245 622 285 576 q 206 744 206 667 q 232 853 206 811 q 303 922 258 896 q 400 963 347 947 q 338 958 382 961 q 243 954 294 954 l 201 954 l 201 1056 l 682 1056 l 682 961 l 646 961 q 492 938 567 961 q 371 867 418 914 q 324 746 324 819 q 376 640 324 678 q 550 601 428 601 l 665 601 l 665 508 l 546 508 q 353 447 419 508 q 286 288 286 386 q 315 188 286 222 q 399 135 344 153 q 528 101 453 118 q 676 41 635 78 q 718 -58 718 4 q 692 -172 718 -117 q 635 -271 665 -226 l 519 -271 z "},"ο":{"ha":833,"x_min":76,"x_max":757,"o":"m 418 -14 q 244 28 321 -14 q 122 158 167 71 q 76 375 76 244 q 120 589 76 504 q 240 716 164 674 q 414 758 317 758 q 589 716 511 758 q 712 588 667 674 q 757 371 757 503 q 713 156 757 242 q 592 28 668 71 q 418 -14 515 -14 m 417 88 q 578 165 525 88 q 631 374 631 242 q 577 581 631 506 q 415 657 524 657 q 253 581 307 657 q 200 374 200 506 q 254 165 200 242 q 417 88 308 88 z "},"π":{"ha":833,"x_min":51,"x_max":781,"o":"m 668 -14 q 514 164 514 -14 l 514 643 l 324 643 l 324 0 l 203 0 l 203 643 l 51 643 l 51 696 l 151 744 l 781 744 l 781 643 l 635 643 l 635 172 q 653 105 635 124 q 699 86 671 86 q 734 90 718 86 q 760 100 750 94 l 760 4 q 724 -8 749 -1 q 668 -14 700 -14 z "},"ρ":{"ha":833,"x_min":111,"x_max":757,"o":"m 111 382 q 200 665 111 572 q 439 758 289 758 q 603 714 532 758 q 716 583 675 669 q 757 372 757 497 q 669 85 757 183 q 432 -14 582 -14 q 325 2 376 -14 q 235 49 274 18 l 228 49 q 233 -24 231 26 q 235 -136 235 -74 l 235 -333 l 111 -333 l 111 382 m 431 88 q 585 160 538 88 q 632 372 632 232 q 585 585 632 515 q 433 656 539 656 q 235 381 235 656 l 235 156 q 324 104 274 121 q 431 88 375 88 z "},"ς":{"ha":833,"x_min":118,"x_max":706,"o":"m 506 -271 q 563 -174 538 -226 q 589 -83 589 -122 q 574 -42 589 -57 q 522 -17 558 -28 q 419 8 485 -6 q 265 63 333 28 q 158 166 197 97 q 118 357 118 235 q 167 581 118 492 q 301 714 215 669 q 499 758 388 758 q 613 747 560 758 q 706 718 667 735 l 667 617 q 588 641 631 631 q 493 651 546 651 q 303 574 363 651 q 244 347 244 496 q 258 246 244 285 q 301 182 271 207 q 383 140 332 157 q 513 103 435 122 q 608 74 564 90 q 678 26 651 57 q 704 -60 704 -4 q 678 -173 704 -117 q 621 -271 651 -229 l 506 -271 z "},"σ":{"ha":833,"x_min":76,"x_max":819,"o":"m 418 -14 q 170 81 264 -14 q 76 356 76 175 q 126 581 76 496 q 265 706 175 667 q 476 744 354 744 l 819 744 l 819 643 l 639 643 q 726 517 693 592 q 760 342 760 442 q 722 161 760 242 q 607 33 683 81 q 418 -14 531 -14 m 421 88 q 584 158 533 88 q 635 339 635 229 q 605 506 635 429 q 519 643 575 583 l 476 643 q 271 578 339 643 q 203 356 203 513 q 254 163 203 238 q 421 88 306 88 z "},"τ":{"ha":833,"x_min":110,"x_max":724,"o":"m 549 -15 q 431 3 485 -15 q 343 72 376 22 q 310 215 310 122 l 310 642 l 110 642 l 110 696 l 211 744 l 724 744 l 724 642 l 433 642 l 433 228 q 470 115 433 147 q 567 83 507 83 q 630 88 597 83 q 685 99 663 93 l 685 7 q 627 -8 665 -1 q 549 -15 589 -15 z "},"υ":{"ha":833,"x_min":111,"x_max":764,"o":"m 428 -14 q 235 33 304 -14 q 139 159 167 79 q 111 338 111 239 l 111 744 l 233 744 l 233 342 q 282 155 233 224 q 438 86 331 86 q 590 165 540 86 q 640 411 640 244 q 629 585 640 508 q 597 744 618 661 l 719 744 q 753 585 742 663 q 764 406 764 508 q 678 88 764 190 q 428 -14 593 -14 z "},"φ":{"ha":833,"x_min":76,"x_max":757,"o":"m 353 -11 q 149 98 221 0 q 76 369 76 196 q 109 577 76 483 q 208 753 142 671 l 300 696 q 219 544 239 619 q 199 388 199 469 q 235 178 199 249 q 353 92 271 107 l 353 511 q 395 696 353 632 q 526 760 438 760 q 660 710 610 760 q 734 578 711 660 q 757 401 757 497 q 726 198 757 288 q 632 53 694 108 q 474 -11 569 -1 l 474 -333 l 353 -333 l 353 -11 m 472 92 q 590 182 546 103 q 633 406 633 261 q 607 587 633 517 q 536 657 581 657 q 484 617 496 657 q 472 504 472 578 l 472 92 z "},"χ":{"ha":833,"x_min":63,"x_max":769,"o":"m 686 -337 q 588 -319 626 -337 q 527 -271 550 -300 q 492 -208 504 -242 q 472 -147 481 -175 l 401 114 l 193 -333 l 63 -333 l 346 236 l 265 532 q 224 619 250 589 q 160 650 199 650 q 138 648 150 650 q 117 642 126 646 l 117 738 q 153 745 132 742 q 199 749 175 749 q 310 707 272 749 q 369 579 347 665 l 431 340 l 611 744 l 742 744 l 482 222 l 579 -110 q 627 -206 599 -175 q 710 -237 656 -237 q 741 -235 725 -237 q 769 -232 757 -233 l 769 -326 q 733 -334 754 -331 q 686 -337 713 -337 z "},"ψ":{"ha":833,"x_min":111,"x_max":757,"o":"m 374 -12 q 181 81 251 -10 q 111 349 111 171 l 111 746 l 226 746 l 226 354 q 262 163 226 228 q 374 90 297 97 l 374 1056 l 483 1056 l 483 90 q 603 172 567 97 q 640 400 640 247 q 597 746 640 569 l 711 746 q 746 565 735 649 q 757 403 757 481 q 685 95 757 196 q 483 -12 614 -6 l 483 -333 l 374 -333 l 374 -12 z "},"ω":{"ha":833,"x_min":76,"x_max":757,"o":"m 274 -14 q 128 83 181 -14 q 76 365 76 181 q 92 555 76 463 q 140 746 107 647 l 258 746 q 207 553 219 644 q 194 369 194 461 q 218 159 194 224 q 286 94 242 94 q 344 144 326 94 q 363 299 363 193 l 363 483 l 471 483 l 471 299 q 489 144 471 194 q 546 94 507 94 q 640 364 640 94 q 626 558 640 460 q 576 746 613 656 l 693 746 q 757 367 757 556 q 703 84 757 182 q 557 -14 649 -14 q 469 19 504 -14 q 418 113 433 53 l 415 113 q 366 19 401 53 q 274 -14 331 -14 z "},"ϊ":{"ha":833,"x_min":182,"x_max":696,"o":"m 565 -14 q 456 6 504 -14 q 381 77 408 26 q 354 218 354 128 l 354 744 l 475 744 l 475 219 q 501 119 475 153 q 582 86 526 86 q 645 91 613 86 q 696 101 678 96 l 696 8 q 639 -8 676 -1 q 565 -14 601 -14 m 575 864 q 522 884 544 864 q 500 946 500 904 q 522 1007 500 989 q 575 1025 544 1025 q 628 1007 606 1025 q 651 946 651 989 q 628 884 651 904 q 575 864 606 864 m 257 864 q 204 884 226 864 q 182 946 182 904 q 204 1007 182 989 q 257 1025 226 1025 q 310 1007 288 1025 q 333 946 333 989 q 310 884 333 904 q 257 864 288 864 z "},"ϋ":{"ha":833,"x_min":111,"x_max":764,"o":"m 428 -14 q 235 33 304 -14 q 139 159 167 79 q 111 338 111 239 l 111 744 l 233 744 l 233 342 q 282 155 233 224 q 438 86 331 86 q 590 165 540 86 q 640 411 640 244 q 629 585 640 508 q 597 744 618 661 l 719 744 q 753 585 742 663 q 764 406 764 508 q 678 88 764 190 q 428 -14 593 -14 m 576 864 q 524 884 546 864 q 501 946 501 904 q 524 1007 501 989 q 576 1025 546 1025 q 630 1007 607 1025 q 653 946 653 989 q 630 884 653 904 q 576 864 607 864 m 258 864 q 206 884 228 864 q 183 946 183 904 q 206 1007 183 989 q 258 1025 228 1025 q 312 1007 289 1025 q 335 946 335 989 q 312 884 335 904 q 258 864 289 864 z "},"ό":{"ha":833,"x_min":76,"x_max":757,"o":"m 418 -14 q 244 28 321 -14 q 122 158 167 71 q 76 375 76 244 q 120 589 76 504 q 240 716 164 674 q 414 758 317 758 q 589 716 511 758 q 712 588 667 674 q 757 371 757 503 q 713 156 757 242 q 592 28 668 71 q 418 -14 515 -14 m 417 88 q 578 165 525 88 q 631 374 631 242 q 577 581 631 506 q 415 657 524 657 q 253 581 307 657 q 200 374 200 506 q 254 165 200 242 q 417 88 308 88 m 375 861 q 394 941 385 896 q 412 1033 404 986 q 424 1118 419 1081 l 554 1118 l 554 1103 q 531 1026 547 1072 q 492 930 514 979 q 449 842 471 881 l 375 842 l 375 861 z "},"ύ":{"ha":833,"x_min":111,"x_max":764,"o":"m 428 -14 q 235 33 304 -14 q 139 159 167 79 q 111 338 111 239 l 111 744 l 233 744 l 233 342 q 282 155 233 224 q 438 86 331 86 q 590 165 540 86 q 640 411 640 244 q 629 585 640 508 q 597 744 618 661 l 719 744 q 753 585 742 663 q 764 406 764 508 q 678 88 764 190 q 428 -14 593 -14 m 375 861 q 394 941 385 896 q 412 1033 404 986 q 424 1118 419 1081 l 554 1118 l 554 1103 q 531 1026 547 1072 q 492 930 514 979 q 449 842 471 881 l 375 842 l 375 861 z "},"ώ":{"ha":833,"x_min":76,"x_max":757,"o":"m 274 -14 q 128 83 181 -14 q 76 365 76 181 q 92 555 76 463 q 140 746 107 647 l 258 746 q 207 553 219 644 q 194 369 194 461 q 218 159 194 224 q 286 94 242 94 q 344 144 326 94 q 363 299 363 193 l 363 483 l 471 483 l 471 299 q 489 144 471 194 q 546 94 507 94 q 640 364 640 94 q 626 558 640 460 q 576 746 613 656 l 693 746 q 757 367 757 556 q 703 84 757 182 q 557 -14 649 -14 q 469 19 504 -14 q 418 113 433 53 l 415 113 q 366 19 401 53 q 274 -14 331 -14 m 375 861 q 394 941 385 896 q 412 1033 404 986 q 424 1118 419 1081 l 554 1118 l 554 1103 q 531 1026 547 1072 q 492 930 514 979 q 449 842 471 881 l 375 842 l 375 861 z "},"Ё":{"ha":833,"x_min":132,"x_max":715,"o":"m 132 0 l 132 992 l 715 992 l 715 881 l 257 881 l 257 574 l 689 574 l 689 463 l 257 463 l 257 111 l 715 111 l 715 0 l 132 0 m 582 1111 q 529 1131 551 1111 q 507 1193 507 1151 q 529 1254 507 1236 q 582 1272 551 1272 q 635 1254 613 1272 q 658 1193 658 1236 q 635 1131 658 1151 q 582 1111 613 1111 m 264 1111 q 211 1131 233 1111 q 189 1193 189 1151 q 211 1254 189 1236 q 264 1272 233 1272 q 317 1254 294 1272 q 340 1193 340 1236 q 317 1131 340 1151 q 264 1111 294 1111 z "},"Ђ":{"ha":833,"x_min":0,"x_max":729,"o":"m 506 -14 q 417 1 451 -14 l 417 108 q 490 94 450 94 q 574 124 540 94 q 608 236 608 153 l 608 356 q 572 467 608 431 q 449 503 535 503 l 292 503 l 292 0 l 171 0 l 171 885 l 0 885 l 0 992 l 561 992 l 561 885 l 292 885 l 292 610 l 458 610 q 660 548 590 610 q 729 369 729 486 l 729 228 q 669 49 729 111 q 506 -14 608 -14 z "},"Ѓ":{"ha":833,"x_min":160,"x_max":715,"o":"m 160 0 l 160 992 l 715 992 l 715 881 l 285 881 l 285 0 l 160 0 m 413 1106 q 458 1168 433 1132 q 506 1242 482 1204 q 544 1311 529 1281 l 692 1311 l 692 1297 q 640 1233 675 1272 q 566 1153 606 1193 q 493 1089 526 1114 l 413 1089 l 413 1106 z "},"Є":{"ha":833,"x_min":63,"x_max":779,"o":"m 531 -14 q 271 49 375 -14 q 115 226 167 113 q 63 489 63 339 q 116 758 63 642 q 276 941 169 875 q 539 1007 382 1007 q 671 992 613 1007 q 779 949 729 976 l 733 846 q 643 884 690 869 q 535 899 596 899 q 359 856 432 899 q 244 740 286 814 q 192 569 203 665 l 651 569 l 651 463 l 190 463 q 233 272 194 354 q 349 142 272 189 q 543 94 426 94 q 652 106 603 94 q 746 136 701 118 l 746 28 q 531 -14 654 -14 z "},"Ѕ":{"ha":833,"x_min":118,"x_max":735,"o":"m 390 -14 q 237 1 311 -14 q 118 38 163 15 l 118 153 q 243 112 169 131 q 393 93 317 93 q 607 267 607 93 q 588 342 607 314 q 519 395 568 369 q 381 460 469 421 q 267 518 322 486 q 176 603 211 550 q 140 742 140 656 q 225 938 140 869 q 457 1006 310 1006 q 599 990 532 1006 q 715 950 665 974 l 675 846 q 569 881 628 868 q 454 894 511 894 q 321 860 374 894 q 268 739 268 825 q 288 660 268 690 q 353 606 308 629 q 467 553 397 583 q 606 485 546 519 q 701 401 667 451 q 735 265 735 351 q 648 60 735 133 q 390 -14 561 -14 z "},"І":{"ha":833,"x_min":153,"x_max":681,"o":"m 153 0 l 153 86 l 353 104 l 353 888 l 153 906 l 153 992 l 681 992 l 681 906 l 478 888 l 478 104 l 681 86 l 681 0 l 153 0 z "},"Ї":{"ha":833,"x_min":153,"x_max":681,"o":"m 153 0 l 153 86 l 353 104 l 353 888 l 153 906 l 153 992 l 681 992 l 681 906 l 478 888 l 478 104 l 681 86 l 681 0 l 153 0 m 575 1111 q 522 1131 544 1111 q 500 1193 500 1151 q 522 1254 500 1236 q 575 1272 544 1272 q 628 1254 606 1272 q 651 1193 651 1236 q 628 1131 651 1151 q 575 1111 606 1111 m 257 1111 q 204 1131 226 1111 q 182 1193 182 1151 q 204 1254 182 1236 q 257 1272 226 1272 q 310 1254 288 1272 q 333 1193 333 1236 q 310 1131 333 1151 q 257 1111 288 1111 z "},"Ј":{"ha":833,"x_min":139,"x_max":646,"o":"m 350 -14 q 238 -3 297 -14 q 139 26 178 8 l 139 144 q 228 116 171 131 q 340 101 285 101 q 472 151 422 101 q 521 318 521 200 l 521 992 l 646 992 l 646 301 q 571 68 646 150 q 350 -14 496 -14 z "},"Љ":{"ha":833,"x_min":14,"x_max":819,"o":"m 82 -14 q 44 -10 60 -14 q 14 -1 28 -7 l 14 99 q 32 92 22 94 q 57 89 42 89 q 115 129 93 89 q 149 263 138 169 q 175 549 163 374 q 197 992 188 725 l 528 992 l 528 575 l 558 575 q 761 499 703 575 q 819 293 819 422 q 759 78 819 157 q 568 0 699 0 l 414 0 l 414 882 l 297 882 q 279 522 290 693 q 250 222 268 350 q 196 49 235 113 q 82 -14 157 -14 m 569 104 q 674 151 643 104 q 704 292 704 199 q 672 428 704 386 q 560 469 639 469 l 528 469 l 528 104 l 569 104 z "},"Њ":{"ha":833,"x_min":69,"x_max":819,"o":"m 69 0 l 69 992 l 190 992 l 190 576 l 382 576 l 382 992 l 503 992 l 503 575 l 549 575 q 756 499 693 575 q 819 292 819 424 q 754 78 819 157 q 558 0 689 0 l 382 0 l 382 469 l 190 469 l 190 0 l 69 0 m 551 104 q 696 292 696 104 q 658 428 696 386 q 542 469 621 469 l 503 469 l 503 104 l 551 104 z "},"Ћ":{"ha":833,"x_min":0,"x_max":729,"o":"m 169 0 l 169 883 l 0 883 l 0 992 l 581 992 l 581 883 l 292 883 l 292 610 l 461 610 q 661 547 593 610 q 729 363 729 485 l 729 0 l 608 0 l 608 356 q 573 466 608 431 q 451 501 538 501 l 292 501 l 292 0 l 169 0 z "},"Ќ":{"ha":833,"x_min":97,"x_max":764,"o":"m 97 0 l 97 992 l 218 992 l 218 514 l 613 992 l 747 992 l 351 513 l 764 0 l 624 0 l 218 507 l 218 0 l 97 0 m 360 1106 q 405 1168 381 1132 q 453 1242 429 1204 q 492 1311 476 1281 l 639 1311 l 639 1297 q 588 1233 622 1272 q 513 1153 553 1193 q 440 1089 474 1114 l 360 1089 l 360 1106 z "},"Ў":{"ha":833,"x_min":49,"x_max":785,"o":"m 214 -14 q 156 -9 183 -14 q 106 4 129 -4 l 106 119 q 204 97 153 97 q 299 133 264 97 q 369 271 335 169 l 49 992 l 179 992 l 396 492 q 432 389 414 450 l 438 389 q 451 439 443 414 q 468 486 460 464 l 657 992 l 785 992 l 513 282 q 434 113 474 179 q 342 17 394 47 q 214 -14 290 -14 m 413 1089 q 259 1142 314 1089 q 201 1275 204 1194 l 282 1275 q 313 1213 292 1233 q 363 1184 335 1192 q 417 1176 390 1176 q 499 1195 460 1176 q 551 1275 539 1214 l 633 1275 q 574 1142 632 1194 q 413 1089 517 1089 z "},"Џ":{"ha":833,"x_min":97,"x_max":736,"o":"m 357 -265 l 357 0 l 97 0 l 97 992 l 218 992 l 218 107 l 617 107 l 617 992 l 736 992 l 736 0 l 478 0 l 478 -265 l 357 -265 z "},"А":{"ha":833,"x_min":28,"x_max":806,"o":"m 28 0 l 350 996 l 482 996 l 806 0 l 678 0 l 583 304 l 249 304 l 154 0 l 28 0 m 375 711 l 283 415 l 549 415 l 457 711 q 438 778 450 735 q 415 864 425 821 q 394 778 407 821 q 375 711 382 735 z "},"Б":{"ha":833,"x_min":132,"x_max":757,"o":"m 132 0 l 132 992 l 701 992 l 701 885 l 253 885 l 253 575 l 425 575 q 620 541 547 575 q 725 444 693 507 q 757 292 757 381 q 678 77 757 154 q 436 0 600 0 l 132 0 m 429 106 q 585 152 536 106 q 633 292 633 199 q 583 428 633 386 q 418 469 533 469 l 253 469 l 253 106 l 429 106 z "},"В":{"ha":833,"x_min":132,"x_max":757,"o":"m 132 0 l 132 992 l 399 992 q 640 937 551 992 q 729 749 729 882 q 682 596 729 651 q 551 526 635 540 l 551 519 q 655 485 608 510 q 729 413 701 460 q 757 288 757 365 q 672 76 757 153 q 440 0 588 0 l 132 0 m 410 572 q 558 612 514 572 q 603 732 603 651 q 555 849 603 814 q 389 883 507 883 l 250 883 l 250 572 l 410 572 m 418 108 q 583 158 538 108 q 629 288 629 208 q 581 416 629 368 q 410 464 533 464 l 250 464 l 250 108 l 418 108 z "},"Г":{"ha":833,"x_min":160,"x_max":715,"o":"m 160 0 l 160 992 l 715 992 l 715 881 l 285 881 l 285 0 l 160 0 z "},"Д":{"ha":833,"x_min":28,"x_max":792,"o":"m 28 -265 l 28 108 l 96 108 q 240 533 185 306 q 303 992 296 761 l 683 992 l 683 108 l 792 108 l 792 -265 l 676 -265 l 676 0 l 143 0 l 143 -265 l 28 -265 m 224 108 l 564 108 l 564 883 l 413 883 q 379 621 406 758 q 313 351 353 483 q 224 108 274 218 z "},"Е":{"ha":833,"x_min":132,"x_max":715,"o":"m 132 0 l 132 992 l 715 992 l 715 881 l 257 881 l 257 574 l 689 574 l 689 463 l 257 463 l 257 111 l 715 111 l 715 0 l 132 0 z "},"Ж":{"ha":833,"x_min":14,"x_max":819,"o":"m 14 0 l 244 511 l 22 992 l 147 992 l 361 511 l 361 992 l 475 992 l 475 511 l 685 992 l 810 992 l 590 511 l 819 0 l 690 0 l 475 503 l 475 0 l 361 0 l 361 503 l 142 0 l 14 0 z "},"З":{"ha":833,"x_min":89,"x_max":739,"o":"m 368 -14 q 208 0 275 -14 q 89 38 142 14 l 89 153 q 209 108 139 126 q 361 90 279 90 q 553 138 492 90 q 614 278 614 185 q 543 418 614 374 q 331 463 472 463 l 196 463 l 196 567 l 328 567 q 529 612 465 567 q 593 746 593 657 q 543 862 593 822 q 399 901 493 901 q 251 875 306 901 q 156 821 197 849 l 97 908 q 224 975 150 944 q 408 1006 297 1006 q 640 937 563 1006 q 717 760 717 868 q 493 521 717 558 l 493 515 q 680 440 621 501 q 739 276 739 378 q 648 66 739 146 q 368 -14 557 -14 z "},"И":{"ha":833,"x_min":97,"x_max":736,"o":"m 97 0 l 97 992 l 213 992 l 213 424 q 210 303 213 369 q 204 183 207 236 l 210 183 l 594 992 l 736 992 l 736 0 l 621 0 l 621 574 q 624 703 621 633 q 631 815 628 772 l 625 815 l 238 0 l 97 0 z "},"Й":{"ha":833,"x_min":97,"x_max":736,"o":"m 97 0 l 97 992 l 213 992 l 213 424 q 210 303 213 369 q 204 183 207 236 l 210 183 l 594 992 l 736 992 l 736 0 l 621 0 l 621 574 q 624 703 621 633 q 631 815 628 772 l 625 815 l 238 0 l 97 0 m 413 1089 q 259 1142 314 1089 q 201 1275 204 1194 l 282 1275 q 313 1213 292 1233 q 363 1184 335 1192 q 417 1176 390 1176 q 499 1195 460 1176 q 551 1275 539 1214 l 633 1275 q 574 1142 632 1194 q 413 1089 517 1089 z "},"К":{"ha":833,"x_min":97,"x_max":764,"o":"m 97 0 l 97 992 l 218 992 l 218 514 l 613 992 l 747 992 l 351 513 l 764 0 l 624 0 l 218 507 l 218 0 l 97 0 z "},"Л":{"ha":833,"x_min":13,"x_max":736,"o":"m 92 -14 q 13 3 44 -14 l 13 106 q 75 92 40 92 q 150 150 128 92 q 186 306 172 208 q 209 471 196 364 q 238 713 222 578 q 269 992 254 849 l 736 992 l 736 0 l 615 0 l 615 882 l 372 882 q 355 718 364 804 q 336 548 346 632 q 316 390 326 464 q 297 265 306 317 q 231 56 274 125 q 92 -14 189 -14 z "},"М":{"ha":833,"x_min":69,"x_max":764,"o":"m 69 0 l 69 992 l 249 992 l 414 410 l 418 410 l 583 992 l 764 992 l 764 0 l 646 0 l 646 538 q 649 706 646 619 q 663 867 653 793 l 657 867 l 474 247 l 358 247 l 174 868 l 168 868 q 179 770 175 828 q 185 651 183 713 q 188 538 188 590 l 188 0 l 69 0 z "},"Н":{"ha":833,"x_min":97,"x_max":736,"o":"m 97 0 l 97 992 l 222 992 l 222 574 l 611 574 l 611 992 l 736 992 l 736 0 l 611 0 l 611 463 l 222 463 l 222 0 l 97 0 z "},"О":{"ha":833,"x_min":63,"x_max":771,"o":"m 415 -14 q 214 50 292 -14 q 99 229 136 114 q 63 496 63 344 q 99 764 63 649 q 215 944 136 879 q 417 1008 293 1008 q 619 944 540 1008 q 734 766 697 881 q 771 499 771 651 q 733 229 771 344 q 617 50 696 114 q 415 -14 539 -14 m 418 97 q 593 203 543 97 q 643 497 643 310 q 593 792 643 686 q 419 897 543 897 q 242 790 293 897 q 190 497 190 683 q 242 203 190 310 q 418 97 293 97 z "},"П":{"ha":833,"x_min":97,"x_max":736,"o":"m 97 0 l 97 992 l 736 992 l 736 0 l 617 0 l 617 885 l 218 885 l 218 0 l 97 0 z "},"Р":{"ha":833,"x_min":132,"x_max":757,"o":"m 132 0 l 132 992 l 415 992 q 675 916 593 992 q 757 701 757 840 q 723 546 757 619 q 610 427 689 472 q 397 382 532 382 l 257 382 l 257 0 l 132 0 m 383 490 q 568 538 507 490 q 629 694 629 585 q 574 840 629 797 q 404 883 519 883 l 257 883 l 257 490 l 383 490 z "},"С":{"ha":833,"x_min":92,"x_max":764,"o":"m 507 -14 q 269 51 361 -14 q 135 231 178 117 q 92 496 92 346 q 141 767 92 653 q 284 944 190 882 q 513 1006 378 1006 q 648 990 585 1006 q 764 947 711 975 l 717 846 q 619 882 674 869 q 513 894 564 894 q 295 792 371 894 q 219 496 219 689 q 288 206 219 311 q 510 101 356 101 q 612 112 557 101 q 721 144 667 122 l 721 26 q 615 -4 665 6 q 507 -14 564 -14 z "},"Т":{"ha":833,"x_min":63,"x_max":771,"o":"m 354 0 l 354 881 l 63 881 l 63 992 l 771 992 l 771 881 l 479 881 l 479 0 l 354 0 z "},"У":{"ha":833,"x_min":49,"x_max":785,"o":"m 214 -14 q 156 -9 183 -14 q 106 4 129 -4 l 106 119 q 204 97 153 97 q 299 133 264 97 q 369 271 335 169 l 49 992 l 179 992 l 396 492 q 432 389 414 450 l 438 389 q 451 439 443 414 q 468 486 460 464 l 657 992 l 785 992 l 513 282 q 434 113 474 179 q 342 17 394 47 q 214 -14 290 -14 z "},"Ф":{"ha":833,"x_min":49,"x_max":785,"o":"m 358 139 q 178 193 246 140 q 79 332 110 246 q 49 517 49 418 q 81 700 49 617 q 181 833 113 783 q 358 883 250 883 l 358 1006 l 478 1006 l 478 883 q 656 833 589 882 q 754 702 724 785 q 785 517 785 619 q 754 331 785 417 q 656 194 724 246 q 478 139 589 142 l 478 -14 l 358 -14 l 358 139 m 358 781 q 214 709 257 779 q 171 517 171 639 q 217 315 171 386 q 358 242 263 244 l 358 781 m 478 242 q 618 317 574 244 q 663 517 663 390 q 620 710 663 642 q 478 781 578 779 l 478 242 z "},"Х":{"ha":833,"x_min":49,"x_max":785,"o":"m 49 0 l 358 513 l 69 992 l 204 992 l 417 613 l 632 992 l 764 992 l 476 511 l 785 0 l 656 0 l 418 411 l 182 0 l 49 0 z "},"Ц":{"ha":833,"x_min":97,"x_max":833,"o":"m 97 0 l 97 992 l 218 992 l 218 107 l 617 107 l 617 992 l 736 992 l 736 108 l 833 108 l 833 -265 l 717 -265 l 717 0 l 97 0 z "},"Ч":{"ha":833,"x_min":97,"x_max":736,"o":"m 615 407 q 484 361 549 378 q 354 344 419 344 q 163 410 228 344 q 97 597 97 475 l 97 992 l 218 992 l 218 617 q 256 492 218 531 q 383 453 294 453 q 615 507 489 453 l 615 992 l 736 992 l 736 0 l 615 0 l 615 407 z "},"Ш":{"ha":833,"x_min":69,"x_max":764,"o":"m 69 0 l 69 992 l 185 992 l 185 108 l 358 108 l 358 992 l 474 992 l 474 108 l 649 108 l 649 992 l 764 992 l 764 0 l 69 0 z "},"Щ":{"ha":833,"x_min":69,"x_max":833,"o":"m 69 0 l 69 992 l 185 992 l 185 108 l 358 108 l 358 992 l 474 992 l 474 108 l 649 108 l 649 992 l 764 992 l 764 108 l 833 108 l 833 -265 l 717 -265 l 717 0 l 69 0 z "},"Ъ":{"ha":833,"x_min":0,"x_max":785,"o":"m 160 0 l 160 883 l 0 883 l 0 992 l 281 992 l 281 575 l 454 575 q 707 499 629 575 q 785 292 785 424 q 703 78 785 157 q 464 0 622 0 l 160 0 m 457 106 q 661 292 661 106 q 608 428 661 386 q 447 469 554 469 l 281 469 l 281 106 l 457 106 z "},"Ы":{"ha":833,"x_min":69,"x_max":764,"o":"m 69 0 l 69 992 l 190 992 l 190 575 l 278 575 q 485 499 422 575 q 549 292 549 424 q 483 78 549 157 q 288 0 418 0 l 69 0 m 643 0 l 643 992 l 764 992 l 764 0 l 643 0 m 281 104 q 425 292 425 104 q 388 428 425 386 q 271 469 350 469 l 190 469 l 190 104 l 281 104 z "},"Ь":{"ha":833,"x_min":132,"x_max":757,"o":"m 132 0 l 132 992 l 253 992 l 253 575 l 426 575 q 679 499 601 575 q 757 292 757 424 q 676 78 757 157 q 436 0 594 0 l 132 0 m 429 106 q 633 292 633 106 q 580 428 633 386 q 419 469 526 469 l 253 469 l 253 106 l 429 106 z "},"Э":{"ha":833,"x_min":54,"x_max":771,"o":"m 303 -14 q 88 28 179 -14 l 88 136 q 181 106 132 118 q 290 94 231 94 q 484 142 407 94 q 601 272 561 189 q 643 463 640 354 l 182 463 l 182 569 l 642 569 q 590 740 632 665 q 475 856 547 814 q 299 899 403 899 q 191 884 239 899 q 100 846 143 869 l 54 949 q 163 992 104 976 q 294 1007 222 1007 q 558 941 451 1007 q 717 758 664 875 q 771 489 771 642 q 719 226 771 339 q 563 49 667 113 q 303 -14 458 -14 z "},"Ю":{"ha":833,"x_min":88,"x_max":771,"o":"m 88 0 l 88 992 l 208 992 l 208 572 l 321 572 q 346 802 324 704 q 416 953 368 900 q 546 1007 464 1007 q 681 947 632 1007 q 751 774 731 886 q 771 507 771 663 q 752 238 771 356 q 685 53 733 119 q 544 -14 636 -14 q 412 47 460 -14 q 343 215 364 107 q 319 464 322 322 l 208 464 l 208 0 l 88 0 m 546 94 q 626 199 606 94 q 647 500 647 304 q 626 797 647 694 q 547 899 606 899 q 465 795 488 899 q 442 497 442 692 q 465 198 442 301 q 546 94 488 94 z "},"Я":{"ha":833,"x_min":43,"x_max":701,"o":"m 701 0 l 576 0 l 576 406 l 421 406 l 182 0 l 43 0 l 308 442 q 214 495 257 461 q 146 583 171 529 q 121 714 121 636 q 469 992 121 992 l 701 992 l 701 0 m 474 514 l 576 514 l 576 883 l 476 883 q 304 842 358 883 q 250 703 250 801 q 301 562 250 610 q 474 514 351 514 z "},"а":{"ha":833,"x_min":97,"x_max":708,"o":"m 342 -14 q 165 40 232 -14 q 97 204 97 94 q 184 385 97 325 q 435 449 271 444 l 594 453 l 594 483 q 544 620 594 583 q 410 657 494 657 q 296 642 350 657 q 193 599 242 626 l 150 693 q 267 739 203 719 q 417 758 332 758 q 633 695 557 758 q 708 499 708 632 l 708 0 l 608 0 l 594 103 l 589 103 q 483 15 543 44 q 342 -14 424 -14 m 363 88 q 478 110 425 88 q 563 180 531 133 q 594 297 594 226 l 594 364 l 461 360 q 272 317 328 356 q 215 208 215 278 q 256 116 215 144 q 363 88 296 88 z "},"б":{"ha":833,"x_min":76,"x_max":757,"o":"m 422 -14 q 167 103 258 -14 q 76 476 76 219 q 148 815 76 688 q 392 997 219 943 q 475 1020 424 1007 q 585 1045 526 1033 q 697 1063 644 1057 l 714 958 q 613 944 668 953 q 508 924 558 935 q 424 903 458 914 q 258 791 310 868 q 199 576 207 714 l 207 576 q 307 658 240 622 q 467 693 374 693 q 682 602 607 693 q 757 353 757 511 q 667 81 757 176 q 422 -14 576 -14 m 429 86 q 580 148 525 86 q 635 344 635 210 q 588 529 635 464 q 444 594 542 594 q 330 571 382 594 q 243 515 278 547 q 196 453 208 482 q 219 260 197 343 q 291 132 240 178 q 429 86 342 86 z "},"в":{"ha":833,"x_min":181,"x_max":742,"o":"m 181 0 l 181 746 l 472 746 q 653 702 585 746 q 721 560 721 658 q 687 451 721 492 q 592 397 653 411 l 592 392 q 699 339 657 382 q 742 219 742 296 q 678 60 742 119 q 478 0 614 0 l 181 0 m 460 438 q 601 547 601 438 q 569 624 601 599 q 465 650 536 650 l 299 650 l 299 438 l 460 438 m 468 94 q 583 125 544 94 q 622 224 622 156 q 583 315 622 288 q 468 343 543 343 l 299 343 l 299 94 l 468 94 z "},"г":{"ha":833,"x_min":260,"x_max":699,"o":"m 260 0 l 260 746 l 699 746 l 699 644 l 378 644 l 378 0 l 260 0 z "},"д":{"ha":833,"x_min":82,"x_max":750,"o":"m 82 -260 l 82 101 l 142 101 q 257 405 219 235 q 297 746 294 575 l 656 746 l 656 101 l 750 101 l 750 -260 l 636 -260 l 636 0 l 196 0 l 196 -260 l 82 -260 m 263 101 l 542 101 l 542 649 l 400 649 q 379 461 396 558 q 333 271 363 364 q 263 101 304 178 z "},"е":{"ha":833,"x_min":83,"x_max":750,"o":"m 468 -14 q 186 85 289 -14 q 83 369 83 185 q 128 578 83 492 q 251 712 172 665 q 436 758 331 758 q 666 664 582 758 q 750 406 750 569 l 750 349 l 210 349 q 247 194 213 251 q 340 113 281 138 q 476 89 399 89 q 597 106 538 89 q 717 150 657 122 l 717 39 q 589 -1 653 11 q 468 -14 525 -14 m 625 449 q 573 601 621 546 q 436 657 525 657 q 285 601 343 657 q 213 449 228 544 l 625 449 z "},"ж":{"ha":833,"x_min":14,"x_max":818,"o":"m 14 0 l 250 393 l 32 746 l 154 746 l 360 392 l 360 746 l 471 746 l 471 392 l 678 746 l 800 746 l 582 393 l 818 0 l 690 0 l 471 386 l 471 0 l 360 0 l 360 386 l 140 0 l 14 0 z "},"з":{"ha":833,"x_min":104,"x_max":704,"o":"m 369 -14 q 219 2 289 -14 q 104 40 150 18 l 104 147 q 219 105 150 125 q 372 85 289 85 q 529 116 475 85 q 583 215 583 147 q 530 309 583 276 q 349 342 476 342 l 257 342 l 257 438 l 338 438 q 500 466 444 438 q 556 554 556 494 q 386 661 556 661 q 268 649 319 661 q 172 615 217 636 l 129 704 q 250 745 183 731 q 392 760 317 760 q 600 708 528 760 q 672 568 672 656 q 513 399 672 436 l 513 393 q 648 334 592 376 q 704 207 704 292 q 624 49 704 113 q 369 -14 544 -14 z "},"и":{"ha":833,"x_min":111,"x_max":722,"o":"m 111 0 l 111 746 l 224 746 l 224 310 q 222 228 224 276 q 217 142 219 179 l 583 746 l 722 746 l 722 0 l 611 0 l 611 424 q 613 515 611 461 q 617 604 615 568 l 250 0 l 111 0 z "},"й":{"ha":833,"x_min":111,"x_max":722,"o":"m 111 0 l 111 746 l 224 746 l 224 310 q 222 228 224 276 q 217 142 219 179 l 583 746 l 722 746 l 722 0 l 611 0 l 611 424 q 613 515 611 461 q 617 604 615 568 l 250 0 l 111 0 m 417 842 q 263 894 318 842 q 206 1028 208 947 l 286 1028 q 317 965 296 986 q 367 937 339 944 q 421 929 394 929 q 503 948 464 929 q 556 1028 543 967 l 638 1028 q 578 894 636 947 q 417 842 521 842 z "},"к":{"ha":833,"x_min":146,"x_max":792,"o":"m 146 0 l 146 746 l 264 746 l 264 388 l 617 746 l 769 746 l 404 390 l 792 0 l 640 0 l 264 382 l 264 0 l 146 0 z "},"л":{"ha":833,"x_min":76,"x_max":722,"o":"m 135 -10 q 103 -7 118 -10 q 76 1 88 -4 l 76 96 q 110 89 90 89 q 210 249 175 89 q 264 744 246 410 l 722 744 l 722 0 l 604 0 l 604 644 l 369 644 q 328 271 356 415 q 256 58 301 126 q 135 -10 210 -10 z "},"м":{"ha":833,"x_min":69,"x_max":764,"o":"m 69 0 l 69 746 l 231 746 l 415 154 l 603 746 l 764 746 l 764 0 l 654 0 l 654 440 q 663 600 654 507 l 657 600 l 465 0 l 364 0 l 176 600 l 171 600 q 176 515 174 557 q 178 439 178 472 l 178 0 l 69 0 z "},"н":{"ha":833,"x_min":111,"x_max":722,"o":"m 111 0 l 111 744 l 229 744 l 229 436 l 606 436 l 606 744 l 722 744 l 722 0 l 606 0 l 606 336 l 229 336 l 229 0 l 111 0 z "},"о":{"ha":833,"x_min":76,"x_max":757,"o":"m 418 -14 q 244 28 321 -14 q 122 158 167 71 q 76 375 76 244 q 120 589 76 504 q 240 716 164 674 q 414 758 317 758 q 589 716 511 758 q 712 588 667 674 q 757 371 757 503 q 713 156 757 242 q 592 28 668 71 q 418 -14 515 -14 m 417 88 q 578 165 525 88 q 631 374 631 242 q 577 581 631 506 q 415 657 524 657 q 253 581 307 657 q 200 374 200 506 q 254 165 200 242 q 417 88 308 88 z "},"п":{"ha":833,"x_min":111,"x_max":722,"o":"m 111 0 l 111 746 l 722 746 l 722 0 l 606 0 l 606 644 l 229 644 l 229 0 l 111 0 z "},"р":{"ha":833,"x_min":111,"x_max":757,"o":"m 111 -333 l 111 744 l 214 744 l 229 643 l 235 643 q 320 728 267 697 q 457 758 374 758 q 675 661 593 758 q 757 374 757 564 q 675 85 757 183 q 457 -14 593 -14 q 321 19 375 -14 q 235 96 267 53 l 226 96 q 235 -15 235 42 l 235 -333 l 111 -333 m 431 88 q 582 159 535 88 q 629 376 629 231 q 583 588 629 519 q 429 657 536 657 q 281 591 328 657 q 235 401 235 525 l 235 374 q 277 165 235 242 q 431 88 319 88 z "}}}
